<?xml version="1.0" encoding="utf-8" ?><svg xmlns="http://www.w3.org/2000/svg" xmlns:xlink="http://www.w3.org/1999/xlink" width="1024" height="1024" viewBox="0 0 1024 1024"><path fill="#010101" d="M454.016 205.645C452.634 184.061 451.88 161.926 466.868 144.274C475.024 134.668 490.105 132.446 501.69 129.974C522.058 125.627 543.853 126.551 560.149 141.159C573.77 153.37 574.342 175.837 573.937 192.78C573.867 195.828 572.656 201.748 573.271 204.417C578.961 208.139 582.934 209.923 584.255 217.063C586.509 229.238 576.959 236.206 566.106 236.795C565.447 255.22 569.734 276.995 552.154 288.891C551.315 294.499 551.06 309.239 551.288 315.276C557.114 320.344 562.793 322.534 569.2 326.297C595.875 341.977 627.49 351.246 648.221 375.426C651.568 379.33 655.886 386.195 657.393 391.135C677.082 455.718 690.345 522.088 705.816 587.766C706.715 591.58 707.165 595.598 708.394 599.344C712.579 611.415 717.808 623.271 722.944 634.966C731.938 655.486 741.718 675.652 752.263 695.42C756.281 703.049 760.722 711.949 765.056 719.216C778.584 722.731 790.961 727.315 798.264 739.985C805.063 751.78 801.236 760.72 792.929 769.711L798.45 780.801C803.603 782.392 817.959 784.693 820.287 787.29L820.486 788.355C817.67 791.503 805.133 786.649 800.723 786.06C803.986 793.99 806.784 800.591 808.872 808.96C821.689 812.837 852.455 823.367 859.34 835.246C860.004 836.392 860.923 840.091 861.251 841.627C860.655 843.574 860.11 845.671 858.882 847.327C853.041 855.21 836.196 863.744 827.28 868.486C820.255 872.222 785.264 889.143 779.641 887.784C778.87 887.598 778.796 887.525 778.166 887.212L778.024 885.989C781.548 882.45 798.254 876.921 803.734 874.449C820.843 866.733 839.415 859.041 854.174 847.34C858.94 843.561 857.424 836.122 852.923 833.171C841.838 825.904 822.576 816.504 809.782 813.688L812.249 824.169C808.897 827.646 806.302 829.118 802.206 825.597L801.611 825.096C801.482 824.982 801.352 824.869 801.223 824.756C796.227 846.118 789.032 858.705 769.833 871.093C746.206 886.339 720.443 880.944 694.566 875.238C689.028 873.504 683.157 871.889 677.562 870.272C666.624 867.589 646.285 860.426 634.766 856.761C620.445 863.112 594.744 864.566 579.078 866.642C576.159 866.459 573.369 866.502 570.472 866.952C553.386 867.331 536.112 867.144 519.299 867.545L511.553 867.235L503.526 867.102L498.257 867.025L494.145 866.899C490.373 866.569 488.08 866.491 484.293 866.555C476.345 865.536 461.424 865.093 453.314 864.923C451.865 864.398 450.991 864.594 449.378 864.608C434.973 863.337 420.552 862.243 406.119 861.327C403.048 861.031 399.972 860.786 396.893 860.593C395.21 860.402 385.613 859.158 384.516 859.339C376.119 860.731 366.56 864.657 358.356 867.218C320.362 879.076 270.377 891.094 241.541 854.437C236.401 847.903 231.916 839.742 230.507 831.484C230.354 830.587 229.24 824.363 229.289 824.399C225.686 821.717 221.066 821.888 222.172 815.365C223.544 807.28 227.172 796.856 230.066 788.828C217.584 790.381 204.047 796.651 193.751 803.772C192.046 804.951 189.429 807.353 187.65 806.342C187.325 805.412 187.007 804.56 187.807 803.743C198.285 793.042 218.591 786.756 231.697 783.691C233.804 780.33 235.859 776.678 237.935 773.425C215.443 743.85 237.798 730.281 263.448 720.017C274.091 699.452 284.315 676.283 293.75 655.098C300.304 640.379 309.058 622.198 313.716 607.174C322.178 579.88 328.701 550.308 335.16 522.422C341.527 495.139 348.358 467.967 355.649 440.917C359.92 424.813 368.553 385.575 379.665 374.072C397.046 356.08 427.992 344.246 450.049 332.311C461.607 326.157 467.729 324.182 478.713 315.88C478.845 308.326 479.36 296.088 478.659 288.971C459.455 276.358 464.112 257.391 463.868 237.557C457.245 236.708 451.301 236.019 446.98 230.176C440.133 220.916 445.305 211.076 454.016 205.645ZM612.487 676.047C612.713 640.452 614.805 602.927 616 567.232C616.755 538.354 618.127 509.496 620.114 480.677C620.429 476.189 618.382 453.327 627.46 459.353C628.92 462.177 627.783 473.558 628.262 477.702C628.941 483.561 629.186 490.34 630.367 496.161C643.1 495.64 662.009 491.551 673.701 486.1C668.972 458.385 658.488 425.364 650.974 398.001C642.832 368.357 600.001 351.343 574.029 338.447C567.766 345.446 549.989 352.392 540.948 354.437C516.424 359.985 479.126 354.971 460.938 336.302C435.806 348.615 404.705 360.899 384.805 381.074C377.596 388.383 373.239 407.58 370.504 417.604C366.814 430.703 363.377 443.872 360.195 457.103C358.203 465.221 354.187 479.487 352.937 487.241C368.106 491.393 379.149 493.117 394.303 496.199C395.144 488.401 396.706 480.739 397.896 472.991C398.606 468.371 398.187 459.528 403.995 458.036C407.176 459.501 406.753 465.723 406.952 468.967C407.686 480.923 407.489 492.948 407.802 504.921L410.113 585.799C410.418 594.759 411.351 603.479 411.535 612.513L412.062 658.041C412.162 664.758 412.004 673.29 412.651 679.773C422.288 681.141 431.866 682.848 441.534 683.999C473.779 687.998 506.324 689.022 538.757 687.058C552.419 686.217 565.092 685.289 578.615 682.753C590.422 681.349 600.957 678.69 612.487 676.047ZM242.961 777.047C240.12 785.261 229.062 808.501 229.914 815.864L230.572 816.774C233.53 815.584 239.895 798.246 242.083 794.325C243.974 790.934 244.888 782.779 250.583 785.598C253.814 791.859 235.446 818.412 239.027 825.753L239.963 826.354C242.264 824.424 249.212 804.862 251.276 800.909C253.199 797.223 254.204 787.186 259.447 786.185C261.294 786.598 261.22 786.677 262.518 787.953C264.357 793.843 251.488 813.891 250.913 819.049C250.232 825.15 253.66 835.85 239.463 832.49L239.02 832.994C242.334 845.837 251.964 856.951 263.196 863.626C283.021 875.408 312.816 871.688 334.207 866.034C355.497 860.408 376.681 853.265 397.515 846.139C416.185 839.919 434.817 833.584 453.409 827.134C461.454 824.301 469.586 821.078 477.631 818.383L534.501 799.443C541.318 797.172 556.833 792.916 561.906 789.503C566.12 777.316 562.566 763.279 557.513 751.821C554.667 745.902 553.239 743.374 548.848 738.51C527.631 743.976 496.757 749.051 474.966 752.776C449.186 757.136 423.494 762.006 397.906 767.384C368.642 773.58 340.074 778.626 315.551 797.238C314.317 798.174 312.066 798.18 310.647 797.708C305.888 791.752 318.621 785.414 322.501 783.152C340.744 772.515 361.273 766.621 381.925 762.812C388.266 761.641 395.908 760.058 402.409 759.732C386.313 756.458 368.385 755.184 351.903 752.444C338 750.133 322.73 746.254 309.031 744.55C304.014 763.685 282.878 819.189 266.357 828.316C263.651 829.81 260.542 830.45 257.515 829.606C255.801 829.128 254.149 827.821 253.445 826.159C252.642 824.262 253.361 822.011 254.262 820.286C256.027 816.906 258.634 813.993 260.368 810.605C263.483 804.517 267.827 787.874 273.579 785.233C276.657 785.465 277.599 788.336 276.637 790.921C272.592 801.782 267.303 812.383 261.385 822.355C278.623 807.423 298.419 758.69 303.994 736.133C300.181 736.224 296.515 737.082 295.155 732.702C296.443 728.172 301.169 728.373 304.996 728.518C316.78 707.144 328.049 684.578 339.655 663.012C346.639 650.034 356.363 631.362 361.437 618.006C365.368 607.658 369.582 591.046 372.444 580.136L385.023 532.004C387.297 523.103 389.493 513.184 392.004 504.44C379.881 502.077 362.689 499.095 350.856 495.812C339.746 534.514 333.154 575.054 320.26 613.345C314.515 629.979 306.597 645.887 299.366 661.924C292.707 676.69 286.648 691.718 279.138 706.086C275.553 712.288 273.433 718.791 270.755 725.284C270.005 727.103 260.142 729.922 258.133 730.605C245.572 734.873 231.391 745.855 238.636 760.678C239.606 762.663 241.373 764.786 243.31 766.012L244.21 765.866C247.363 759.841 236.03 746.159 257.585 739.392C260.638 738.434 265.799 737.173 268.911 738.729C270.048 739.297 270.674 740.554 270.909 741.684C271.105 742.627 270.537 743.821 269.795 744.307C263.235 748.608 253.354 746.061 251.94 756.244C251.737 757.703 251.971 758.38 252.867 759.624C255.064 760.365 258.25 756.199 261.351 761.169C261.606 762.58 261.334 763.983 260.41 764.932C257.658 767.756 246.011 775.815 242.961 777.047ZM523.268 811.884C528.347 814.574 533.397 816.134 538.838 817.96C551.153 822.518 565.319 826.618 577.902 830.43L624.324 844.721L674.173 860.228C700.014 868.124 733.309 879.471 759.298 867.584C772.145 861.707 784.692 848.208 790.199 835.235C791.175 832.893 791.112 831.222 790.118 829.009C785.983 826.325 781.355 833.294 777.871 830.432C771.144 824.907 761.977 820.248 756.142 813.94C740.918 797.481 731.83 774.816 723.823 754.101C722.933 751.801 721.529 745.976 720.418 744.2C709.133 747.442 688.652 748.526 676.077 749.991C657.257 752.183 643.723 755.629 625.738 759.778C654.431 764.137 684.814 774.384 708.335 791.761C710.642 793.466 708.616 800.042 701.672 796.484C694.657 792.889 687.9 788.4 680.734 785.067C665.48 777.155 628.376 765.408 612.795 764.103C608.47 763.741 576.522 775.344 571.499 777.187C571.389 783.347 571.015 790.273 566.202 794.765C559.444 801.072 533.311 807.723 523.268 811.884ZM765.463 812.949C762.338 806.56 748.784 783.618 755.645 779.123C756.782 779.225 757.809 779.297 758.451 780.507C763.065 789.208 773.581 818.051 781.052 823.472C785.98 819.255 764.584 788.989 769.991 783.094C774.73 782.467 774.705 786.651 776.654 789.603C782.667 798.708 785.745 810.432 791.454 819.47C792.654 821.48 792.317 821.681 794.046 822.487C800.904 818.535 778.827 794.828 783.924 787.473C786.317 786.952 788.029 787.995 789.412 789.916C795.984 799.044 799.389 811.352 805.402 820.663C802.798 803.463 796.245 789.113 786.291 775.05C780.592 774.79 768.583 774.222 771.151 765.49C772.573 760.654 776.105 757.947 777.946 753.341C772.119 742.104 759.501 746.949 755.645 741.764C755.509 739.629 755.281 740.597 756.35 738.75C766.341 731.987 803.541 747.865 778.444 763.676C782.227 767.193 785.835 765.996 788.551 762.341C801.898 744.389 780.956 731.892 765.787 728.046C759.478 726.446 754.855 726.178 755.753 719.527C754.549 716.303 752.493 713.548 750.807 710.562C736.305 684.88 724.094 657.94 711.763 631.23C702.427 611.008 697.727 594.737 693.767 572.936C691.187 558.728 686.506 544.068 683.683 529.833C682.445 524.74 677.057 498.124 675.083 495.219C666.616 497.999 659.819 500.193 650.995 501.99C645.1 503.19 639.954 503.618 634.221 504.534C635.736 515.042 641.914 537.145 644.739 548.114C648.523 563.033 652.557 577.888 656.84 592.672C660.45 605.258 664.055 618.023 669.469 629.994C672.994 637.788 677.634 645.904 681.787 653.456C689.444 667.369 697.215 681.219 705.099 695.004C709.872 703.52 714.046 712.643 719.425 720.607C720.086 721.587 726.086 723.174 727.433 723.861C736.998 728.737 734.047 735.751 727.511 740.498C734.006 760.698 743.457 783.471 755.273 801.217C757.635 804.765 762.422 809.62 765.463 812.949ZM469.949 211.564L469.823 242.182C469.792 251.06 469.229 260.702 471.183 269.323C475.581 288.727 499.274 292.933 516.002 293.026C529.454 293.1 546.763 289.561 555.01 277.889C563.526 261.794 558.874 227.935 559.156 209.58C559.203 206.567 556.342 196.465 554.749 193.618C553.872 193.827 554.298 193.706 553.471 193.976C549.45 191.006 546.936 186.536 543.363 183.119C542.313 182.115 539.14 180.127 537.796 179.272C538.673 182.103 539.672 184.302 538.896 187.175C534.748 191.358 525.333 182.402 520.684 181.586C520.703 183.894 521.498 185.407 520.714 187.14C515.87 189.836 506.646 184.371 502.219 182.12C502.704 183.546 502.646 183.294 503.456 184.615L503.358 185.769C496.78 189.69 488.727 177.464 485.752 172.869C482.329 190.975 480.678 196.281 469.949 211.564ZM502.299 847.621C513.606 848.609 536.002 847.795 547.752 847.173C550.127 846.936 553.293 846.886 555.705 846.832C567.02 846.579 578.092 844.669 589.35 843.797C583.84 841.965 567.68 836.193 562.803 835.942C556.971 835.642 543.439 836.685 536.885 837.067L492.765 837.723C485.943 837.734 479.121 837.606 472.303 837.339C467.979 837.138 454.823 835.795 451.595 836.683C444.183 838.722 436.108 841.548 428.398 843.588C433.873 843.326 439.277 844.073 444.732 844.528C463.758 846.116 483.213 847.478 502.299 847.621ZM611.897 685.237C596.748 687.586 579.528 691.131 564.652 692.82C513.57 698.619 463.721 695.044 413.057 687.525C412.917 689.461 412.445 691.619 413.474 693.127C414.264 693.398 414.814 693.592 415.624 693.806C473.602 706.469 533.521 707.458 591.885 696.715C599.387 695.34 605.035 693.467 612.004 691.985C612.372 689.512 612.755 688.049 612.345 685.568L611.897 685.237ZM528.097 832.619C536.562 832.591 545.026 832.384 553.483 831.998C538.97 826.697 537.198 825.405 521.406 826.514C511.87 827.184 493.255 826.555 484.438 824.088C477.22 825.813 468.038 830.539 460.385 832.825C477.862 832.743 494.768 835.552 511.855 831.434C514.668 830.756 524.748 832.209 528.097 832.619ZM548.131 863.031C568.275 863.217 588.529 861.666 608.485 858.948C615.173 858.038 622.035 856.322 628.698 855.036L599.624 846.148C584.131 849.336 557.232 850.843 541.037 852.081C529.471 851.633 513.306 852.214 501.167 852.194C483.345 851.266 465.532 850.298 447.714 849.276C438.986 848.776 429.534 847.024 420.902 847.333C417.39 847.459 403.51 852.011 401.558 854.582C401.886 855.55 401.598 855.295 402.494 855.726C406.751 857.771 490.825 862.793 502.667 862.334L515.567 862.864C519.053 862.984 524.968 863.36 528.264 863.098C533.143 863.424 539.2 863.306 544.158 863.118C545.476 863.102 546.819 863.112 548.131 863.031ZM601.877 720.16C616.387 719.384 631.113 718.064 645.651 717.843C640.117 713.908 621.034 703.305 614.32 700.026C556.462 715.264 469.422 715.008 412.162 700.108C402.048 704.347 392.714 710.859 383.26 716.367C380.88 717.755 379.504 716.303 378.276 719.004C397.205 720.508 416.471 718.701 435.406 719.775C440.446 720.062 454.605 718.669 457.167 722.9C460.837 728.96 460.898 730.186 468.866 730.93C479.283 732.8 501.797 732.929 509.818 738.775C517.274 738.19 542.29 732.717 550.296 730.57C552.675 728.277 554.526 724.966 556.529 723.026C561.049 718.648 570.879 718.809 576.786 718.441C582.604 718.135 584.35 720.062 587.914 720.75C589.278 721.013 600.022 720.297 601.877 720.16ZM510.606 815.654C507.887 817.771 505.441 818.36 502.191 819.491C506.729 820.249 507.981 820.17 512.624 819.971C514.969 819.821 516.148 819.742 518.432 819.292L510.606 815.654ZM527.139 301.597C518.527 302.326 510.931 301.789 502.322 301.358C491.326 315.964 484.941 323.674 468.059 332.35C483.526 345.612 509.172 349.661 528.893 348.099C529.861 348.022 530.829 347.93 531.794 347.823C545.799 345.133 553.907 342.694 566.008 334.594C548.348 324.298 539.085 319.057 527.139 301.597ZM463.425 212.771C461.08 213.74 461.005 214.213 458.856 213.94L456.704 212.12C446.386 217.93 449.261 227.859 459.558 231.21C461.189 231.37 462.537 231.81 463.76 231.211C464.112 226.502 463.744 217.689 463.425 212.771ZM566.292 209.866C565.702 215.342 565.446 225.553 566.133 230.982C569.224 230.472 571.091 230.413 573.772 228.749C579.292 223.49 578.739 219.034 574.494 213C570.731 211.074 570.218 211.053 566.292 209.866ZM465.963 735.26C467.709 738.488 469.324 741.911 470.937 745.218C479.205 744.41 487.579 742.85 495.771 741.387L499.691 740.356L499.992 739.836C497.647 739.118 495.505 739.402 493.484 739.033C488.227 738.075 469.987 736.806 465.963 735.26ZM327.032 716.545C341.109 715.809 351.917 714.85 366.035 716.062C375.878 710.869 396.454 700.859 404.949 694.094C405.892 687.859 405.278 679.724 405.076 673.274L404.485 648.594C403.69 605.685 401.351 562.708 400.237 519.805C400.191 518.054 400.005 516.565 399.128 515.031C396.167 521.441 392.24 539.035 390.2 546.5C383.611 570.611 377.92 595.371 369.632 618.985C365.266 631.427 359.307 642.467 353.305 654.136C346.362 667.86 339.176 681.459 331.749 694.927C328.235 701.443 322.74 710.995 319.822 717.438C322.321 717.05 324.534 716.798 327.032 716.545ZM702.81 717.744L708.368 718.156C704.738 710.929 699.842 703.376 695.788 696.195C687.814 682.24 680.031 668.178 672.441 654.011C668.275 646.269 664.313 638.904 660.541 630.967C656.568 622.61 652.92 607.88 650.517 601.773C646.726 592.139 627.902 514.434 626.682 512.885C625.885 524.917 625.764 535.849 625.244 547.694C623.464 581.785 622.281 615.905 621.695 650.038C621.456 662.659 619.74 681.458 620.039 692.77C631.895 700.265 647.24 708.212 658.35 716.578C673.794 716.181 687.42 715.504 702.81 717.744Z"/><path fill="#010101" d="M516.915 214.18C525.017 216.693 523.642 235.784 528.786 242.517C529.668 243.671 529.395 241.797 531.002 243.732C530.063 247.517 525.796 249.328 522.523 250.863C521.855 251.007 521.182 251.123 520.505 251.209C516.482 251.71 510.095 248.883 509.64 244.21C510.351 243.16 512.642 241.736 512.807 241.015C514.394 234.079 512.21 219.591 516.915 214.18Z"/><path fill="#010101" d="M540.668 199.155C544.468 199.049 551.124 200.591 550.992 205.36L549.956 206.085C548.08 206.143 546.725 205.145 545.041 204.223C540.423 203.217 534.866 205.412 532.306 203.539L532.661 202.532C535.496 199.737 536.702 199.821 540.668 199.155Z"/><path fill="#010101" d="M490.896 199.607C494.653 199.387 499.742 199.969 501.539 203.854L501.03 204.819C498.626 205.827 494.577 203.614 491.114 203.679C487.467 204.312 484.599 208.005 481.529 206.082C480.65 202.146 488.136 200.028 490.896 199.607Z"/><path fill="#010101" d="M529.548 219.771C532.567 220.548 535.979 221.56 539.062 221.868C541.822 222.143 546.987 218.924 548.803 221.996L548.199 223.316C542.956 227.145 529.347 228.101 529.548 219.771Z"/><path fill="#010101" d="M482.626 220.338C485.348 220.371 489.214 222.241 491.823 222.246C494.755 222.251 498.512 219.957 501.273 220.972C502.186 222.583 501.875 221.697 501.814 223.854C496.509 226.727 483.757 228.723 482.626 220.338Z"/><path fill="#010101" d="M526.497 258.392C527.813 258.61 527.196 258.394 528.265 259.285L528.188 260.515C524.569 265.625 518.086 265.515 512.768 263.56C511.081 262.129 510.907 262.099 510.426 260.226L511.215 259.548C513.499 259.217 514.672 260.08 516.793 261.094C521.113 260.76 522.858 260.895 526.497 258.392Z"/><path fill="#FEFEFE" fill-opacity="0.63137257" d="M501.167 852.194C513.306 852.214 529.471 851.633 541.037 852.081C542.449 858.963 546.239 855.99 548.131 863.031C546.819 863.112 545.476 863.102 544.158 863.118L543.739 861.869C541.525 860.59 537.446 859.361 534.904 859.004C525.931 857.744 523.095 856.636 515.474 861.709C515.422 862.697 515.291 862.334 515.567 862.864L502.667 862.334L503.296 862.167L503.375 861.616L501.296 860.034L501.156 859.003C502.486 856.667 505.079 855.021 507.238 852.98L507.064 852.501L501.167 852.194Z"/><path fill="#FEFEFE" fill-opacity="0.42745098" d="M492.765 837.723L536.885 837.067L536.395 837.797C537.038 839.219 536.894 844.659 537.323 847.067L547.752 847.173C536.002 847.795 513.606 848.609 502.299 847.621C505.749 847.477 512.737 847.976 515.279 845.867C517.65 843.9 515.317 843.987 519.659 842.969L520.078 841.644C518.677 835.744 498.578 837.75 492.765 837.723Z"/><path fill="#010101" d="M568.748 216.242C571.656 216.425 572.259 216.146 573.804 218.698C573.984 220.903 573.839 221.042 572.97 223.156C570.965 223.424 570.711 223.594 569.265 222.435C568.396 220.537 568.699 218.406 568.748 216.242Z"/><path fill="#FEFEFE" fill-opacity="0.77254903" d="M515.474 861.709C523.095 856.636 525.931 857.744 534.904 859.004C537.446 859.361 541.525 860.59 543.739 861.869L544.158 863.118C539.2 863.306 533.143 863.424 528.264 863.098C532.178 862.524 536.38 863.077 540.59 862.039C535.425 861.382 520.433 860.612 515.474 861.709Z"/><path fill="#FEFEFE" fill-opacity="0.81176472" d="M515.474 861.709C520.433 860.612 535.425 861.382 540.59 862.039C536.38 863.077 532.178 862.524 528.264 863.098C524.968 863.36 519.053 862.984 515.567 862.864C515.291 862.334 515.422 862.697 515.474 861.709Z"/><defs><linearGradient id="gradient_0" gradientUnits="userSpaceOnUse" x1="522.73572" y1="935.65167" x2="573.79431" y2="870.2923"><stop offset="0" stop-color="white" stop-opacity="0.53725493"/><stop offset="1" stop-color="#FFFFFE" stop-opacity="0.83529413"/></linearGradient></defs><path fill="url(#gradient_0)" d="M519.299 867.545C536.112 867.144 553.386 867.331 570.472 866.952L570.866 867.338C574.251 870.596 578.218 872.285 581.185 876.285C581.017 877.738 580.486 878.042 579.165 879.133L579.107 879.43C577.565 879.561 577.166 879.423 575.962 880.363C574.86 884.283 579.925 884.104 582.389 883.97C581.045 887.173 581.237 890.965 584.805 892.577C586.238 894.186 588.811 894.923 591.242 896.467L591.011 896.46C597.26 898.452 605.46 898.429 612.032 899.346C615.906 899.886 621.536 898.282 624.681 901.025C625.044 901.17 625.407 901.315 625.77 901.46C620.192 901.923 591.081 903.608 588.08 904.968C587.262 906.373 587.392 906.932 587.709 908.833L586.963 909.889C583.975 910.207 581.64 908.401 578.433 909.89C574.096 915.233 581.817 921.255 584.714 924.145C584.705 924.751 584.696 925.357 584.687 925.963C580.563 926.057 574.551 925.178 572.318 929.048L571.802 929.829C563.802 928.306 555.166 930.362 547.246 931.185C548.617 929.608 548.8 929.266 550.55 928.221C553.77 928.403 560.974 928.307 563.046 925.516C562.856 924.599 562.7 923.965 561.69 923.432C556.246 920.555 553.97 923.424 549.213 924.996C547.099 925.694 541.502 922.106 540.522 922.212C535.976 922.706 532.1 923.856 527.302 923.952C518.022 924.137 508.02 921.094 498.985 922.778C494.388 923.635 492.754 925.212 490.387 928.795L488.863 928.969C490.459 927.462 490.947 924.285 492.763 922.472C494.625 920.612 497.812 920.442 500.232 919.983L501.09 918.566C499.483 916.911 498.979 916.756 498.663 914.791C499.386 913.113 501.688 912.041 503.394 912.787C503.58 913.797 503.655 914.787 503.693 915.813C503.864 914.733 504.02 913.651 504.163 912.567C507.416 911.087 508.78 909.779 512.363 909.1C518.459 909.139 524.275 908.847 530.36 908.566L529.888 909.098C534.554 910.942 538.247 910.409 542.403 911.43L534.426 911.5C537.378 911.961 538.523 912.1 541.4 913.171L539.96 913.02C542.156 914.297 547.249 914.7 549.819 914.202C552.316 913.715 554.527 912.277 555.985 910.192L554.231 908.508L554.438 907.734C556.817 907.721 557.718 908.181 558.972 906.128C558.903 904.448 559.187 905.179 558.02 903.891C553.537 902.223 543.566 903.53 537.825 903.419C534.05 902.095 525.63 903.235 520.082 900.712C518.068 899.796 508.214 902.802 504.711 899.086C505.368 897.259 511.388 899.537 511.734 896.129C509.211 895.012 505.637 898.814 503.301 895.643C503.168 894.718 503.679 890.306 504.664 890.343C516.498 890.785 524.944 894.054 536.164 887.852C537.746 887.352 540.804 887.951 542.775 888.082L540.931 887.538C541.836 887.539 542.741 887.528 543.645 887.506C546.556 886.118 548.47 882.159 547.221 878.989C541.43 873.896 525.286 879.755 518.084 877.2L519.096 875.112C514.199 875.699 497.807 876.747 494.18 874.324L494.717 873.657C496.326 873.018 498.218 872.115 499.887 872.026C507.477 876.672 515.724 872.449 523.099 872.473C535.45 872.515 543.743 875.136 556.124 872C554.372 872.029 520.713 870.92 520.991 871.037C520.702 869.588 520.532 870.191 521.129 869.103C526.408 868.82 530.778 869.652 535.985 869.805C539.568 869.945 543.793 868.895 547.314 869.776C549.548 870.335 551.487 870.018 553.356 870.343C552.323 870.269 552.016 870.324 551.038 869.93C543.535 866.908 526.641 870.514 519.299 867.545Z"/><defs><linearGradient id="gradient_1" gradientUnits="userSpaceOnUse" x1="634.80054" y1="863.74664" x2="678.94202" y2="934.14447"><stop offset="0" stop-color="white" stop-opacity="0.61960787"/><stop offset="1" stop-color="white" stop-opacity="0.80000001"/></linearGradient></defs><path fill="url(#gradient_1)" d="M677.562 870.272C683.157 871.889 689.028 873.504 694.566 875.238C693.337 881.3 694.331 884.028 697.507 889.083C699.013 891.479 701.945 892.924 702.593 894.235C702.685 896.338 702.625 896.497 703.6 898.292L703.593 899.199C701.81 900.913 699.339 902.76 698.825 905.02C699.63 910.374 709.47 916.26 707.902 922.146C706.606 923.551 704.966 924.214 703.092 924.465L702.419 923.139C699.778 921.931 669.604 922.006 666.517 922.886C665.038 917.051 671.486 918.092 675.024 915.092C679.431 911.356 674.638 905.568 675.377 902.595C676.722 901.6 676.902 901.112 676.779 899.653C673.609 896.857 649.762 899.67 643.688 899.925L643.182 898.843C638.324 896.308 628.757 895.444 623.53 896.598C615.39 898.396 611.559 895.066 604.402 892.144C603.628 891.828 598.367 894.594 596.601 894.579C592.437 894.542 588.953 892.921 584.805 892.577C581.237 890.965 581.045 887.173 582.389 883.97L585.613 883.745C586.024 891.762 597.409 891.544 603.023 889.25C603.033 888.712 602.94 888.254 602.825 887.73C603.793 886.072 603.16 886.773 604.956 885.711L602.769 885.298L602.75 884.713C603.946 883.884 604.552 883.756 605.907 883.217L603.442 882.593C618.76 882.462 644.13 878.971 659.994 877.069C660.579 876.999 661.826 876.003 662.301 875.632L662.623 876.072C663.602 876.518 665.292 877.317 666.221 876.882C669.558 875.319 675.386 873.028 677.562 870.272Z"/><defs><linearGradient id="gradient_2" gradientUnits="userSpaceOnUse" x1="479.48737" y1="930.03607" x2="419.08734" y2="892.43445"><stop offset="0" stop-color="#FFFFFE" stop-opacity="0.19215687"/><stop offset="1" stop-color="#FFFFFE" stop-opacity="0.50980395"/></linearGradient></defs><path fill="url(#gradient_2)" d="M436.416 884.555C443.345 884.537 453.008 885.343 460.073 885.854C458.669 885.812 458.737 885.737 457.538 886.434L456.79 886.245C457.526 887.319 457.362 887.801 457.312 889.071C459.996 894.236 472.402 895.793 475.156 890.518C475.28 888.341 475.322 888.572 473.843 886.465L476.664 886.46C477.136 888.892 480.401 891.718 480.238 892.665C479.54 896.722 476.202 901.066 475.457 905.299C475.092 907.375 476.245 906.783 477.353 908.309L477.103 907.441C478.006 906.486 477.75 906.755 478.102 905.589L478.624 909.116C480.819 913.254 480.29 912.807 484.942 913.383L481.989 914.278C486.606 917.52 492.262 911.066 497.184 911.209C495.386 913.109 495.442 913.319 494.575 915.732L494.233 916.66L494.021 917.26C490.687 919.714 486.114 921.791 488.101 926.612C488.414 927.372 488.562 928.181 488.58 928.994L488.014 929.468L487.329 928.404C485.798 927.292 484.727 926.45 483.077 925.528C482.441 926.048 482.282 926.212 481.714 926.788C479.186 926.068 476.37 927.779 474.789 927.443C471.1 926.637 467.425 924.58 463.723 923.97C463.054 923.86 458.906 924.536 458.21 925.091C457.991 925.238 457.772 925.386 457.553 925.533C456.061 924.538 453.644 922.914 451.891 922.577C444.49 921.158 427.593 926.098 420.814 923.443C422.165 921.236 422.588 919.606 421.707 917.109L419.72 916.75C419.628 908.567 417.484 907.527 409.877 906.791L409.72 905.271C409.721 903.495 409.868 903.351 408.906 901.828C407.368 900.853 406.383 901.045 404.55 901.034C407.137 895.24 412.775 899.649 417.948 898.438C422.241 897.434 422.671 893.874 425.03 892.091C428.158 890.718 431.952 890.281 435.068 888.941C437.32 887.973 436.497 886.658 439.093 885.407L437.366 884.664L437.428 884.707L436.416 884.555Z"/><path fill="#FEFEFE" fill-opacity="0.45490196" d="M704.842 898.167L705.492 898.337C708.667 899.2 716.469 902.829 718.917 902.566C722.777 902.15 728.324 899.105 732.77 898.614C739.4 897.882 746.045 898.053 752.677 897.232C756.007 896.819 760.054 898.594 763.039 896.609C764.714 895.596 766.093 894.19 768.057 894.16C771.802 895.933 770.319 901.213 769.312 904.419C768.457 907.14 760.194 906.001 757.255 907.228L756.743 907.436C755.898 907.789 755.328 908.094 754.569 908.588C750.401 908.799 744.29 909.228 741.853 913.167C742.226 914.31 742.242 914.288 742.926 915.287C740.561 918.095 736.133 914.721 731.248 920.136C727.646 920.744 727.21 920.307 725.731 923.575C722.089 926.533 709.657 922.662 703.093 925.908L703.092 924.465C704.966 924.214 706.606 923.551 707.902 922.146C709.47 916.26 699.63 910.374 698.825 905.02C699.339 902.76 701.81 900.913 703.593 899.199L703.6 898.292L704.842 898.167Z"/><path fill="#FEFEFE" fill-opacity="0.71764708" d="M494.145 866.899L498.257 867.025L497.943 867.752C498.629 868.421 498.736 868.557 499.222 869.44C500.702 870.401 501.302 870.912 503.028 871.389C502.115 871.566 500.741 871.785 499.887 872.026C498.218 872.115 496.326 873.018 494.717 873.657L494.18 874.324C497.807 876.747 514.199 875.699 519.096 875.112L518.084 877.2C512.378 880.626 499.342 874.254 495.457 880.372C494.826 881.366 494.384 884.5 494.307 885.815C495.103 886.734 495.479 887.036 496.412 887.829C496.179 888.601 496.399 888.317 495.832 888.737C505.394 888.337 513.042 888.631 522.604 889.484C526.371 889.821 532.108 887.853 536.164 887.852C524.944 894.054 516.498 890.785 504.664 890.343C503.679 890.306 503.168 894.718 503.301 895.643C505.637 898.814 509.211 895.012 511.734 896.129C511.388 899.537 505.368 897.259 504.711 899.086C508.214 902.802 518.068 899.796 520.082 900.712C525.63 903.235 534.05 902.095 537.825 903.419C531.039 903.666 480.189 904.595 478.102 905.589C477.75 906.755 478.006 906.486 477.103 907.441L477.353 908.309C476.245 906.783 475.092 907.375 475.457 905.299C476.202 901.066 479.54 896.722 480.238 892.665C480.401 891.718 477.136 888.892 476.664 886.46C477.645 885.027 477.813 884.198 477.233 882.598C475.482 881.299 450.944 880.621 446.404 880.368C457.989 878.129 465.469 881.225 473.972 875.04C474.479 875.045 474.987 875.046 475.494 875.042C481.104 874.989 481.017 873.931 485.009 869.881C488.4 866.441 489.507 866.932 494.145 866.899Z"/><defs><linearGradient id="gradient_3" gradientUnits="userSpaceOnUse" x1="355.62546" y1="869.78992" x2="323.42322" y2="917.46136"><stop offset="0" stop-color="white" stop-opacity="0.21960784"/><stop offset="1" stop-color="#FFFFFE" stop-opacity="0.27058825"/></linearGradient></defs><path fill="url(#gradient_3)" d="M323.014 902.071C321.001 900.004 316.899 896.768 315.724 894.304C316.981 892.852 320.158 891.998 322.009 890.623C324.436 888.82 327.765 884.496 330.459 883.393C332.021 882.754 335.433 886.82 338.14 885.513C351.896 882.948 358.467 879.294 373.09 878.673C369.284 881.919 363.086 887.641 359.06 889.992C350.624 889.399 352.019 889.469 347.796 897.176L348.137 897.943C349.989 897.948 352.276 897.738 353.893 898.345C351.084 898.298 348.476 897.885 346.021 898.938L345.092 900.067L344.97 901.045C338.745 905.699 336.44 913.176 328.965 916.683C325.625 918.25 323.824 918.52 321.268 915.575C322.896 913.193 322.802 905.598 323.014 902.071Z"/><path fill="#010101" d="M810.421 766.314C817.257 766.055 843.135 776.884 850.753 779.986C885.924 794.284 920.222 809.964 949.165 834.973C964.858 848.532 968.191 859.21 946.581 868.963C944.976 869.225 944.867 869.189 943.912 868.281C944.227 863.543 965.413 857.449 955.925 847.247C925.111 814.113 880.804 796.834 839.791 780.081C829.943 776.058 820.85 773.931 811.647 769.838C810.548 768.732 810.629 767.884 810.421 766.314Z"/><path fill="#010101" d="M208.315 766.977C209.524 766.85 208.933 766.856 210.214 767.4L210.609 768.585C209.881 771.48 206.733 772.04 204.429 772.752C196.16 775.307 187.73 778.815 179.681 782.029C146.888 795.165 114.22 810.507 86.0127 832.051C80.5811 836.2 66.2205 846.73 67.0693 854.122C67.8665 861.064 78.3308 863.471 83.3542 867.09C84.1929 868.683 84.0217 868.002 83.3345 870.25C80.79 869.635 78.3056 868.793 75.911 867.736C52.2935 857.193 64.8918 843.695 79.0338 832.539C106.802 810.634 138.505 794.748 171.101 781.363C183.521 776.263 195.525 771.187 208.315 766.977Z"/><path fill="#FEFEFE" fill-opacity="0.36078432" d="M671.022 902.891C672.065 902.733 674.236 902.663 675.377 902.595C674.638 905.568 679.431 911.356 675.024 915.092C671.486 918.092 665.038 917.051 666.517 922.886L665.887 924.989C664.002 922.374 654.2 927.365 650.955 926.754C647.466 926.097 643.772 925.668 640.279 924.829C638.416 924.382 636.699 923.777 634.791 923.887L630.757 923.866L634.028 923.313L633.789 921.518L633.416 921.232C631.574 919.772 630.02 916.892 631.248 914.697C638.264 913.967 643.984 913.311 648.992 907.752C653.235 908.35 679.013 914.981 671.022 902.891Z"/><path fill="#FEFEFE" fill-opacity="0.81568629" d="M518.084 877.2C525.286 879.755 541.43 873.896 547.221 878.989C548.47 882.159 546.556 886.118 543.645 887.506C542.741 887.528 541.836 887.539 540.931 887.538L542.775 888.082C540.804 887.951 537.746 887.352 536.164 887.852C532.108 887.853 526.371 889.821 522.604 889.484C513.042 888.631 505.394 888.337 495.832 888.737C496.399 888.317 496.179 888.601 496.412 887.829C495.479 887.036 495.103 886.734 494.307 885.815C494.384 884.5 494.826 881.366 495.457 880.372C499.342 874.254 512.378 880.626 518.084 877.2Z"/><path fill="#010101" d="M528.847 881.726C532.483 881.54 541.414 880.281 543.514 883.153C543.3 884.936 543.647 884.197 542.56 885.498C537.879 886.956 519.275 886.547 513.375 886.569C509.892 886.617 501.824 887.075 498.998 885.766C498.479 884.442 498.631 884.424 498.937 882.989C500.94 881.222 523.588 881.987 528.847 881.726Z"/><path fill="#010101" d="M155.015 810.888C156.507 811.027 156.441 810.94 157.594 811.869C157.677 813.243 157.428 813.796 156.102 814.58C141.866 822.995 118.935 833.755 109.845 847.703C98.2791 865.453 137.585 882.352 149.231 885.979C153.49 887.306 161.637 889.129 165.483 891.069C166.222 892.773 166.006 892.201 165.686 894.309C164.585 894.408 163.212 894.419 161.905 894.054C143.708 889.593 99.837 873.949 104.722 849.764C107.48 836.111 143.043 817.565 155.015 810.888Z"/><path fill="#010101" d="M184.504 822.091C185.933 822.074 186.005 822.661 186.568 823.729C186.4 824.365 186.4 825.148 185.768 825.334C164.98 831.431 137.474 845.629 170.288 863.135C182.34 869.564 199.987 872.393 213.23 876.762C215.991 877.672 222.457 878.95 224.82 880.486C225.328 882.043 225.158 881.562 224.371 883.516C220.923 883.029 213.355 880.876 209.626 879.903C196.265 876.285 181.588 872.947 169.187 866.758C159.392 861.869 145.74 852.092 153.321 839.875C159.618 829.729 173.783 824.912 184.504 822.091Z"/><path fill="#FEFEFE" fill-opacity="0.19607843" d="M709.173 897.649L709.53 898.22C713.01 898.822 716.857 899.68 720.22 898.033C726.883 894.77 734.14 896.394 741.185 895.115C746.809 893.897 770.402 885.199 774.601 890.546C774.592 894.742 775.061 894.434 777.141 897.798L777.004 898.506C775.572 898.561 775.247 898.416 773.865 898.111L773 898.649C772.734 900.078 772.904 901.72 773.649 902.977L774.491 903.294L774.709 902.091C775.18 902.618 775.32 902.838 775.953 903.172L776.251 901.612C777.089 903.002 776.834 902.399 776.869 904.19C774.77 909.319 765.105 909.7 760.506 911.385C756.498 912.853 752.769 915.991 748.65 917.34L751.735 917.618L748.399 918.201C746.775 918.23 746.736 918.386 745.233 917.868L745.043 916.579C746.596 913.396 751.68 911.181 754.569 908.588C755.328 908.094 755.898 907.789 756.743 907.436L757.255 907.228C760.194 906.001 768.457 907.14 769.312 904.419C770.319 901.213 771.802 895.933 768.057 894.16C766.093 894.19 764.714 895.596 763.039 896.609C760.054 898.594 756.007 896.819 752.677 897.232C746.045 898.053 739.4 897.882 732.77 898.614C728.324 899.105 722.777 902.15 718.917 902.566C716.469 902.829 708.667 899.2 705.492 898.337L704.842 898.167C706.038 898.09 707.93 897.802 709.173 897.649Z"/><path fill="#010101" d="M405.687 881.377C399.77 880.321 377.007 880.42 374.625 876.366L375.081 875.515C377.41 873.646 384.903 874.873 388.311 875.149C391.704 875.494 399.32 876.43 402.498 876.445L404.12 876.473C412.081 877.833 428.687 879.189 436.893 879.542C439.404 879.898 441.33 880.062 443.838 880.233L446.404 880.368C450.944 880.621 475.482 881.299 477.233 882.598C477.813 884.198 477.645 885.027 476.664 886.46L473.843 886.465L460.073 885.854C453.008 885.343 443.345 884.537 436.416 884.555L435.377 884.513C426.097 883.363 414.955 882.006 405.687 881.377Z"/><path fill="#010101" d="M416.702 108.248C417.76 108.666 417.414 108.525 418.306 109.345C418.334 110.587 418.36 111.156 417.535 112.246C397.922 138.153 381.06 166.086 368.188 195.894C365.479 202.218 362.939 208.612 360.57 215.07C358.98 219.366 357.16 224.973 355.125 228.859C353.918 228.327 354.33 228.555 353.339 227.616C352.82 225.348 356.636 215.847 357.637 213.161C369.68 181.371 385.634 151.203 405.129 123.354C408 119.273 413.28 111.614 416.702 108.248Z"/><path fill="#010101" d="M607.582 111.237C612.974 113.109 634.173 146.765 638.488 153.32C645.377 163.785 672.29 219.089 669.459 229.15C668.606 228.866 667.206 228.683 666.964 227.735C656.179 185.601 633.017 148.707 607.338 114.155C606.585 113.142 607.185 112.202 607.582 111.237Z"/><path fill="#FEFEFE" fill-opacity="0.74117649" d="M490.387 928.795C492.754 925.212 494.388 923.635 498.985 922.778C508.02 921.094 518.022 924.137 527.302 923.952C532.1 923.856 535.976 922.706 540.522 922.212C541.502 922.106 547.099 925.694 549.213 924.996C553.97 923.424 556.246 920.555 561.69 923.432C562.7 923.965 562.856 924.599 563.046 925.516C560.974 928.307 553.77 928.403 550.55 928.221C548.8 929.266 548.617 929.608 547.246 931.185C546.787 931.225 545.471 931.366 545.063 931.349C542.03 929.618 527.665 929.918 523.531 929.825C512.481 929.553 501.432 929.21 490.387 928.795Z"/><path fill="#010101" d="M684.359 104.601C686.827 104.956 687.504 106.797 688.71 108.867C707.14 140.52 722.207 174.392 734.678 208.809C736.17 212.925 740.537 223.415 739.582 227.298L738.075 226.738C736.475 224.185 733.659 215.009 732.45 211.673C729.49 203.669 726.446 195.697 723.317 187.757C714.737 166.925 705.219 146.493 694.792 126.521C691.991 121.134 683.778 109.531 684.359 104.601Z"/><path fill="#010101" d="M643.688 899.925C649.762 899.67 673.609 896.857 676.779 899.653C676.902 901.112 676.722 901.6 675.377 902.595C674.236 902.663 672.065 902.733 671.022 902.891C669.31 903.008 666.47 903.114 664.878 903.439C658.5 903.662 652.371 904.37 646.052 904.689C644.173 904.845 640.461 905.048 638.766 905.447C630.062 905.62 619.878 906.718 611.076 907.331C606.251 907.668 595.509 908.223 591.218 909.033C590.185 908.914 588.779 908.887 587.709 908.833C587.392 906.932 587.262 906.373 588.08 904.968C591.081 903.608 620.192 901.923 625.77 901.46C630.634 901.39 638.675 900.419 643.688 899.925Z"/><path fill="#FEFEFE" fill-opacity="0.05882353" d="M344.97 901.045C340.394 909.835 337.15 920.564 325.237 920.283C313.06 919.996 318.878 910.153 320.411 903.628C320.919 901.466 314.828 896.029 313.184 894.368C316.46 891.919 321.536 888.934 322.832 884.935C325.386 877.051 336.127 882.749 341.558 881.932C350.619 880.568 361.696 876.407 370.826 877.499C371.891 877.626 372.177 878.924 372.389 879.702C371.985 881.388 371.22 883.431 369.697 884.313C367.633 885.508 366.362 889.672 364.612 890.983C361.595 893.312 356.818 891.994 353.723 893.556C351.992 894.43 350.095 896.713 348.137 897.943L347.796 897.176C352.019 889.469 350.624 889.399 359.06 889.992C363.086 887.641 369.284 881.919 373.09 878.673C358.467 879.294 351.896 882.948 338.14 885.513C335.433 886.82 332.021 882.754 330.459 883.393C327.765 884.496 324.436 888.82 322.009 890.623C320.158 891.998 316.981 892.852 315.724 894.304C316.899 896.768 321.001 900.004 323.014 902.071C322.802 905.598 322.896 913.193 321.268 915.575C323.824 918.52 325.625 918.25 328.965 916.683C336.44 913.176 338.745 905.699 344.97 901.045Z"/><path fill="#010101" d="M337.32 106.849L338.646 107.94C338.726 109.761 322.88 138.381 321.056 142.4C314.698 156.407 308.119 170.188 302.504 184.613C299.993 191.081 297.611 197.599 295.359 204.162C293.748 208.888 289.48 224.136 287.553 226.763L285.971 226.185C285.291 224.35 289.178 213.234 290.014 210.655C299.23 182.21 310.827 154.593 324.682 128.095C327.997 121.782 332.964 112.352 337.32 106.849Z"/><path fill="#010101" d="M786.266 369.496C777.636 350.209 767.528 331.334 757.492 312.754C755.029 308.192 740.801 287.736 741.91 285.092C742.199 285.163 742.497 285.202 742.776 285.305C750.321 288.086 784.371 355.336 787.828 365.696C790.351 370.835 796.952 384.908 796.659 390.225L796.046 390.695C793.088 388.609 788.185 373.9 786.266 369.496Z"/><path fill="#010101" d="M635.861 875.198C640.926 874.579 656.732 872.16 660.656 873.641C661.536 874.512 661.676 874.583 662.301 875.632C661.826 876.003 660.579 876.999 659.994 877.069C644.13 878.971 618.76 882.462 603.442 882.593C597.487 883.104 591.378 883.211 585.613 883.745L582.389 883.97C579.925 884.104 574.86 884.283 575.962 880.363C577.166 879.423 577.565 879.561 579.107 879.43C582.289 879.501 584.263 879.477 587.443 879.228C598.568 878.032 610.564 877.862 622.217 876.558C626.771 876.171 631.32 875.718 635.861 875.198Z"/><path fill="#010101" d="M193.179 476.797C193.867 477.323 193.685 477.238 194.174 478.024C193.844 481.395 181.761 497.876 179.378 502.106C166.803 524.428 154.571 546.669 144.787 570.404C143.463 573.616 141.27 579.006 139.222 581.744C138.354 580.761 138.29 580.607 137.642 579.451C140.006 565.619 182.786 485.202 193.179 476.797Z"/><path fill="#010101" d="M281.559 284.751C282.684 285.083 282.595 285.093 283.333 286.025C283.405 286.787 283.388 287.688 282.933 288.309C279.05 293.601 275.576 299.203 272.183 304.799C261.44 322.554 251.614 340.848 242.745 359.609C238.22 369.402 234.116 380.755 229.679 389.992C229.174 389.864 227.631 389.291 227.738 388.659C228.338 385.14 230.305 380.313 231.757 377C245.406 345.855 261.244 312.2 281.559 284.751Z"/><path fill="#010101" d="M537.825 903.419C543.566 903.53 553.537 902.223 558.02 903.891C559.187 905.179 558.903 904.448 558.972 906.128C557.718 908.181 556.817 907.721 554.438 907.734C546.565 908.026 538.193 908.495 530.36 908.566C524.275 908.847 518.459 909.139 512.363 909.1C509.876 909.098 504.783 908.956 502.537 909.373L478.624 909.116L478.102 905.589C480.189 904.595 531.039 903.666 537.825 903.419Z"/><path fill="#010101" d="M827.019 474.683C830.455 475.209 833.921 481.463 835.874 484.308C856.274 514.019 873.157 546.921 886.968 580.155C887.25 580.835 886.849 582.071 886.638 582.712C886.24 582.578 885.194 582.191 885.032 581.882C882.11 576.305 878.492 567.648 875.826 561.955C867.841 544.568 859.007 527.584 849.353 511.065C846.776 506.496 844.069 502.001 841.233 497.587C837.327 491.56 830.843 482.863 827.013 476.481C827.015 475.881 827.017 475.282 827.019 474.683Z"/><path fill="#010101" d="M919.556 852.054C919.577 851.216 919.605 850.327 919.44 849.501C917.373 839.123 874.802 818.2 864.266 812.987C859.495 810.626 853.39 808.559 849.111 805.471C848.169 804.791 848.023 804.77 847.825 803.585L848.847 802.443C851.391 801.874 860.789 806.691 863.455 808.1C878.607 816.115 913.123 831.388 921.924 845.934C921.858 848.151 922.095 850.113 920.931 851.884L919.556 852.054Z"/><path fill="#010101" d="M719.123 391.779C720.266 391.837 720.312 391.869 721.416 392.203C724.12 395.048 728.893 404.914 730.916 408.867C742.139 430.804 752.696 452.669 760.121 476.239C761.722 481.322 764.295 488.28 764.386 493.463C763.622 493.351 762.532 493.404 762.248 492.579C759.577 484.819 757.103 476.772 754.258 469.065C748.526 453.604 742.025 438.44 734.779 423.628C732.264 418.533 719.108 395.361 719.123 391.779Z"/><path fill="#010101" d="M305.729 391.189C306.522 391.558 306.423 391.579 307.106 392.17C307.364 394.459 302.807 400.817 301.385 403.259C284.183 432.777 272.537 461.327 261.27 493.609C260.585 493.139 259.123 492.235 259.174 491.578C259.446 488.038 261.732 482.388 262.878 479.088C271.36 454.658 281.938 431.453 294.724 408.987C297.28 404.496 302.569 394.868 305.729 391.189Z"/><path fill="#010101" d="M200.157 559.781C201.058 560.036 201.023 560.111 201.85 560.603C201.964 561.006 202.078 561.408 202.192 561.811C189.496 581.399 162.996 633.339 156.081 651.56L154.511 651.494L153.901 650.569C154.252 639.921 192.786 568.309 200.157 559.781Z"/><defs><linearGradient id="gradient_4" gradientUnits="userSpaceOnUse" x1="395.3598" y1="884.02002" x2="395.78979" y2="897.77234"><stop offset="0" stop-color="white" stop-opacity="0.23529412"/><stop offset="1" stop-color="white" stop-opacity="0.35294119"/></linearGradient></defs><path fill="url(#gradient_4)" d="M403.004 900.659L402.034 899.067C397.534 896.52 387.706 899.969 385.222 895.886C388.649 891.443 391.558 881.953 397.247 882.606C398.563 883.519 401.372 887.721 402.393 889.286L401.647 890.984C409.93 897.64 415.562 893.657 423.325 889.925C427.086 888.117 431.235 889.098 434.542 885.549C435.259 885.265 434.895 885.518 435.377 884.513L436.416 884.555L437.428 884.707L437.366 884.664L439.093 885.407C436.497 886.658 437.32 887.973 435.068 888.941C431.952 890.281 428.158 890.718 425.03 892.091C422.671 893.874 422.241 897.434 417.948 898.438C412.775 899.649 407.137 895.24 404.55 901.034L403.004 900.659Z"/><path fill="#010101" fill-opacity="0.94509804" d="M820.766 558.667C827.253 560.353 871.532 643.214 870.947 652.39C869.546 651.995 869.585 651.973 868.349 651.175C862.882 640.665 858.148 628.242 852.587 617.17C845.772 603.536 838.547 590.112 830.921 576.915C827.881 571.731 824.262 567.099 821.132 562.001C820.355 560.736 820.648 560.138 820.766 558.667Z"/><path fill="#010101" d="M197.263 900.778C201.264 901.489 208.225 904.301 212.49 905.601C220.033 907.9 227.587 909.611 235.055 911.576C241.143 913.178 255.771 914.624 260.54 917.04C261.472 918.413 261.159 918.049 260.982 920.16C252.452 921.804 206.699 909.86 197.402 904.684C196.672 902.86 196.992 903.024 197.263 900.778Z"/><path fill="#010101" d="M261.297 569.71C262.229 569.837 262.274 569.969 263.165 570.374C264.161 573.034 257.637 580.472 255.822 583.313C242.391 604.327 232.334 625.906 222.742 648.881C221.656 648.571 221.807 648.58 220.795 648.026L220.475 646.824C224.101 629.988 250.392 584.104 261.297 569.71Z"/><path fill="#010101" d="M761.375 567.197C767.091 568.043 806.815 642.101 805.888 650.436C805.101 650.114 804.132 649.671 803.724 648.909C799.126 640.334 794.832 630.463 790.578 621.729C783.73 607.72 776.155 594.079 767.885 580.86C765.383 576.832 760.774 571.281 761.375 567.197Z"/><defs><linearGradient id="gradient_5" gradientUnits="userSpaceOnUse" x1="460.12564" y1="864.84247" x2="452.69086" y2="878.3559"><stop offset="0" stop-color="white" stop-opacity="0.36470589"/><stop offset="1" stop-color="white" stop-opacity="0.45882353"/></linearGradient></defs><path fill="url(#gradient_5)" d="M443.838 880.233C445.863 879.34 449.302 878.305 449.895 876.117C448.074 876.069 448.272 876.448 447.413 875.635L447.756 873.643L445.133 871.051L445.261 870.354C456.77 866.564 452.23 867.549 463.657 867.61C469.587 868.117 469.122 871.567 476.416 868.678C477.133 868.392 477.846 868.097 478.554 867.791L479.67 868.191C477.841 869.417 474.429 871.341 473.408 873.032C473.45 874.324 473.326 873.881 473.972 875.04C465.469 881.225 457.989 878.129 446.404 880.368L443.838 880.233Z"/><path fill="#010101" d="M409.006 251.768C410.117 252.304 409.788 252.103 410.71 252.903C410.874 255.333 404.422 263.533 402.52 266.587C394.988 278.452 388.042 290.679 381.705 303.223C379.649 307.335 370.422 327.434 368.55 329.949C367.956 329.72 366.585 329.169 366.789 328.299C367.698 324.425 369.914 320.567 371.557 316.935C379.26 299.908 388.13 283.674 398.05 267.843C401.092 262.987 405.009 255.622 409.006 251.768Z"/><path fill="#010101" d="M345.092 900.067L346.021 898.938C348.476 897.885 351.084 898.298 353.893 898.345C364.512 898.701 375.677 899.54 386.169 899.58C388.304 900.326 400.244 900.585 403.004 900.659L404.55 901.034C406.383 901.045 407.368 900.853 408.906 901.828C409.868 903.351 409.721 903.495 409.72 905.271C407.407 905.618 404.726 905.281 402.363 905.15C384.317 904.15 366.271 903.105 348.223 902.148C346.201 902.041 346.169 901.479 345.092 900.067Z"/><path fill="#010101" d="M630.757 923.866L634.791 923.887C635.275 925.334 635.514 925.557 635.141 927.028C634.183 927.939 634.301 928.081 632.594 928.166C626.095 928.492 619.413 928.664 612.913 928.945C600.131 929.494 587.353 930.166 574.583 930.96C573.191 930.285 573.293 930.28 572.318 929.048C574.551 925.178 580.563 926.057 584.687 925.963L587.382 925.567C599.543 925.684 616.856 924.439 629.559 923.998L630.757 923.866Z"/><defs><linearGradient id="gradient_6" gradientUnits="userSpaceOnUse" x1="632.16364" y1="294.10965" x2="638.10303" y2="290.41324"><stop offset="0" stop-color="#010000" stop-opacity="0.94117647"/><stop offset="1" stop-color="black"/></linearGradient></defs><path fill="url(#gradient_6)" d="M613.551 253.66C614.662 253.798 615.564 253.793 616.31 254.711C625.994 266.624 656.315 318.868 656.462 331.496C655.253 331.517 655.651 331.588 654.497 330.992C652.785 328.184 651.261 322.966 649.833 319.556C647.202 313.386 644.327 307.322 641.215 301.38C636.741 292.862 631.898 284.543 626.7 276.447C623.853 272.012 613.901 257.745 613.551 253.66Z"/><path fill="#FEFEFE" fill-opacity="0.1882353" d="M394.392 881.577C396.779 881.987 399.168 882.376 401.561 882.744C404.31 884.437 404.302 885.959 405.592 887.022C411.826 892.156 427.683 887.89 434.542 885.549C431.235 889.098 427.086 888.117 423.325 889.925C415.562 893.657 409.93 897.64 401.647 890.984L402.393 889.286C401.372 887.721 398.563 883.519 397.247 882.606C391.558 881.953 388.649 891.443 385.222 895.886C387.706 899.969 397.534 896.52 402.034 899.067L403.004 900.659C400.244 900.585 388.304 900.326 386.169 899.58C383.44 899.03 379.937 896.697 380.971 893.44C382.862 887.48 389.302 884.399 394.392 881.577Z"/><path fill="#010101" d="M490.387 928.795C501.432 929.21 512.481 929.553 523.531 929.825C527.665 929.918 542.03 929.618 545.063 931.349C544.363 932.813 544.337 933.214 543.051 934.195C538.602 935.058 492.708 933.613 488.374 932.516C487.486 931.358 487.838 931.415 488.014 929.468L488.58 928.994L488.863 928.969L490.387 928.795Z"/><defs><linearGradient id="gradient_7" gradientUnits="userSpaceOnUse" x1="895.29956" y1="860.34619" x2="898.14014" y2="868.27771"><stop offset="0" stop-color="black" stop-opacity="0.92941177"/><stop offset="1" stop-color="black" stop-opacity="0.98039216"/></linearGradient></defs><path fill="url(#gradient_7)" d="M921.924 845.934C926.048 856.129 916.624 863.15 908.228 865.864C899.295 868.752 880.575 876.191 871.936 876.157L871.107 875.719C870.72 874.107 870.616 874.847 871.377 873.417C874.679 871.595 878.163 871.032 881.84 869.837C893.096 866.178 907.529 864.193 916.693 856.462C918.367 855.05 918.771 853.007 919.556 852.054L920.931 851.884C922.095 850.113 921.858 848.151 921.924 845.934Z"/><path fill="#010101" d="M702.593 894.235C707.337 892.89 747.311 884.667 750.639 884.801L752.052 885.741C752.229 886.644 752.433 886.549 751.926 887.175C748.541 891.354 716.716 895.854 709.173 897.649C707.93 897.802 706.038 898.09 704.842 898.167L703.6 898.292C702.625 896.497 702.685 896.338 702.593 894.235Z"/><path fill="#010101" d="M315.04 923.298C319.68 923.428 332.182 925.404 337.728 926.046C343.911 926.762 362.022 927.387 366.735 928.615C367.69 930.287 367.383 929.834 367.362 932.039C358.563 932.567 322.757 929.801 315.419 926.944C314.665 925.458 314.98 925.23 315.04 923.298Z"/><path fill="#FEFEFE" fill-opacity="0.094117649" d="M409.877 906.791C417.484 907.527 419.628 908.567 419.72 916.75C418.363 919.164 417 920.968 417.458 923.675C421.041 929.913 436.55 924.822 442.609 925.429C449.324 926.102 455.832 927.122 462.612 927.131C466.461 927.06 471.123 928.698 475.124 928.196C478.117 928.136 479.034 927.207 481.714 926.788C482.282 926.212 482.441 926.048 483.077 925.528C484.727 926.45 485.798 927.292 487.329 928.404C482.659 928.389 477.458 929.369 472.604 929.214C465.275 928.979 461.771 927.154 454.342 928.31C443.491 928.853 427.656 927.974 416.323 927.889C418.33 927.442 420.422 927.403 422.484 927.276C418.881 927.076 415.034 925.553 412.747 922.572C411.098 919.923 413.617 916.05 414.155 913.467C415.016 909.33 411.301 910.04 409.877 906.791Z"/><path fill="#FEFEFE" fill-opacity="0.74509805" d="M584.805 892.577C588.953 892.921 592.437 894.542 596.601 894.579C598.367 894.594 603.628 891.828 604.402 892.144C611.559 895.066 615.39 898.396 623.53 896.598C628.757 895.444 638.324 896.308 643.182 898.843L643.688 899.925C638.675 900.419 630.634 901.39 625.77 901.46C625.407 901.315 625.044 901.17 624.681 901.025C621.536 898.282 615.906 899.886 612.032 899.346C605.46 898.429 597.26 898.452 591.011 896.46L591.242 896.467C588.811 894.923 586.238 894.186 584.805 892.577Z"/><path fill="#FEFEFE" fill-opacity="0.21960784" d="M587.709 908.833C588.779 908.887 590.185 908.914 591.218 909.033L591.672 909.718C593.608 912.58 595.885 913.082 596.538 915.703C595.445 920.801 589.103 920.189 587.382 925.567L584.687 925.963C584.696 925.357 584.705 924.751 584.714 924.145C581.817 921.255 574.096 915.233 578.433 909.89C581.64 908.401 583.975 910.207 586.963 909.889L587.709 908.833Z"/><path fill="#010101" d="M751.735 917.618C756.306 916.764 766.039 914.339 769.953 915.441L770.694 916.272C770.046 918.961 767.859 919.646 765.347 919.983C757.757 921 731.035 927.45 725.731 923.575C727.21 920.307 727.646 920.744 731.248 920.136C736.892 919.778 742.768 918.921 748.399 918.201L751.735 917.618Z"/><path fill="#FEFEFE" fill-opacity="0.51372552" d="M498.257 867.025L503.526 867.102C503.867 869.153 503.488 868.953 504.694 870.059C507.598 870.589 509.574 869.264 511.553 867.235L519.299 867.545C526.641 870.514 543.535 866.908 551.038 869.93C552.016 870.324 552.323 870.269 553.356 870.343C551.487 870.018 549.548 870.335 547.314 869.776C543.793 868.895 539.568 869.945 535.985 869.805C530.778 869.652 526.408 868.82 521.129 869.103C520.532 870.191 520.702 869.588 520.991 871.037C520.713 870.92 554.372 872.029 556.124 872C543.743 875.136 535.45 872.515 523.099 872.473C515.724 872.449 507.477 876.672 499.887 872.026C500.741 871.785 502.115 871.566 503.028 871.389C501.302 870.912 500.702 870.401 499.222 869.44C498.736 868.557 498.629 868.421 497.943 867.752L498.257 867.025Z"/><path fill="#010101" d="M269.152 886.889C275.285 887.799 283.988 890.28 290.511 891.42C295.323 892.262 308.7 894.046 312.512 895.457C312.927 896.948 312.471 897.229 311.864 899.021C305.991 898.562 271.331 892.857 268.988 890.301C268.515 888.797 268.776 888.438 269.152 886.889Z"/><path fill="#FEFEFE" fill-opacity="0.24313726" d="M419.72 916.75L421.707 917.109C422.588 919.606 422.165 921.236 420.814 923.443C427.593 926.098 444.49 921.158 451.891 922.577C453.644 922.914 456.061 924.538 457.553 925.533C457.772 925.386 457.991 925.238 458.21 925.091C458.906 924.536 463.054 923.86 463.723 923.97C467.425 924.58 471.1 926.637 474.789 927.443C476.37 927.779 479.186 926.068 481.714 926.788C479.034 927.207 478.117 928.136 475.124 928.196C471.123 928.698 466.461 927.06 462.612 927.131C455.832 927.122 449.324 926.102 442.609 925.429C436.55 924.822 421.041 929.913 417.458 923.675C417 920.968 418.363 919.164 419.72 916.75Z"/><path fill="#010101" d="M841.483 896.11L842.786 896.611C843.497 897.912 843.426 897.248 843.018 898.665C839.318 901.742 810.808 908.235 804.609 909.461C803.233 909.357 803.758 909.661 802.874 908.797C802.348 906.909 802.289 907.781 802.779 906.09C804.96 904.292 836.361 897.359 841.483 896.11Z"/><path fill="#010101" d="M416.323 927.889C427.656 927.974 443.491 928.853 454.342 928.31C454.942 929.142 454.963 929.307 455.406 930.245C455.058 932.024 455.485 931.28 453.927 932.459C446.524 933.327 423.594 932.268 415.167 931.524C414.601 931.474 414.513 930.866 414.215 930.21C415.059 928.342 414.45 929.147 416.323 927.889Z"/><defs><linearGradient id="gradient_8" gradientUnits="userSpaceOnUse" x1="414.8367" y1="889.80853" x2="421.12878" y2="877.75757"><stop offset="0" stop-color="white" stop-opacity="0"/><stop offset="1" stop-color="white" stop-opacity="0.039215688"/></linearGradient></defs><path fill="url(#gradient_8)" d="M405.687 881.377C414.955 882.006 426.097 883.363 435.377 884.513C434.895 885.518 435.259 885.265 434.542 885.549C427.683 887.89 411.826 892.156 405.592 887.022C404.302 885.959 404.31 884.437 401.561 882.744C403.073 881.282 403.071 881.736 405.687 881.377Z"/><path fill="#010101" d="M666.517 922.886C669.604 922.006 699.778 921.931 702.419 923.139L703.092 924.465L703.093 925.908C700.696 926.712 671.239 927.476 666.773 926.535C666.225 926.42 666.137 925.671 665.887 924.989L666.517 922.886Z"/><path fill="#FEFEFE" fill-opacity="0.21176471" d="M622.217 876.558C622.907 876.298 623.595 876.033 624.28 875.761C623.402 869.869 617.218 867.488 630.747 864.029C633.465 863.334 637.032 863.185 638.26 866.174C637.997 868.449 635.411 871.876 634.181 874.749L635.861 875.198C631.32 875.718 626.771 876.171 622.217 876.558Z"/><path fill="#FEFEFE" fill-opacity="0.17254902" d="M664.878 903.439C666.47 903.114 669.31 903.008 671.022 902.891C679.013 914.981 653.235 908.35 648.992 907.752C646.177 907.214 641.642 906.557 639.683 908.828C637.427 911.443 630.811 912.781 629.555 914.348C628.944 919.986 630.049 920.539 634.028 923.313L630.757 923.866L629.559 923.998L630.215 923.334C618.824 911.758 630.374 914.14 638.961 906.143L642.302 905.752L638.766 905.447C640.461 905.048 644.173 904.845 646.052 904.689L645.817 905.162C651.203 905.976 667.738 910.307 670.622 905.537C669.111 902.636 668.047 903.486 664.878 903.439Z"/><defs><linearGradient id="gradient_9" gradientUnits="userSpaceOnUse" x1="400.49429" y1="864.04071" x2="397.1983" y2="872.65015"><stop offset="0" stop-color="white" stop-opacity="0.32156864"/><stop offset="1" stop-color="white" stop-opacity="0.39607844"/></linearGradient></defs><path fill="url(#gradient_9)" d="M396.4 864.311C400.616 863.598 400.976 863.669 405.082 864.448C408.31 867.994 403.397 872.516 401.847 875.797L402.498 876.445C399.32 876.43 391.704 875.494 388.311 875.149L389.175 874.926C390.422 874.914 389.81 875.021 391.006 874.593C391.82 870.869 392.233 865.774 396.4 864.311Z"/><path fill="#FEFEFE" fill-opacity="0.34509805" d="M570.472 866.952C573.369 866.502 576.159 866.459 579.078 866.642C582.178 867.03 590.425 869.138 588.787 873.8C588.211 875.441 586.987 877.841 585.386 878.7C586.413 879.29 586.142 879.087 587.443 879.228C584.263 879.477 582.289 879.501 579.107 879.43L579.165 879.133C580.486 878.042 581.017 877.738 581.185 876.285C578.218 872.285 574.251 870.596 570.866 867.338L570.472 866.952Z"/><path fill="#FEFEFE" fill-opacity="0.32549021" d="M449.378 864.608C450.991 864.594 451.865 864.398 453.314 864.923C456.815 866.138 460.073 866.406 463.657 867.61C452.23 867.549 456.77 866.564 445.261 870.354L445.133 871.051L447.756 873.643L447.413 875.635C448.272 876.448 448.074 876.069 449.895 876.117C449.302 878.305 445.863 879.34 443.838 880.233C441.33 880.062 439.404 879.898 436.893 879.542C438.833 879.385 441.16 879.357 443.137 879.278C440.804 876.733 437.381 874.105 438.776 870.491C442.003 867.823 447.962 869.118 449.378 864.608Z"/><path fill="#FEFEFE" fill-opacity="0.41176471" d="M585.613 883.745C591.378 883.211 597.487 883.104 603.442 882.593L605.907 883.217C604.552 883.756 603.946 883.884 602.75 884.713L602.769 885.298L604.956 885.711C603.16 886.773 603.793 886.072 602.825 887.73C602.94 888.254 603.033 888.712 603.023 889.25C597.409 891.544 586.024 891.762 585.613 883.745Z"/><path fill="#FEFEFE" fill-opacity="0.3882353" d="M502.537 909.373C504.783 908.956 509.876 909.098 512.363 909.1C508.78 909.779 507.416 911.087 504.163 912.567C504.02 913.651 503.864 914.733 503.693 915.813C503.655 914.787 503.58 913.797 503.394 912.787C501.688 912.041 499.386 913.113 498.663 914.791C498.979 916.756 499.483 916.911 501.09 918.566L500.232 919.983C497.812 920.442 494.625 920.612 492.763 922.472C490.947 924.285 490.459 927.462 488.863 928.969L488.58 928.994C488.562 928.181 488.414 927.372 488.101 926.612C486.114 921.791 490.687 919.714 494.021 917.26L494.233 916.66L494.575 915.732C495.442 913.319 495.386 913.109 497.184 911.209C498.153 911.285 501.354 909.842 502.537 909.373Z"/><path fill="#FEFEFE" fill-opacity="0.34509805" d="M530.36 908.566C538.193 908.495 546.565 908.026 554.438 907.734L554.231 908.508L555.985 910.192C554.527 912.277 552.316 913.715 549.819 914.202C547.249 914.7 542.156 914.297 539.96 913.02L541.4 913.171C538.523 912.1 537.378 911.961 534.426 911.5L542.403 911.43C538.247 910.409 534.554 910.942 529.888 909.098L530.36 908.566Z"/><path fill="#FEFEFE" fill-opacity="0.12941177" d="M396.893 860.593C399.972 860.786 403.048 861.031 406.119 861.327L404.211 861.774C404.424 861.839 404.638 861.905 404.851 861.971C406.679 862.7 408.138 864.132 408.902 865.946C411.712 872.727 404.682 872.787 404.12 876.473L402.498 876.445L401.847 875.797C403.397 872.516 408.31 867.994 405.082 864.448C404.247 862.829 404.713 863.543 403.096 862.683C399.346 860.688 398.287 861.015 396.4 864.311C392.233 865.774 391.82 870.869 391.006 874.593C389.81 875.021 390.422 874.914 389.175 874.926C389.663 873.09 388.612 869.164 388.193 867.143C390.572 865.094 395.843 862.761 396.893 860.593Z"/><defs><linearGradient id="gradient_10" gradientUnits="userSpaceOnUse" x1="480.74023" y1="912.63794" x2="498.81683" y2="907.56543"><stop offset="0" stop-color="white" stop-opacity="0"/><stop offset="1" stop-color="white" stop-opacity="0.20784314"/></linearGradient></defs><path fill="url(#gradient_10)" d="M478.624 909.116L502.537 909.373C501.354 909.842 498.153 911.285 497.184 911.209C492.262 911.066 486.606 917.52 481.989 914.278L484.942 913.383C480.29 912.807 480.819 913.254 478.624 909.116Z"/><path fill="#FEFEFE" fill-opacity="0.32549021" d="M731.248 920.136C736.133 914.721 740.561 918.095 742.926 915.287C742.242 914.288 742.226 914.31 741.853 913.167C744.29 909.228 750.401 908.799 754.569 908.588C751.68 911.181 746.596 913.396 745.043 916.579L745.233 917.868C746.736 918.386 746.775 918.23 748.399 918.201C742.768 918.921 736.892 919.778 731.248 920.136Z"/><path fill="#FEFEFE" fill-opacity="0.32156864" d="M634.028 923.313C630.049 920.539 628.944 919.986 629.555 914.348C630.811 912.781 637.427 911.443 639.683 908.828C641.642 906.557 646.177 907.214 648.992 907.752C643.984 913.311 638.264 913.967 631.248 914.697C630.02 916.892 631.574 919.772 633.416 921.232L633.789 921.518L634.028 923.313Z"/><path fill="#FEFEFE" fill-opacity="0.027450981" d="M646.052 904.689C652.371 904.37 658.5 903.662 664.878 903.439C668.047 903.486 669.111 902.636 670.622 905.537C667.738 910.307 651.203 905.976 645.817 905.162L646.052 904.689Z"/><path fill="#FEFEFE" fill-opacity="0.37254903" d="M484.293 866.555C488.08 866.491 490.373 866.569 494.145 866.899C489.507 866.932 488.4 866.441 485.009 869.881C481.017 873.931 481.104 874.989 475.494 875.042C474.987 875.046 474.479 875.045 473.972 875.04C473.326 873.881 473.45 874.324 473.408 873.032C474.429 871.341 477.841 869.417 479.67 868.191L478.554 867.791L478.757 867.379C480.733 867.154 482.337 866.913 484.293 866.555Z"/><path fill="#FEFEFE" fill-opacity="0.23137255" d="M453.314 864.923C461.424 865.093 476.345 865.536 484.293 866.555C482.337 866.913 480.733 867.154 478.757 867.379L478.554 867.791C477.846 868.097 477.133 868.392 476.416 868.678C469.122 871.567 469.587 868.117 463.657 867.61C460.073 866.406 456.815 866.138 453.314 864.923Z"/><path fill="#FEFEFE" fill-opacity="0.36470589" d="M503.526 867.102L511.553 867.235C509.574 869.264 507.598 870.589 504.694 870.059C503.488 868.953 503.867 869.153 503.526 867.102Z"/><path fill="#FEFEFE" fill-opacity="0.24705882" d="M396.4 864.311C398.287 861.015 399.346 860.688 403.096 862.683C404.713 863.543 404.247 862.829 405.082 864.448C400.976 863.669 400.616 863.598 396.4 864.311Z"/></svg>