<svg width="1241" height="1210" viewBox="0 0 1241 1210" fill="none" xmlns="http://www.w3.org/2000/svg">
<g clip-path="url(#clip0_7_12819)">
<rect width="1241" height="1210" fill="white"/>
<path fill-rule="evenodd" clip-rule="evenodd" d="M927.235 2932.59C934.272 2899.83 902.086 2888.75 881.795 2881.46C867.261 2872.04 813.409 2839.39 771.74 2799.08C737.643 2766.1 714.432 2723.84 704.77 2719.81C704.77 2719.81 694.824 2714.04 693.791 2709.75C687.739 2684.64 692.787 2661.23 693.791 2646.01C713.189 2640.92 728.733 2634.56 740.358 2625.68C743.748 2626.81 748.83 2628.25 750.345 2623.3C760.851 2553.2 765.386 2483.93 773.934 2413.78C806.29 2146.6 809.94 1834.47 754.275 1590.44C753.69 1578.34 754.745 1567.42 755.824 1557.02C763.351 1556.21 767.902 1548.92 774.048 1544.57C783.587 1536.99 794.882 1531.16 794.416 1517.91C796.682 1516.2 796.418 1515.23 795.301 1513.05C802.577 1481.76 770.122 1448.78 760.943 1422.99C777.628 1259.79 754.926 1105.58 767.591 942.345C783.588 935.651 772.833 893.813 771.74 876.556C762.878 765.382 705.087 655.464 601.017 619.145C595.068 617.939 586.126 611.139 581.203 615.705C571.689 611.936 559.031 619.367 551.668 610.812L551.742 610.756C545.542 602.159 542.763 591.23 540.725 580.896C541.066 583.808 541.635 586.696 542.336 589.519C524.395 538.955 519.875 525.435 462.118 523.054C436.101 522.706 401.805 523.487 386.635 548.301C380.419 559.836 382.318 573.081 378.46 585.223C371.378 607.504 340.808 596.737 324.759 608.307C196.311 649.505 90.9524 733.597 56.3214 868.57C49.2414 884.838 41.2114 901.029 35.2924 917.818C34.3764 920.31 31.8564 928.743 37.9084 932.624L40.8354 934.501C2.28141 1114.7 -0.276581 1266.55 129.25 1386.68C138.97 1438.3 113.965 1508.8 123.577 1558.92C118.1 1566.69 125.045 1572.95 132.047 1573.44C132.722 1573.82 135.45 1575.01 136.194 1575.35C125.051 1732.66 171.835 1944.67 192.457 2028.35C195.264 2078.59 178.117 2119.86 142.843 2147.24C103.87 2171.24 26.8204 2279.66 41.1044 2393.38C24.4114 2396.65 7.83941 2398.45 -8.17559 2404.72C-78.2496 2392.35 -77.5546 2527.44 -82.0196 2574.94C-89.5816 2654.47 -94.2816 2769.74 -18.7286 2820.65C1.17541 2835.09 41.5334 2851.99 62.2144 2828.88C68.9914 2820.74 70.6884 2812.88 68.0224 2804.56C102.172 2756.31 92.9694 2693.2 96.1064 2636.61C106.009 2636.02 116.37 2640.66 125.949 2638.97C135.781 2630.31 99.9134 2632.67 96.1934 2632.16C96.5744 2623.43 97.2764 2614.24 98.1824 2605.44C103.808 2606.57 111.015 2609.27 116.425 2609.48C119.627 2610.26 121.89 2605.85 119.957 2603.56C115.735 2599.54 104.97 2600.16 98.9124 2599.59C99.9354 2592.22 101.186 2584.48 102.576 2577.36C109.987 2577.09 117.64 2581.81 124.657 2580.85C119.346 2577.3 109.377 2578.38 102.903 2576.04C107.113 2553.1 115.691 2531.32 123.666 2509.86C143.234 2517.94 160.115 2518.25 179.218 2515.83C187.032 2517.04 190.842 2515.44 192.107 2505.66L191.608 2505.05C206.749 2414.44 255.607 2328.07 346.36 2230.12C364.286 2210.06 384.543 2186.44 398.04 2160.03C425.161 2105.07 429.793 2044.42 450.69 1987.34C470.2 1929.97 496.877 1875.09 521.924 1820.7C525.597 1848.57 530.531 1877.17 535.66 1904.5C558.234 2001.35 556.046 2104.69 539.433 2202.08C514.853 2338.48 526.701 2475.53 521.234 2612.9C521.309 2620.82 522.291 2628.02 521.129 2636.27C520.975 2636.9 521.275 2637.66 522.027 2637.64L523.446 2637.67C535.26 2646.33 551.576 2647.89 565.458 2652.58C571.288 2657.2 569.646 2664.5 570.18 2670.21C571.705 2694.78 573.655 2719.44 571.235 2744.77C560.523 2765.29 547.22 2761.05 544.499 2789.99C542.117 2823.02 537.903 2858.14 553.989 2887.56L547.903 2888.61C538.871 2907.56 544.385 2919.87 565.613 2927.88C670.411 2968.97 817.877 3006.28 927.235 2975.26C929.223 2977.23 932.114 2975.19 934.374 2972.09C936.546 2969.11 938.136 2965.16 937.782 2962.87C935.912 2952.81 938.483 2934.44 927.235 2932.59Z" fill="white"/>
<path fill-rule="evenodd" clip-rule="evenodd" d="M931.729 2965.49C837.558 3007.77 666.558 2954.42 574.028 2923.55C549.079 2914.54 540.768 2912.78 547.758 2884.02C560.838 2909.26 588.968 2915.36 615.918 2920.42C707.208 2941.23 800.278 2979.65 897.909 2960.9C912.239 2958.65 926.418 2950.89 930.588 2936.57C933.159 2942.64 931.569 2950.86 932.598 2957.53C932.789 2960.19 932.848 2963.07 931.729 2965.49M550.858 2808.2C552.558 2791.24 555.278 2773.33 564.928 2758.35C563.878 2782.58 578.428 2823.76 610.308 2810.04C619.338 2805.26 624.399 2795.62 630.208 2787.88C649.518 2762.42 674.278 2740.31 702.249 2724.25C717.808 2726.92 724.499 2755.38 734.528 2767.29C723.348 2772.27 703.088 2783.62 701.039 2795.37C714.999 2790.67 727.848 2781.92 742.489 2778.85C747.178 2785.32 752.149 2791.6 757.369 2797.66C750.548 2800.67 723.048 2814.57 723.229 2821.51C738.098 2819.09 752.508 2811.81 767.458 2808.82C774.108 2815.42 780.159 2822.51 786.778 2829.13C776.778 2833.25 766.218 2837.85 760.758 2847.45C760.499 2847.88 761.138 2848.37 761.489 2847.95C768.979 2838.92 781.869 2837.26 793.039 2835.23C810.178 2851.37 829.369 2865.6 850.848 2876.25C872.338 2888.01 904.999 2890.69 913.548 2916.18C920.388 2941.67 899.058 2944.39 879.378 2946.19C859.468 2949.02 839.418 2949.45 819.638 2947.8C757.808 2945.22 699.358 2927.02 640.928 2911.11C569.489 2897.96 546.308 2887.32 550.858 2808.2M687.229 2716.08C659.858 2736.33 633.138 2758.88 614.128 2787.11C601.548 2810.09 584.808 2796.1 580.649 2777.7C577.278 2736.62 580.178 2701.14 576.229 2659.81C614.079 2664.97 652.958 2661.79 689.928 2652.66C685.479 2671.11 683.438 2678.11 683.298 2697.04C683.539 2703.28 683.448 2710.89 687.229 2716.08M550.609 1513.72C546.969 1515.05 545.416 1509.25 549.014 1507.94C551.485 1507.03 553.983 1506.23 556.493 1505.47C556.805 1504.8 557.365 1504.22 558.229 1503.9C587.69 1493.17 620.602 1494.21 651.375 1496.78C667.915 1498.16 684.419 1500.01 700.762 1502.92C716.408 1505.71 731.933 1509.13 747.586 1511.87C750.782 1512.27 753.977 1512.65 757.17 1513.01C760.971 1513.44 761.001 1519.44 757.17 1519.01C756.466 1518.93 755.764 1518.84 755.06 1518.76C754.594 1518.93 754.073 1519 753.493 1518.91C751.057 1518.52 748.625 1518.11 746.197 1517.69C735.513 1516.32 724.856 1514.75 714.2 1513.19C686.167 1509.08 658.045 1504.97 629.698 1503.91C603.056 1502.9 575.853 1504.51 550.609 1513.72M752.428 944.018C745.918 1033.78 747.598 1113.96 748.999 1203.86C749.808 1264.33 750.188 1324.82 748.088 1385.27C694.858 1247.69 711.149 1098.4 703.588 953.788C719.319 948.548 736.218 946.258 752.428 944.018M480.729 1607.68C485.708 1617.19 494.069 1624.84 503.979 1629.62C502.758 1632.02 502.338 1634.72 502.208 1637.25C484.358 1640.9 489.378 1649.37 477.319 1653.41C469.428 1655.59 461.838 1656.52 455.018 1661.3C431.808 1682.92 426.048 1681.33 401.138 1662.31C401.479 1660.59 367.579 1627.48 357.079 1608.97C348.329 1593.53 339.168 1577.98 325.758 1566.04C260.088 1498.8 190.128 1435.34 126.558 1366.24C-0.840675 1239.29 23.4683 1095.34 52.7293 936.768C99.9583 942.408 147.448 953.738 189.979 974.538C174.979 1044.53 174.018 1107.97 167.558 1178.99C165.608 1187.77 167.808 1204.68 180.249 1200.78C294.598 1291.57 307.888 1478.14 457.948 1532.09C519.108 1556.95 493.298 1577.13 513.508 1624.07C502.388 1622.03 492.468 1612.71 487.688 1603.79C485.319 1599.36 478.418 1603.26 480.729 1607.68M198.452 1551.27C194.772 1551.7 191.082 1552.02 187.389 1552.32C186.961 1552.66 186.43 1552.92 185.78 1553C180.026 1553.71 174.159 1554.65 168.345 1555.93C159.719 1558.99 151.002 1561.78 142.325 1564.69C141.565 1565.06 140.809 1565.44 140.062 1565.84C139.346 1566.21 138.653 1566.27 138.027 1566.13C137.774 1566.22 137.519 1566.3 137.266 1566.39C137.201 1566.41 137.135 1566.44 137.071 1566.46C136.841 1566.45 136.61 1566.44 136.375 1566.43C136.034 1566.42 135.447 1566.39 134.752 1566.35C134.737 1566.08 134.742 1565.82 134.734 1565.56C132.285 1565.63 130.09 1562.57 132.395 1560.55C140.844 1553.14 152.195 1550.43 163.044 1548.79C174.788 1547.02 186.667 1546.65 198.452 1545.27C202.286 1544.82 202.241 1550.83 198.452 1551.27M90.5583 2571.07C80.0393 2570.26 35.0483 2568.71 29.6493 2575.77C35.7293 2578.34 44.0883 2576.92 50.6283 2577.21C63.3293 2577.73 75.9993 2578.85 88.5693 2580.63C87.6283 2585.53 86.7783 2590.42 86.0793 2595.33C73.3993 2596.54 48.7083 2597.09 40.6593 2605.96C55.0183 2608.25 69.9683 2606.19 84.3783 2609.05C83.6783 2615.77 83.1683 2622.5 82.7893 2629.23C77.0483 2629.84 43.2893 2635.43 43.3193 2640.74C55.9583 2642.42 69.3483 2640.21 82.2293 2641.46C79.4383 2681.79 88.8993 2803.58 33.7783 2811.03C-14.4117 2808.49 -35.5517 2730.39 -42.1007 2692.92C-56.6217 2605.62 -54.1307 2512.54 -25.3507 2428.39C-15.0717 2404.99 12.9093 2400.93 36.5693 2399.72C37.4683 2403.68 38.3583 2407.57 39.3583 2411.49C29.0983 2434.75 25.8293 2460.94 25.5483 2486.11C27.7183 2522.29 72.3583 2549.19 104.778 2525.29C98.7183 2540.09 94.0393 2555.49 90.5583 2571.07M26.7893 2831.34C-68.6617 2810.82 -84.3217 2700.28 -77.7607 2619C-72.4117 2562.42 -78.8407 2443.13 -26.6117 2409.89C-94.1117 2471.51 -88.2507 2891.01 61.3383 2817.79C57.6083 2829.61 38.4283 2833.02 26.7893 2831.34M45.4893 2436.94C45.6593 2435.48 45.8483 2434.03 46.0483 2432.57C56.6383 2461.34 74.7783 2488.68 101.789 2505.34C91.4483 2518.24 71.3083 2522.08 57.7183 2511.52C34.0183 2493.75 43.8993 2461.6 45.4893 2436.94M370.848 598.998C370.659 599.328 370.458 599.658 370.258 599.978C368.938 600.068 367.608 600.188 366.258 600.338C367.789 599.878 369.319 599.448 370.848 598.998M940.999 2947.98C940.739 2940.82 940.638 2931.58 932.258 2929.04C936.058 2898.2 910.458 2880.64 883.579 2872.1C860.659 2858.08 834.668 2848.28 813.608 2831.38C823.388 2829.54 833.168 2827.32 841.858 2823.07C848.418 2819.86 845.258 2809.17 838.149 2810.16C825.558 2811.82 814.249 2818.22 802.418 2822.67C795.698 2817.15 789.188 2811.39 783.039 2805.29C790.698 2803.81 800.438 2804.35 804.899 2796.75C806.289 2794.37 805.668 2791.9 803.989 2790.07C796.229 2782.21 780.848 2790.06 771.208 2792.34C766.579 2787.01 762.108 2781.56 757.718 2776.06C764.999 2775.39 783.938 2776.72 780.229 2764.7C773.119 2755.3 757.829 2760.94 747.548 2762.87C734.508 2746.84 730.308 2722.24 709.928 2713.42C709.198 2709.53 704.119 2709.83 700.729 2710.98C695.739 2687.16 696.119 2675.05 697.579 2650.63C712.708 2646.44 727.718 2640.94 740.298 2631.92C746.079 2633.62 753.088 2631.66 754.289 2624.87C764.749 2555.33 769.399 2484.93 777.909 2415.14C808.938 2158.13 815.698 1844.43 758.258 1590.52C757.808 1580.9 758.489 1571.27 759.458 1561.72C766.308 1559.89 770.388 1553.2 776.058 1549.33C786.598 1540.74 797.319 1535.93 798.289 1520.94C800.418 1518.91 800.668 1515.84 799.499 1513.18C802.229 1497.79 798.208 1482.51 790.018 1469.21C781.039 1454.06 772.558 1438.77 765.069 1422.87C781.448 1262.61 759.229 1107.29 771.378 946.228C786.958 937.978 777.178 892.138 775.729 876.858C766.628 776.508 719.778 665.708 620.168 623.968C613.178 618.068 603.418 616.068 594.878 612.818C589.108 609.978 579.718 607.518 575.768 614.128C571.579 612.178 558.088 610.688 553.468 607.308C552.608 606.678 552.058 605.988 551.928 605.218C551.588 605.228 551.188 605.158 550.758 605.068C546.499 599.048 542.438 557.118 537.188 560.108C531.458 574.508 535.428 590.778 540.909 605.318C544.688 618.178 549.869 651.258 569.948 642.798C573.409 641.078 571.268 636.608 568.168 636.248C558.649 633.528 556.528 619.538 552.848 611.338C557.208 614.958 577.069 620.388 579.239 621.538C622.319 720.418 361.848 715.228 341.369 647.058C326.768 623.508 339.369 610.748 365.399 606.968C346.268 628.228 370.489 632.948 379.698 612.098C388.508 597.168 392.518 579.028 389.508 561.848C391.058 555.818 392.369 547.758 383.348 549.378C383.039 548.578 382.548 549.208 382.739 549.778C379.448 555.018 381.739 562.548 380.569 568.598C379.579 578.498 376.768 588.198 371.999 596.958C363.149 598.648 354.338 600.458 345.569 602.438C340.308 591.748 306.188 613.068 297.028 615.578C175.338 651.528 82.7983 747.268 50.4993 868.028C43.2893 884.108 35.5083 900.268 29.6083 916.848C26.9683 924.028 26.9683 932.938 34.2183 937.588C-1.11167 1099.66 -9.73166 1268.52 123.739 1390.08C126.768 1403.24 124.749 1417.2 124.659 1430.6C125.533 1454.43 109.836 1523.4 117.324 1558.94C116.511 1560.49 115.936 1562.16 115.711 1563.94C114.663 1572.2 121.384 1577.52 128.799 1578.88C129.024 1578.92 129.256 1578.96 129.485 1579C129.653 1579.08 129.816 1579.17 129.989 1579.25C121.138 1714.75 154.329 1899.12 186.499 2029.84C188.878 2074.77 175.329 2115.64 138.858 2143.99C69.5183 2195.83 40.3083 2282.36 32.1983 2364.82C31.0483 2373.27 32.1783 2381.87 34.0793 2390.17C19.0483 2392.97 4.97933 2394.79 -9.61167 2400.3C-90.0817 2384.88 -84.3407 2557.77 -90.5007 2609.07C-95.3217 2684.91 -92.3117 2775.82 -22.6217 2825.48C0.808327 2842.16 42.1683 2858.18 64.9993 2832.92C71.4583 2825.19 74.9793 2816.15 72.4383 2806.27C105.168 2758.34 97.4383 2697.08 99.8883 2642.54C108.458 2642.84 117.798 2646.66 126.239 2644.56C132.739 2642.84 133.569 2634.5 128.069 2631.18C120.128 2626.68 109.338 2628.39 100.458 2628.09C100.729 2622.87 101.119 2617.65 101.619 2612.43C110.048 2614.49 122.128 2619.44 124.638 2607.66C125.649 2596.93 112.098 2596.11 103.659 2595.65C104.249 2591.6 104.909 2587.57 105.659 2583.55C112.119 2584.2 118.938 2588.32 125.289 2586.35C128.888 2584.93 130.138 2581.29 127.508 2578.34C122.619 2573.55 114.258 2574.51 107.789 2573.02C111.718 2553.77 118.819 2535.36 125.659 2516.95C138.039 2521.25 151.448 2524.09 164.659 2523.01C171.508 2521.57 178.989 2521.16 185.909 2522.09C193.608 2520.05 195.388 2511.82 196.399 2505.1C196.249 2504.86 196.098 2504.63 195.928 2504.42C213.718 2400.82 277.539 2311.32 349.098 2234.21C368.808 2212.15 388.138 2189.21 401.528 2163.01C428.729 2108.25 433.608 2046.64 454.418 1989.75C471.948 1938.09 495.378 1888.55 518.348 1838.94C527.558 1904.28 544.758 1968.55 546.729 2034.81C549.729 2118.64 531.258 2201.25 523.378 2284.41C509.208 2393.86 522.079 2503.99 515.239 2613.52C515.289 2621.27 516.289 2628.57 515.188 2636.32C514.579 2640.61 517.659 2643.3 520.899 2643.39C532.798 2651.2 547.749 2653.97 561.428 2657.31C565.218 2660.21 563.579 2667.35 564.249 2671.72C565.718 2696.27 567.659 2714.79 565.268 2739.55C551.888 2759.33 542.249 2756.17 538.528 2786.24C536.479 2817.64 531.968 2851.58 545.688 2880.08C539.548 2881.48 537.218 2900.22 538.138 2905.17C539.698 2919.16 552.028 2923.58 563.948 2928.41C651.058 2961.05 836.149 3014.78 925.659 2977.83C932.069 2981.46 939.218 2974.35 941.289 2968.62C944.028 2961.65 941.508 2954.9 940.999 2947.98" fill="black"/>
<path fill-rule="evenodd" clip-rule="evenodd" d="M617.529 385.003C615.377 366.088 618.163 326.552 618.349 324.15C619.529 308.965 612.415 249.002 598.964 254.527C576.402 236.666 546.351 232.722 518.252 230.838C459.884 226.924 397.791 235.909 352.721 275.189C330.433 295.588 308.733 325.257 310.477 356.149C290.227 385.431 261.677 425.598 286.909 459.831C295.486 470.768 309.117 474.841 319.892 483.124C341.563 500.604 355.16 525.69 377.037 543.066C434.997 595.149 533.414 606.029 590.36 546.789C634.395 503.885 627.275 439.699 619.529 385.003C614.322 348.23 621.729 421.904 617.529 385.003Z" fill="white"/>
<path fill-rule="evenodd" clip-rule="evenodd" d="M440.28 150.626C455.89 147.476 471.919 145.516 487.86 146.106L489.089 146.153C501.083 146.633 516.273 147.693 526.736 154.668C527.338 154.064 528.306 153.754 529.184 154.173C541.618 160.108 555.294 164.399 568.386 168.663C581.418 172.906 594.938 175.707 608.597 176.836C613.736 177.261 618.134 182.81 614.88 187.787C614.106 188.973 613.352 190.171 612.601 191.372C613.857 191.241 615.113 191.106 616.369 190.979C620.502 190.563 624.631 194.974 624.386 198.998C624.233 201.529 623.96 204.03 623.556 206.501C625.13 206.468 626.695 206.704 628.207 207.343C635.863 210.576 635.33 219.695 634.757 226.633C633.963 236.261 630.362 246.459 623.676 253.665C628.668 258.85 632.202 265.042 634.31 272.396C635.839 277.766 636.69 283.486 636.27 289.076L636.136 290.749C635.617 296.815 634.584 303.532 630.22 307.896C627.98 310.146 625.22 310.966 622.589 310.706C624.18 324.686 625.2 338.746 626.16 352.756L626.61 359.452C628.752 391.832 630.361 424.422 629.94 456.856C629.549 487.166 623.56 516.586 604.97 541.196C588.039 563.606 563.73 580.126 536.23 586.406C521.41 589.796 506.28 590.036 491.28 587.876C484.009 586.826 476.69 585.216 469.789 582.676C462.15 579.856 456.66 575.706 451.52 569.486C449.089 566.536 450.259 560.256 455.1 560.846C462.421 561.733 469.105 562.803 476.124 564.969L477.129 565.286C484.12 567.526 491.36 569.196 498.669 569.906C513.64 571.356 528.839 569.896 543.18 565.356C566.53 557.956 586.64 541.466 599.53 520.746C614.83 496.186 616.56 468.306 616.339 440.066C616.102 409.077 615.094 378.071 613.449 347.114L613.169 341.956C612.299 326.026 611.459 310.086 610.72 294.146C610.49 289.146 610.14 284.106 609.509 279.116C603.74 275.736 598.57 271.076 595.2 265.326C588.43 268.126 581.31 270.146 574.759 271.756C559.585 275.488 543.831 276.394 528.386 274.057C524.22 275.778 519.971 277.291 515.657 278.593C514.491 279.11 513.325 279.618 512.16 280.116C501.759 284.566 491.209 288.336 480.23 291.096L477.533 291.768C471.755 293.192 465.479 294.595 459.33 295.036C458.32 295.426 457.23 295.756 456.039 296.046C450.44 297.406 444.629 297.836 438.89 297.356C433.299 296.886 429.259 291.236 432.339 285.946C434.589 282.086 436.86 278.236 439.15 274.396C431.18 277.716 422.95 280.476 414.65 282.816C406.27 285.176 397.77 287.166 389.259 288.996C384.709 289.966 380.14 290.826 375.6 291.796C372.35 292.486 367.36 292.846 364.709 294.986C361.78 297.336 360.95 302.816 359.839 306.196C358.379 310.586 357.009 314.996 355.759 319.456C353.27 328.356 351.23 337.386 349.65 346.506C348.07 355.636 347.009 364.856 346.419 374.106C345.83 383.346 346.089 392.646 345.14 401.846C344.629 406.726 339.39 409.236 335.52 405.826C335.066 405.426 334.608 405.021 334.155 404.612L333.48 403.996C330.169 400.996 326.959 397.816 324.31 394.236C323.83 393.576 323.37 392.886 322.94 392.186C322.87 392.186 322.81 392.166 322.74 392.116L322.005 391.563C313.918 385.543 300.406 377.695 292.52 387.696C290.007 390.881 288.72 394.938 287.653 398.852L285.779 405.856C284.567 410.429 283.426 415.027 282.759 419.706C281.249 430.186 282.009 442.266 289.22 450.666C292.1 454.026 296.07 456.426 300.499 457.056C302.97 457.396 305.41 456.976 307.86 456.666C310.35 456.356 312.749 456.856 315.24 456.616C319.2 456.226 320.93 460.966 319.45 463.946C318.65 465.546 317.709 466.926 316.64 468.096C317.499 468.836 318.32 469.636 319.11 470.476C321.45 471.226 323.549 472.836 325.12 474.966C326.39 476.686 327.049 478.556 327.16 480.526C327.299 481.016 327.419 481.516 327.53 482.026L329.675 485.507C330.147 486.271 330.617 487.026 331.089 487.766C336.549 496.366 342.61 503.646 350.14 510.506C357.39 517.106 365.259 523.016 372.07 530.096L372.872 530.936C379.222 537.627 385.915 545.727 383.43 555.456C382.79 557.956 379.299 559.756 377.02 558.066C369.69 552.626 365.999 544.006 359.78 537.406C353.379 530.606 346.289 524.496 339.87 517.716C333.799 511.316 329.009 504.066 325.4 496.086C323.959 497.676 321.86 498.806 318.95 499.246C313.95 499.996 309.289 497.066 307.11 492.736C305.709 493.356 304.28 493.916 302.839 494.356C295.259 496.676 290.49 488.246 293.35 482.016C294.879 478.676 296.789 475.776 299.16 473.336C291.749 472.316 284.209 468.486 279.339 463.706C267.12 451.696 265.44 433.646 268.19 417.596C269.65 409.086 272.169 400.476 275.44 392.486C276.009 391.096 276.62 389.696 277.289 388.316C276.919 388.306 276.539 388.146 276.299 387.836C274.089 384.816 271.4 382.346 269.759 378.966C268.249 375.866 266.57 372.726 265.379 369.496C262.93 362.886 261.73 355.426 260.93 348.436C259.28 334.126 259.919 319.906 262.11 305.686C265.839 281.466 274.847 258.288 288.118 237.95C287.395 237.57 286.703 237.112 286.058 236.57L285.739 236.292L285.221 235.824C281.434 232.397 281.761 225.974 285.221 222.503L286.314 221.407C287.697 220.032 288.891 218.943 291.126 217.447C291.456 217.226 291.793 217.018 292.134 216.824C290.964 214.662 290.558 212.134 291.373 209.345C294.213 199.629 308.193 199.973 317.054 204.21C326.857 195.461 337.727 187.866 349.509 181.716C377.57 167.076 409.299 156.866 440.28 150.626ZM295.23 406.526C300.47 404.816 307.43 408.406 312.14 410.566C318.11 413.306 323.19 417.356 328.11 421.636C330.56 423.776 330.999 427.276 330.39 430.266C330.329 430.566 330.27 430.876 330.199 431.186C329.549 434.376 325.989 436.886 322.839 436.796C316.249 436.616 313.11 430.926 309.379 426.106C308.94 426.886 308.39 427.606 307.709 428.146L307.249 428.506C305.701 429.684 303.995 430.626 301.949 430.536C300.499 430.466 299.11 430.096 297.829 429.426C294.629 427.736 293.22 423.596 294.089 420.226C294.629 418.106 295.869 416.446 297.489 415.296L296.885 414.883C295.593 413.983 294.415 413.035 293.496 411.637L293.289 411.306H293.369C292.369 409.586 293.02 407.246 295.23 406.526Z" fill="black"/>
<path fill-rule="evenodd" clip-rule="evenodd" d="M518.943 480.352C520.477 477.685 524.009 475.214 527.241 475.593C541.72 477.291 541.695 494.845 536.104 505.093C531.147 514.18 520.888 519.514 510.62 518.735C499.833 517.916 490.642 511.574 486.597 501.483C483.922 494.808 482.686 482.485 489.802 478C489.934 477.916 490.152 477.937 490.257 478.058C493.669 482.027 493.803 487.986 496.79 492.405C499.568 496.515 503.884 499.909 508.94 500.433C512.716 500.825 516.536 499.463 518.013 496.073C518.812 494.239 518.721 493.244 518.421 491.982L518.148 490.885C517.202 487.044 516.778 484.119 518.943 480.352ZM522.814 403.367C530.365 407.957 541.871 418.66 533.748 430.04C524.185 440.073 510.418 428.569 503.634 423.366C497.343 419.334 490.275 429.705 496.112 434.413C545.135 470.708 565.03 404.568 526.633 397.971C522.406 397.244 520.835 401.947 522.814 403.367ZM443.071 371.893C447.706 364.939 458.286 365.963 460.839 374.215C462.222 378.685 460.312 382.703 460.411 387.167C460.494 390.938 460.247 395.14 459.091 398.792C456.455 407.12 448.965 413.002 440.104 412.758C431.272 412.515 423.493 406.925 419.794 399.052C416.082 391.149 416.868 382.97 419.578 374.934C419.708 374.548 420.214 374.361 420.519 374.686C423.722 378.09 426.067 381.684 428.494 385.496L430.98 389.403C432.881 392.345 435.643 396.103 439.191 395.867L439.723 395.815C440.71 395.73 440.558 395.926 441.319 394.582C441.671 393.96 441.607 392.804 441.777 392.07L441.836 391.822V391.822L441.804 391.688C441.729 391.333 441.654 390.663 441.594 389.5L441.581 389.244C441.324 383.807 439.787 376.82 443.071 371.893ZM560.563 376.522C559.732 367.628 572.236 365.653 576.393 372.234C578.561 375.666 579.192 379.977 579.672 384.062L579.896 386C580.388 390.195 580.583 394.559 578.762 398.472C575.894 404.635 569.657 407.893 562.929 407.377C556.504 406.883 550.642 403.158 547.552 397.503C544.797 392.457 542.058 382.605 545.404 377.342C545.606 377.023 546.01 376.982 546.287 377.228C549.449 380.035 549.964 385.155 551.844 388.812C553.783 392.584 556.724 396.26 561.181 396.833C565.445 397.381 567.074 395.052 565.986 390.987C564.583 385.739 561.091 382.169 560.563 376.522ZM446.448 319.016L448.493 318.233C455.499 315.586 465.118 312.527 470.814 318.224C474.328 321.737 474.997 326.912 472.489 331.199C469.45 336.392 463.999 336.52 458.735 337.285C452.748 338.155 446.659 339.809 441.085 342.167C434.806 344.824 428.979 348.136 423.27 351.835C417.844 355.35 412.437 361.095 405.942 362.178C405.677 362.222 405.376 362.108 405.307 361.817C403.832 355.467 407.931 349.218 411.589 344.264C416.015 338.266 421.378 333.343 427.372 328.929C433.157 324.668 439.767 321.589 446.448 319.016ZM573.716 341.593L574.34 341.483C578.589 340.776 582.439 340.939 585.641 344.304C588.085 346.871 589.027 350.198 587.862 353.592C586.787 356.723 584.383 359.904 580.894 360.56C569.115 362.776 556.068 362.41 544.23 360.732C538.814 359.963 533.349 359.024 528.073 357.542L525.646 356.838C521.242 355.58 516.2 354.266 513.001 351.027C511.851 349.863 512.514 348.197 513.89 347.658C519.472 345.472 527.123 346.635 533.075 346.464C539.999 346.266 546.934 345.747 553.825 345.032C560.559 344.332 567.075 342.811 573.716 341.593Z" fill="black"/>
<path fill-rule="evenodd" clip-rule="evenodd" d="M614.09 396.432C611.262 404.128 606.958 412.14 601.695 418.617C580.401 436.649 559.71 426.665 549.204 402.226C545.212 384.955 555.811 366.351 567.042 353.646C583.262 337.389 609.733 345.921 617.191 365.247C617.644 367.751 617.918 370.249 618.049 372.739C617.894 380.83 616.919 387.745 614.09 395.432M409.41 380.911C437.462 347.544 489.942 345.76 488.603 397.115C482.577 462.119 381.106 446.164 409.41 380.911ZM622.913 353.076C621.93 351.411 620.839 349.8 619.648 348.259C619.208 347.997 618.955 345.673 617.337 345.501C595.71 321.642 557.717 335.179 543.989 358.953C541.482 361.959 539.437 365.478 537.929 369.196C524.403 366.715 508.634 367.197 496.054 372.306C483.58 339.734 445.815 336.826 420.928 350.743C405.449 358.356 395.412 374.299 380.358 383.057C344.969 385.604 306.988 377.675 272.238 386.552C244.832 392.25 267.742 406.127 272.338 396.866C305.101 387.186 343.916 395.366 377.933 393.185C381.47 399.168 388.253 404.064 395.013 403.855C402.314 468.576 496.698 457.844 499.954 400.311C503.647 394.472 508.24 388.884 514.814 385.246C517.331 384.725 519.762 384.048 521.984 383C525.782 382.464 531.634 384.074 535.128 387.236C547.097 459.052 616.052 450.688 628.375 387.774C628.62 387.524 629.305 386.586 629.831 385.081C634.049 379.504 644.375 377.431 642.725 368.016C641.256 358.599 629.364 358.711 622.913 353.076Z" fill="black"/>
</g>
<defs>
<clipPath id="clip0_7_12819">
<rect width="1241" height="1210" fill="white"/>
</clipPath>
</defs>
</svg>
