<svg width="1241" height="1210" viewBox="0 0 1241 1210" fill="none" xmlns="http://www.w3.org/2000/svg">
<g clip-path="url(#clip0_7_12930)">
<rect width="1241" height="1210" fill="white"/>
<path fill-rule="evenodd" clip-rule="evenodd" d="M359.625 217.24C358.496 207.332 359.957 186.623 360.054 185.364C360.673 177.41 356.943 146.001 349.891 148.895C338.061 139.539 322.305 137.474 307.572 136.487C276.969 134.436 244.413 139.143 220.782 159.718C209.096 170.403 197.719 185.944 198.633 202.126C188.015 217.464 173.047 238.504 186.276 256.435C190.773 262.164 197.92 264.298 203.569 268.636C214.932 277.793 222.061 290.933 233.531 300.035C263.921 327.316 315.522 333.015 345.379 301.985C368.468 279.511 364.734 245.89 360.673 217.24C357.943 197.978 361.826 236.569 359.625 217.24Z" fill="white"/>
<path fill-rule="evenodd" clip-rule="evenodd" d="M266.69 94.4703C274.875 92.8203 283.279 91.7936 291.637 92.1026L292.281 92.1276C298.57 92.3787 306.534 92.9342 312.02 96.5875C312.336 96.2711 312.843 96.1087 313.304 96.3282C319.823 99.437 326.993 101.685 333.858 103.918C340.691 106.141 347.779 107.608 354.941 108.199C357.635 108.422 359.941 111.329 358.235 113.936C357.829 114.557 357.434 115.184 357.04 115.813C357.699 115.745 358.357 115.674 359.016 115.608C361.183 115.39 363.348 117.7 363.219 119.808C363.139 121.134 362.996 122.444 362.784 123.738C363.609 123.721 364.43 123.844 365.223 124.179C369.237 125.873 368.957 130.649 368.657 134.283C368.241 139.327 366.353 144.668 362.847 148.443C365.464 151.159 367.317 154.402 368.423 158.255C369.224 161.067 369.67 164.064 369.45 166.992L369.38 167.868C369.108 171.046 368.566 174.564 366.278 176.85C365.104 178.028 363.657 178.458 362.277 178.322C363.111 185.645 363.646 193.009 364.149 200.348L364.385 203.855C365.508 220.816 366.352 237.888 366.131 254.876C365.926 270.753 362.786 286.164 353.039 299.055C344.162 310.793 331.417 319.446 316.998 322.736C309.228 324.512 301.295 324.637 293.43 323.506C289.618 322.956 285.78 322.113 282.162 320.782C278.157 319.305 275.278 317.131 272.583 313.873C271.309 312.328 271.922 309.038 274.46 309.347C278.299 309.812 281.803 310.373 285.484 311.507L286.011 311.673C289.676 312.846 293.472 313.721 297.304 314.093C305.154 314.853 313.123 314.088 320.642 311.71C332.885 307.834 343.429 299.196 350.187 288.343C358.209 275.478 359.116 260.874 359 246.082C358.876 229.85 358.348 213.608 357.485 197.393L357.338 194.691C356.882 186.346 356.441 177.997 356.054 169.647C355.933 167.028 355.75 164.388 355.419 161.775C352.394 160.004 349.684 157.563 347.917 154.551C344.367 156.018 340.634 157.076 337.199 157.919C329.243 159.874 320.983 160.349 312.885 159.125C310.701 160.026 308.473 160.819 306.211 161.501C305.6 161.771 304.989 162.037 304.378 162.298C298.924 164.629 293.393 166.604 287.636 168.05L286.222 168.402C283.193 169.148 279.902 169.883 276.678 170.114C276.149 170.318 275.577 170.491 274.953 170.643C272.017 171.355 268.97 171.58 265.961 171.329C263.03 171.083 260.912 168.123 262.527 165.352C263.706 163.33 264.897 161.314 266.098 159.302C261.919 161.041 257.604 162.487 253.252 163.713C248.858 164.949 244.402 165.991 239.939 166.95C237.554 167.458 235.158 167.908 232.778 168.416C231.074 168.778 228.457 168.966 227.067 170.087C225.532 171.318 225.096 174.189 224.514 175.959C223.748 178.259 223.03 180.569 222.375 182.905C221.07 187.567 220 192.297 219.172 197.074C218.343 201.856 217.787 206.686 217.478 211.531C217.169 216.371 217.305 221.243 216.807 226.062C216.539 228.618 213.792 229.933 211.763 228.146C211.525 227.937 211.285 227.725 211.048 227.511L210.693 227.188C208.957 225.616 207.274 223.951 205.886 222.076C205.634 221.73 205.393 221.368 205.167 221.002C205.131 221.002 205.099 220.991 205.062 220.965L204.677 220.676C200.437 217.522 193.352 213.411 189.218 218.65C187.9 220.319 187.225 222.444 186.666 224.494L185.683 228.163C185.048 230.558 184.45 232.966 184.1 235.417C183.308 240.906 183.707 247.234 187.487 251.634C188.997 253.394 191.079 254.651 193.401 254.981C194.697 255.159 195.976 254.939 197.261 254.777C198.566 254.615 199.824 254.876 201.13 254.751C203.206 254.546 204.113 257.029 203.337 258.59C202.918 259.428 202.425 260.151 201.864 260.764C202.314 261.152 202.745 261.571 203.159 262.011C204.386 262.404 205.487 263.247 206.31 264.363C206.976 265.264 207.322 266.243 207.38 267.275C207.453 267.532 207.516 267.794 207.574 268.061L208.699 269.885C208.946 270.285 209.193 270.68 209.44 271.067C212.303 275.572 215.48 279.385 219.429 282.979C223.23 286.436 227.356 289.532 230.927 293.24L231.347 293.681C234.677 297.185 238.186 301.428 236.883 306.524C236.547 307.834 234.717 308.776 233.522 307.891C229.679 305.042 227.744 300.526 224.483 297.069C221.127 293.507 217.409 290.307 214.044 286.756C210.861 283.403 208.349 279.606 206.457 275.426C205.701 276.258 204.601 276.85 203.075 277.081C200.454 277.474 198.01 275.939 196.867 273.671C196.133 273.996 195.384 274.289 194.628 274.519C190.654 275.735 188.153 271.319 189.653 268.056C190.454 266.306 191.456 264.787 192.699 263.509C188.813 262.975 184.86 260.968 182.307 258.465C175.9 252.174 175.019 242.719 176.461 234.312C177.227 229.854 178.547 225.344 180.262 221.159C180.561 220.431 180.881 219.697 181.232 218.975C181.038 218.969 180.839 218.886 180.713 218.723C179.554 217.141 178.144 215.847 177.284 214.077C176.492 212.453 175.612 210.808 174.987 209.116C173.703 205.654 173.074 201.746 172.655 198.085C171.789 190.589 172.124 183.141 173.273 175.692C175.228 163.005 179.951 150.865 186.91 140.211C186.531 140.013 186.168 139.772 185.829 139.489L185.662 139.343L185.391 139.098C183.405 137.303 183.577 133.938 185.391 132.12L185.964 131.546C186.689 130.826 187.315 130.256 188.487 129.472C188.66 129.356 188.836 129.247 189.015 129.145C188.402 128.013 188.189 126.689 188.616 125.228C190.105 120.138 197.435 120.319 202.081 122.538C207.221 117.955 212.92 113.977 219.098 110.755C233.81 103.087 250.446 97.7388 266.69 94.4703ZM190.639 228.513C193.386 227.617 197.035 229.498 199.505 230.629C202.635 232.065 205.298 234.186 207.878 236.428C209.163 237.549 209.393 239.382 209.074 240.948C209.042 241.105 209.011 241.268 208.973 241.43C208.633 243.101 206.766 244.416 205.114 244.369C201.659 244.275 200.013 241.294 198.057 238.769C197.827 239.178 197.539 239.555 197.182 239.838L196.94 240.026C196.129 240.644 195.234 241.137 194.162 241.09C193.401 241.053 192.673 240.859 192.001 240.508C190.324 239.623 189.585 237.455 190.04 235.689C190.324 234.579 190.974 233.709 191.823 233.107L191.506 232.891C190.829 232.42 190.211 231.923 189.73 231.19L189.621 231.017H189.663C189.139 230.116 189.48 228.89 190.639 228.513Z" fill="black"/>
<path fill-rule="evenodd" clip-rule="evenodd" d="M301.591 295.63C298.078 294.189 294.944 291.785 292.653 288.713C291.857 287.645 291.65 286.518 291.817 285.487C292.005 284.327 292.687 283.276 293.617 282.571C294.55 281.864 295.717 281.515 296.845 281.693C297.825 281.848 298.801 282.388 299.574 283.507L299.735 283.731C301.097 285.585 302.872 287.106 304.895 288.087C306.844 289.031 309.024 289.472 311.28 289.216C315.577 288.728 318.539 286.39 321.687 283.216C322.077 282.815 322.467 282.402 322.86 281.982C323.107 281.601 323.451 281.356 323.833 281.228C324.257 281.085 324.736 281.093 325.176 281.247C325.599 281.396 325.978 281.678 326.232 282.053C326.473 282.409 326.61 282.85 326.565 283.356C326.277 286.646 324.568 289.582 322.139 291.887C319.442 294.448 315.866 296.219 312.5 296.84C308.791 297.525 305.012 297.034 301.591 295.63V295.63ZM314.249 244.879C318.195 247.291 324.207 252.917 319.962 258.898C314.966 264.171 307.773 258.125 304.228 255.39C300.941 253.271 297.248 258.722 300.298 261.196C325.912 280.273 336.307 245.51 316.245 242.042C314.036 241.66 313.216 244.132 314.249 244.879ZM268.348 222.688C268.784 217.244 277.025 216.008 277.845 221.395C278.579 226.22 277.715 230.652 275.554 234.996C273.49 239.146 268.301 237.21 267.909 233.431C267.383 228.365 268.077 226.074 268.348 222.688ZM331.08 220.278C332.229 218.764 333.888 217.731 335.876 218.315C342.085 220.14 340.255 229.009 338.074 233.325C336.889 235.67 333.059 236.264 331.328 234.2C328.506 230.834 327.155 224.112 330.742 220.797C330.839 220.625 330.947 220.452 331.08 220.278ZM275.467 198.87L276.448 198.697C279.482 198.169 283.255 197.662 285.402 200.116C286.54 201.417 286.932 203.836 285.402 205.082C282.71 207.274 279.734 206.424 276.508 206.61C273.85 206.763 271.295 207.206 268.734 207.942C263.116 209.557 258.538 212.506 253.74 215.744C253.111 216.168 252.468 215.358 252.769 214.766C255.538 209.309 260.906 204.826 266.282 202.093C269.152 200.635 272.292 199.425 275.467 198.87ZM325.419 196.425L326.17 196.58C334.341 198.298 344.956 201.73 348.825 209.802C348.972 210.944 348.816 211.189 348.69 211.348L348.648 211.402C348.543 211.538 348.46 211.726 347.968 211.882C347.832 211.849 347.694 211.814 347.554 211.778C345.781 211.31 344.378 210.666 343.019 209.998L341.546 209.268C339.838 208.425 338.114 207.613 336.287 207.013C332.388 205.734 328.377 204.833 324.305 204.351C323.422 204.247 322.572 203.948 321.902 203.434C321.265 202.946 320.779 202.271 320.557 201.374C320.27 200.213 320.353 199.334 320.972 198.287C321.437 197.5 322.104 196.955 322.869 196.642C323.649 196.323 324.537 196.247 325.419 196.425Z" fill="black"/>
<path fill-rule="evenodd" clip-rule="evenodd" d="M357.973 223.374C356.494 227.445 354.243 231.683 351.491 235.109C340.355 244.648 329.534 239.367 324.04 226.439C321.952 217.303 327.495 207.461 333.369 200.741C341.851 192.141 355.694 196.654 359.595 206.877C359.831 208.202 359.975 209.523 360.043 210.841C359.962 215.121 359.452 218.779 357.973 222.845M250.934 215.164C265.604 197.513 293.049 196.569 292.348 223.735C289.197 258.121 236.132 249.681 250.934 215.164ZM362.587 200.439C362.073 199.558 361.502 198.706 360.879 197.891C360.649 197.752 360.517 196.523 359.671 196.432C348.361 183.811 328.492 190.972 321.313 203.548C320.002 205.138 318.932 207 318.144 208.966C311.07 207.654 302.824 207.909 296.245 210.612C289.721 193.381 269.972 191.843 256.957 199.205C248.862 203.232 243.613 211.666 235.741 216.299C217.234 217.646 197.371 213.452 179.198 218.148C164.866 221.162 176.847 228.502 179.251 223.603C196.384 218.483 216.683 222.81 234.472 221.656C236.322 224.821 239.869 227.411 243.405 227.301C247.223 261.537 296.582 255.86 298.284 225.426C300.216 222.337 302.618 219.381 306.056 217.457C307.372 217.181 308.643 216.823 309.805 216.269C311.791 215.985 314.852 216.837 316.679 218.509C322.938 256.499 358.999 252.075 365.443 218.794C365.571 218.662 365.93 218.165 366.205 217.369C368.411 214.419 373.811 213.323 372.948 208.342C372.18 203.361 365.961 203.42 362.587 200.439Z" fill="black"/>
<path d="M233.04 306.145C233.339 305.47 234.381 305.97 234.208 306.631C232.748 313.417 230.505 321.135 224.364 325.142C221.307 360.974 279.291 372.943 303.766 355.174C311.249 350.512 313.203 346.385 313.376 337.907C308.226 331.592 309.602 323 307.476 315.629L316.525 333.72C332.613 341.891 349.338 348.684 364.726 358.14C393.843 371.92 398.483 374.323 399.236 405.887C409.126 517.012 354.306 567.632 484.04 629.349C492.723 623.269 498.719 631.004 498.249 639.627C503.158 637.234 508.089 635.316 513.58 634.326C504.673 631.602 508.15 618.691 513.669 614.04C531.709 600.317 562.7 602.83 561.18 630.865C565.326 632.352 564.057 638.886 559.923 639.729C593.946 651.593 621.689 675.336 650.491 695.962C646.174 673.68 642.118 651.249 640.793 628.664C640.452 628.545 640.39 628.024 640.746 627.87C640.148 624.132 641.65 623.546 642.627 627.411C710.679 615.125 780.545 614.663 849.547 615.587C886.745 616.054 924.186 621.015 958.768 635.057C963.129 637.314 980.244 641.277 972.595 647.969C971.152 657.057 967.858 665.849 964.914 674.593C946.1 727.012 927.204 779.397 909.816 832.297C906.092 843.508 902.332 854.712 898.829 865.995C897.558 870.089 896.514 876.091 891.19 876.133C886.33 879.456 880.914 881.95 875.299 883.76C864.57 945.402 814.448 991.017 770.003 1031.75C772.188 1034.96 774.264 1038.29 776.073 1041.74C788.638 1042.85 800.016 1035.62 811.714 1032.61C854.525 1018.7 900.946 1014.47 945.712 1018.92C947.467 1019.09 948.944 1020.89 947.849 1022.59C942.957 1030.66 936.29 1037.99 927.133 1041.56C1053.79 1049.79 1167.07 1137.36 1213.23 1253.23C1328.83 1526.08 1059.05 1832.33 771.26 1708.81C523.371 1602.47 494.856 1245.51 717.713 1097.6C712.815 1078.34 707.858 1058.74 705.93 1038.95C704.7 1025.1 706.121 1011.01 702.587 997.415C606.849 1091.77 511.115 1186.15 416.528 1281.63L413.304 1284.91C412.417 1285.81 410.703 1287.05 410.643 1288.35C412.515 1295.57 436.729 1304.4 441.501 1310.52C464.297 1318.13 471.282 1345.92 442.513 1350.05C433.816 1351.26 424.984 1351.24 416.226 1351.66C422.253 1361.39 424.549 1379.59 411.814 1385.04C405.548 1387.33 397.772 1385.95 391.27 1385.72C384.145 1385.47 377.02 1385.22 369.894 1384.96C353.812 1397.1 358.617 1420 354.222 1437.41C348.994 1476.54 321.887 1502.39 281.222 1502.4C236.453 1505.54 190.16 1503.13 146.764 1491.34C146.615 1491.57 146.315 1491.78 146.025 1491.67C140.486 1488.3 146.481 1481.11 149.744 1478.08C140.701 1467.03 155.189 1451.82 163.215 1444.14C170.372 1437.37 180.762 1434.02 188.647 1427.93C176.696 1425.53 164.579 1423.92 152.553 1421.91C110.434 1681.56 -216.052 1794.34 -403.471 1599.8C-585.317 1418.68 -495.145 1086.22 -237.884 1033.19C-254.636 1031.37 -278.013 1037.08 -290.032 1022.81C-293.485 1018.1 -294.585 1011.03 -291.263 1006.15C-297.494 1006.79 -402.018 1006.95 -356.719 1002.96C-361.382 1002.9 -366.035 1002.74 -370.672 1002.4C-370.389 1007.03 -369.944 1011.65 -369.294 1016.25C-368.178 1024.19 -366.145 1031.85 -364.5 1039.68C-363.882 1042.61 -365.364 1045.51 -368.366 1046.38C-381.551 1051.32 -397.307 1051.55 -403.66 1036.8C-408.654 1023.47 -409.189 1008.74 -410.177 994.666C-409.943 988.494 -398.46 990.836 -393.998 989.185C-389.092 988.15 -384.216 987.506 -379.265 987.066C-377.294 973.916 -358.823 976.66 -348.719 975.629C-294.566 973.417 -240.343 973.205 -186.15 972.468C-93.0646 971.084 12.2608 968.06 86.2889 1032.81C96.1621 1029.99 103.677 1039.39 109.991 1045.29C110.26 1045.2 110.532 1045.2 110.793 1045.26C118.219 1037.66 125.369 1029.81 132.038 1021.5C127.24 1000.56 124.293 979.147 118.307 958.509C103.949 958.1 86.82 957.508 74.412 965.548C68.9446 969.954 69.1266 978.391 62.2928 981.61C50.8815 987.706 39.9383 979.652 33.912 970.284C30.1251 970.161 26.409 970.613 22.6473 970.465C19.4231 970.286 18.4297 967.55 18.0116 964.636C15.7555 959.444 16.0651 953.749 16.1542 948.282C13.1383 948.464 8.40286 945.977 9.4198 942.585C-1.27543 941.02 -12.5494 941.234 -22.5499 936.77C-51.4427 919.048 -23.3339 877.407 2.83581 873.136C-11.2052 857.603 -19.0642 836.512 -16.9386 815.691C-32.9969 802.734 -14.1135 767.376 -10.0734 750.637C-3.49161 720.349 10.2973 692.391 23.8553 664.645C46.8159 620.249 61.5553 598.885 72.3055 550.336C77.9169 527.172 83.3339 503.947 89.4169 480.902C86.6033 459.771 85.2517 453.964 86.243 432.659C88.5359 357.174 125.356 311.856 212.795 324.085C223.871 323.341 229.783 315.945 233.04 306.145ZM1193.3 1515.75C1303.55 1255.57 1041.67 964.638 770.206 1091.87C771.541 1096.48 772.874 1101.09 774.262 1105.69C927.145 1027.91 1121.59 1110.68 1181.22 1267C1284.95 1511.77 1043.21 1786.88 784.85 1676.07C566.995 1583.7 536.91 1269.09 727.956 1133.55C726.473 1128.83 725.043 1124.09 723.665 1119.34C561.883 1230.48 541.361 1482.23 679.674 1619.59C834.805 1785.11 1113.13 1723.22 1193.3 1515.75ZM689.566 1182.11C643.149 1233.05 615.385 1300.26 611.363 1368.87C693.795 1379.32 778.664 1369.92 859.785 1390.13C862.079 1390.89 861.11 1393.97 858.805 1393.63C856.546 1393.29 854.299 1392.88 852.057 1392.45C845.072 1395.37 837.721 1397.46 830.533 1399.84C768.539 1420.32 706.604 1440.99 644.392 1460.83C636.67 1463.31 628.883 1466.1 620.972 1467.93C713.709 1793.45 1162.23 1746.61 1193.53 1413C1114.18 1417.07 1034.49 1414.93 955.488 1406.2C1015.37 1452.09 1077.63 1494.93 1138.85 1538.97C1139.95 1539.96 1138.54 1541.51 1137.33 1540.91C1073.21 1499.41 1011.89 1453.2 952.093 1405.79C945.465 1404.98 938.848 1404.07 932.257 1403.05C931.188 1405.07 929.857 1406.96 928.259 1408.58C954.605 1495.35 973.296 1584.79 982.492 1674.91C982.586 1676.29 980.281 1676.59 980.033 1675.23C967.164 1585.9 950.19 1497.17 926.891 1409.85C915.47 1418.18 899.234 1416.96 886.039 1414.02C894.058 1504.37 901.044 1594.94 906.436 1685.45C906.305 1687.45 903.167 1688.1 902.721 1685.95C895.124 1595.36 889.841 1504.46 884.855 1413.66C879.831 1412.11 874.267 1408.67 875.545 1403.13C870.931 1401.71 866.904 1398.6 864.542 1394.69C857.008 1405.84 849.395 1416.92 841.95 1428.11C851.831 1420.26 861.686 1412.34 871.861 1404.9C872.93 1404.11 874.193 1405.06 874.43 1406.14C863.94 1418.01 847.911 1426.51 835.841 1437.38C797.179 1496.37 763.686 1558.65 736.239 1623.45C735.097 1626.16 730.559 1625 731.696 1622.22C756.686 1560.12 788.358 1500.73 825.655 1444.94C775.143 1483.48 723.842 1524.19 673.313 1561.14C713.552 1528.95 754.057 1497.07 794.596 1465.26C806.866 1455.65 819.138 1446.04 831.403 1436.44C840.556 1423.08 850.123 1410 860.282 1397.41C796.206 1437.87 732.532 1479.85 666.969 1517.63C665.722 1517.9 665.073 1516.56 665.8 1515.65C729.946 1472.65 798.551 1434.53 863.73 1393.18C862.153 1389.88 861.681 1386.09 862.792 1382.2C862.276 1381.55 861.76 1380.92 861.247 1380.29C789.701 1340.18 712.553 1304.01 637.675 1274.35C707.443 1298.74 774.913 1329.26 839.66 1364.57C789.596 1303.8 738.615 1243.62 689.566 1182.11ZM-240.735 1056.04C-476.448 1110.93 -555.225 1417.89 -387.611 1584.78C-237.181 1743.78 33.1574 1685.2 111.544 1484.83C120.404 1463.38 126.837 1441.19 130.824 1418.46C124.956 1417.54 119.088 1416.63 113.215 1415.72C74.6928 1646.14 -208.492 1749.29 -375.687 1573.55C-531.977 1415.56 -460.985 1119.43 -238.35 1065.38C-239.408 1062.33 -240.232 1059.23 -240.735 1056.04ZM-251.921 1079.95C-455.767 1143.01 -514.034 1418.73 -368.054 1566.49C-226.248 1718.3 22.3836 1655.95 89.1083 1464.81C37.8909 1460.19 -13.5448 1455.12 -65.0724 1453.47C-70.6157 1453.23 -76.3688 1453.29 -81.8497 1452.4C-88.2331 1448.63 -76.4767 1443.01 -73.047 1446.64C-72.8899 1446.75 -72.8428 1446.91 -72.8741 1447.05C-29.2105 1447 14.3794 1449.86 57.7967 1454.28C63.4866 1454.87 69.1665 1455.54 74.8407 1456.26C80.1959 1457.32 86.1827 1456.76 91.0575 1459.34C96.1712 1444.59 100.105 1429.49 102.861 1414.12C12.6966 1399.92 -77.9689 1389.15 -168.19 1375.32C-186.727 1394.42 -218.395 1374.5 -210.005 1350.03C-220.306 1340.33 -211.885 1324.4 -200.988 1318.95C-195.639 1315.92 -189.739 1314.4 -183.745 1313.27C-206.742 1235.61 -230.661 1158.1 -251.921 1079.95ZM349.036 1400.18C316.219 1428.1 272.796 1456.51 227.643 1442.4C226.265 1445.11 222.671 1446.32 220.24 1448.08C211.934 1454.13 203.609 1460.18 195.279 1466.2C198.262 1468.98 200.622 1472.82 197.312 1476.31C190.632 1483.56 180.138 1481.95 171.115 1480.71C165.382 1482.53 158.724 1483.03 153.119 1480.41C150.135 1482.89 146.957 1486.05 146.876 1490.05C147.321 1489.64 147.428 1489.98 147.27 1490.4C193.967 1493.81 241.074 1497.27 287.811 1492.84C328.445 1490.88 342.548 1459.19 345.871 1423.68C346.809 1416.32 347.244 1407.96 349.036 1400.18ZM220.733 1439.8C214.116 1437.67 199.731 1428.4 193.767 1430.43C185.46 1435.52 177.594 1441.31 168.494 1445.03C161.42 1451.73 154.295 1460 152.348 1469.71C151.775 1474.55 156.099 1475.78 160.052 1475.43C160.721 1474.5 162.565 1474.16 163.662 1474.74C166.061 1474.03 168.357 1472.91 170.566 1471.81C188.493 1463.08 205.457 1452.51 220.733 1439.8ZM611.337 1369.29C609.326 1402.33 612.549 1435.99 620.883 1467.61C695.392 1440.57 771.103 1416.65 846.204 1391.24C768.994 1374.92 689.052 1382.22 611.337 1369.29ZM-159.645 1348.41C-161.177 1357.36 -160.036 1367.7 -167.388 1374.5C-45.5074 1385.39 75.8447 1403.11 196.375 1423.68C204.842 1425.85 212.512 1429.74 220.418 1433.31C268.94 1455.26 317.114 1420.22 352.535 1389.99C353.504 1388.03 354.657 1386.17 356.03 1384.47C337.936 1383.09 320.111 1384.96 302.153 1381.02C308.356 1387.56 294.997 1389.61 290.889 1391.57C279.822 1395.94 268.687 1400.14 257.495 1404.18C261.471 1440.53 226.543 1434.36 218.527 1406.32C216.065 1406.92 213.565 1407.11 211.02 1407C210.54 1407.6 209.772 1408.01 208.818 1407.87C195.432 1405.96 182.113 1403.44 168.768 1401.23C147.864 1398.04 127.064 1393.76 106.047 1391.49C106.062 1391.35 106.078 1391.2 106.089 1391.05C19.3947 1378.16 -67.1967 1363.18 -154.379 1354.3C-157.475 1354 -160.085 1351.69 -159.612 1348.39C-159.623 1348.4 -159.634 1348.4 -159.645 1348.41ZM127.089 956.111C142.159 1034.81 163.225 1112.19 177.964 1190.97C192.215 1261.98 206.304 1333.19 227.335 1402.62C229.389 1409.17 230.836 1416.25 236.022 1421.26C241.362 1425.31 247.968 1425.95 251.145 1419.61C252.4 1415.23 251.2 1410.87 250.358 1406.39C245.349 1382.24 242.504 1357.3 236.539 1333.54C213.884 1329.22 210.133 1325.66 211.516 1302.64C212.068 1293.36 212.612 1284 214.409 1274.87C215.556 1269.43 217.517 1264.09 219.984 1258.98C220.089 1255.8 220.298 1252.63 220.607 1249.48C213.524 1249.57 213.789 1239.25 211.606 1234.34C210.082 1229.21 208.552 1224.09 207.054 1218.96C181.944 1134.02 163.021 1047.13 154.03 959.183C145.045 958.225 136.064 957.178 127.089 956.111ZM952.806 1090.99C941.945 1172.99 930.998 1255.01 924.922 1337.53C960.867 1267.12 1000.52 1195.4 1048.07 1133.14C1006.27 1201.97 964.539 1270.93 928.82 1343.07C927.086 1346.51 925.45 1350.11 923.68 1353.65C923.358 1356.6 923.505 1359.76 922.753 1362.63C931.625 1369.23 936.362 1380.61 935.531 1391.42C940.881 1395.36 946.225 1399.32 951.564 1403.29C961.178 1404.2 970.787 1405.12 980.412 1405.93C1051.33 1412 1122.67 1413 1193.76 1409.72C1196.72 1366.21 1190.58 1322.1 1175.68 1281.62C1094.85 1305.88 1014.91 1333.08 936.092 1363.04C934.012 1363.7 932.603 1360.45 934.599 1359.54C1013.21 1328.77 1093.82 1302.79 1175.55 1281.26C1164.78 1251.95 1149.54 1224.3 1130.57 1199.88C1067.93 1255.22 1002.85 1308.76 934.044 1356.42C926.814 1356.43 941.144 1347.2 942.772 1345.78C1006.82 1298.98 1068.84 1249.55 1130.2 1199.4C1086.84 1143.32 1022.93 1103.33 952.806 1090.99ZM223.671 1404.2C223.869 1405.01 224.112 1405.83 224.387 1406.6C224.141 1405.81 223.903 1405.01 223.671 1404.2ZM894.874 1400.42C892.768 1402.24 890.216 1403.39 887.471 1403.95C888.163 1404.17 888.884 1404.36 889.588 1404.55C890.363 1402.9 892.85 1402.17 894.664 1401.62C894.664 1401.22 894.732 1400.8 894.874 1400.42ZM142.042 1069.3C118.082 1090.84 94.175 1112.44 70.3456 1134.13C96.3488 1162.83 117.039 1195.57 131.93 1231.63C153.133 1282.67 161.408 1339.2 156.204 1394.58C173.123 1397.24 190.067 1399.89 206.862 1403.13C210.481 1403.41 214.15 1403.12 217.601 1401.96C190.907 1291.52 165.044 1180.64 142.042 1069.3ZM935.469 1392.14C935.148 1395.38 934.334 1398.55 932.98 1401.55C938.214 1402.02 943.443 1402.52 948.672 1403.01C944.25 1399.41 939.849 1395.79 935.469 1392.14ZM256.959 1338.01C253.696 1338.09 243.112 1332.7 243.755 1338.66C243.985 1360.73 253.139 1381.23 257.266 1402.62C267.582 1396.89 277.975 1391.32 288.458 1385.89C292.665 1384.23 296.302 1379.98 301.069 1380.64C296.962 1379.09 293.529 1376.52 291.774 1372.18C290.753 1371.59 290.014 1370.49 289.982 1368.89C289.867 1362.38 290.07 1355.55 292.54 1349.5C289.796 1349.41 287.911 1346.11 289.297 1343.79C278.472 1342.12 267.684 1340.19 256.959 1338.01ZM924.157 1399.06C923.79 1399.6 923.402 1400.14 922.988 1400.67C923.093 1400.68 923.203 1400.69 923.313 1400.7C923.649 1400.27 923.958 1399.82 924.235 1399.36C924.209 1399.26 924.183 1399.16 924.157 1399.06ZM925.461 1396.96C925.262 1397.31 925.052 1397.66 924.832 1398.01C924.853 1398.07 924.869 1398.13 924.89 1398.19C925.094 1397.78 925.283 1397.37 925.461 1396.96ZM884.5 1397.81C899.106 1395.92 896.646 1372.01 872.664 1375.09C872.507 1375.22 872.349 1375.37 872.197 1375.51C873.627 1378.51 875.632 1381.07 877.337 1383.84C880.546 1389.32 872.333 1394.1 868.624 1388.89C868.839 1389.57 869.112 1390.22 869.436 1390.83C869.687 1390.62 869.893 1391.01 869.603 1391.12C872.435 1396.01 878.516 1397.93 884.112 1397.84C883.811 1393.97 884.254 1393.92 884.5 1397.81ZM906.987 1393.47C906.961 1393.94 906.992 1394.1 907.039 1394.1C907.123 1394.1 907.27 1393.55 907.16 1393.53C907.169 1393.53 907.106 1393.51 906.987 1393.47ZM117.983 1369.99C117.789 1376.13 117.417 1382.24 116.878 1388.32C122.73 1389.25 128.582 1390.18 134.434 1391.12C134.901 1385.81 135.242 1380.47 135.446 1375.1C129.599 1373.48 123.783 1371.77 117.983 1369.99ZM919.063 1383.33C919.782 1373.32 907.595 1366.25 898.635 1369.39C898.544 1369.5 898.244 1370.02 898.331 1370.21C900.023 1374.81 905.839 1378.69 907.185 1384.37C907.667 1386.43 907.505 1388.34 907.296 1390.35C910.892 1387.51 913.465 1380.92 919.063 1383.33ZM-33.0968 1318.33C-37.8593 1318.41 -42.6273 1318.53 -47.3898 1318.7C-78.1538 1319.31 -108.72 1323.37 -139.399 1325.09C-143.25 1328.56 -147.431 1331.94 -151.167 1335.64C-142.228 1331.24 -131.221 1328.94 -122.318 1334.41C-116.254 1337.71 -108.458 1348.93 -114.292 1355.23C-40.475 1364.17 33.0556 1375.21 106.503 1386.68C107.074 1380.08 107.435 1373.44 107.582 1366.76C68.3933 1354.4 29.5118 1341.06 -9.14661 1327.16C-17.142 1324.26 -25.1276 1321.31 -33.0968 1318.33ZM133.768 1029.81C130.611 1033.46 126.697 1036.62 123.176 1039.92C50.2556 1110.78 -20.8416 1183.46 -93.1329 1254.95C-122.14 1282.07 -147.547 1313.67 -179.229 1337.71C-182.063 1339.3 -185.118 1340.6 -188.276 1341.41C-193.821 1342.61 -200.541 1342.67 -203.827 1348.02C-214.68 1366.34 -192.072 1387.09 -174.33 1374.35C-174.592 1374.37 -175.223 1374.15 -174.733 1373.94C-169.976 1372.7 -166.867 1366.22 -165.984 1361.66C-174.462 1366.16 -178.681 1354.46 -182.709 1349.09C-184.914 1348.94 -187.166 1349.56 -189.54 1349.93C-198.238 1349.62 -191.855 1341.93 -183.431 1344.46C-179.283 1343.9 -175.084 1346.85 -171.747 1349.22C-169.602 1350.63 -166.894 1351.17 -165.155 1353.06C-165.051 1351.73 -164.919 1350.4 -164.699 1349.08C-168.383 1348.03 -170.546 1343.62 -169.19 1340.11C-168.682 1337.67 -166.236 1335.65 -163.631 1335.61C-163.778 1335.64 -163.919 1335.66 -164.061 1335.69C-163.841 1335.67 -162.536 1335.47 -162.603 1335.44C-161.293 1335.56 -159.567 1335.94 -158.915 1337.12C-60.2218 1244.77 41.5579 1155.44 140.848 1063.63C138.471 1052.36 136.116 1041.08 133.768 1029.81ZM322.892 1358.04C315.78 1347.16 303.739 1351.75 299.655 1362.57C295.168 1381.53 332.443 1378.29 322.892 1358.04ZM747.18 1005.39C743.713 1006.26 740.021 1005.79 736.465 1005.92C728.911 1006.04 721.434 1007.62 713.982 1008.48C715.415 1022.51 714.72 1036.7 717.372 1050.64C739.093 1168.67 793.03 1279.97 869.085 1373.42C869.101 1373.42 869.117 1373.42 869.138 1373.42C867.619 1366.7 878.929 1367.16 883.179 1368.12C881.392 1365.33 887.121 1362.41 888.89 1360.91C824.281 1280.57 753.436 1116.46 748.72 1014.21C748.72 1013.45 749.904 1013.27 750.066 1014.03C754.263 1033.19 759.135 1052.24 764.364 1071.19C809.115 1050.34 857.629 1040 907.162 1040.69C909.634 1039.53 911.963 1038.4 913.871 1036.56C915.609 1035.72 917.098 1035.55 918.822 1035.09C926.036 1030.86 935.198 1029.55 940.98 1023.34C900.892 1019.74 860.137 1023.25 821.302 1033.68C807.241 1038.45 793.137 1043.08 778.809 1047.03C780.182 1049.17 780.568 1052.22 782.608 1053.74C785.333 1056.05 783.106 1059.98 780.203 1060.84C775.357 1062.27 773.444 1057.45 772.438 1053.87C770.189 1045.86 767.547 1037.85 763.479 1030.54C758.657 1021.78 755.772 1011.41 747.18 1005.39ZM731.305 1143.98C716.463 1155.13 702.38 1167.99 689.766 1181.9C738.752 1237.49 786.018 1294.78 833.891 1351.39C839.01 1357.47 844.434 1363.41 849.181 1369.78C851.209 1370.9 853.244 1372 855.306 1373.06C799.873 1305.22 759.025 1226.46 731.305 1143.98ZM379.241 1358.35C379.671 1359.27 379.886 1360.28 379.834 1361.27C381.23 1362.55 382.015 1364.55 381.735 1366.49C382.749 1368.08 383.096 1370.04 382.584 1371.79C389.715 1371.94 396.851 1371.88 403.998 1371.57C403.993 1369.95 403.988 1368.33 404.009 1366.7C404.035 1365.06 404.354 1362.67 404.322 1360.66C395.971 1359.81 387.613 1358.97 379.241 1358.35ZM889.691 1364.47C888.063 1365.3 884.544 1365.6 884.573 1367.73C885.182 1367.63 884.658 1368.34 884.358 1368.37C885.663 1368.67 886.951 1369.1 888.198 1369.63C888.229 1367.9 888.855 1365.92 889.691 1364.47ZM44.3368 1157.82C93.1168 1214.45 119.267 1288.87 118.119 1363.63C123.94 1365.39 129.776 1367.09 135.634 1368.71C137.487 1288.38 108.315 1208.44 54.1874 1148.83C50.9023 1151.83 47.6167 1154.82 44.3368 1157.82ZM908.48 1086.61C887.103 1086.18 865.736 1088.12 845.078 1092.4C856.94 1172.17 870.528 1251.68 885.416 1330.93C885.563 1332.39 883.3 1332.56 882.905 1331.26C866.52 1252.39 853.352 1172.65 843.847 1092.66C832.943 1094.97 822.186 1097.92 811.598 1101.52C816.242 1110.66 820.467 1119.91 824.445 1129.34C826.099 1132.63 831.289 1147.12 822.821 1143.12C819.903 1140.02 818.173 1135.9 816.732 1131.97C813.191 1122.42 810.107 1112.78 807.595 1102.91C797.32 1106.57 787.128 1110.88 777.332 1115.71C802.635 1202.43 847.042 1281.66 894.108 1358.34C900.729 1355.91 908.375 1356.01 914.945 1358.44C920.053 1349.09 919.758 1344.37 920.393 1334.13C927.309 1252.68 935.487 1171.03 951.39 1090.73C946.308 1089.85 941.2 1089.11 936.06 1088.51C934.877 1093.62 933.496 1098.97 933.105 1104.27C933.032 1105.07 932.545 1106.02 931.633 1106.17C921.743 1106.76 926.979 1092.87 928.825 1087.75C922.318 1087.15 915.773 1086.78 909.192 1086.63C902.771 1173.85 899.7 1261.21 898.787 1348.62C898.708 1350.11 896.514 1350.11 896.428 1348.62C895.073 1261.24 899.435 1173.55 908.48 1086.61ZM227.138 1309.63C223.804 1309.61 219.411 1309.21 217.593 1311.94C217.547 1318.2 219.056 1323.32 226.114 1324.23C271.802 1335.49 318.505 1342.46 365.546 1344.4C389.85 1345.33 414.479 1345.59 438.74 1343.54C458.887 1342.79 460.415 1328.39 443.983 1318.66C441.376 1320.24 437.741 1320.03 434.987 1320.28C433.598 1324.59 413.926 1320.96 408.86 1321.45C348.113 1320.07 287.76 1310.89 227.138 1309.63ZM-234.311 1075.01C-239.927 1076.38 -245.507 1077.93 -251.034 1079.67C-226.218 1156.9 -203.869 1234.99 -180.879 1312.75C-173.979 1311.55 -166.691 1310.35 -161.121 1305.87C-158.109 1303.44 -153.812 1307.46 -156.416 1310.01C-170.742 1322.2 -194.796 1315.15 -206.049 1331.75C-208.47 1335.64 -209.36 1340.62 -206.756 1344.28C-203.292 1339.7 -197.547 1338.39 -192.117 1337.65C-176.561 1334.83 -166.137 1321.25 -155.494 1310.9C-144.311 1299.81 -133.133 1288.7 -121.956 1277.59C-138.082 1276.13 -164.645 1209.44 -174.807 1193.29C-166.81 1228.31 -157.276 1263.09 -151.202 1298.5C-150.946 1300.67 -151.129 1302.83 -150.93 1305C-150.905 1305.24 -151.242 1305.25 -151.319 1305.06C-166.738 1264.29 -173.049 1220.57 -184.599 1178.61C-186.624 1164.87 -196.323 1153.16 -201.591 1140.19C-212.373 1118.32 -222.502 1096.42 -234.311 1075.01ZM240.332 1334.4C240.48 1334.65 240.617 1334.9 240.754 1335.15C240.859 1334.95 240.979 1334.76 241.11 1334.58C240.851 1334.52 240.591 1334.46 240.332 1334.4ZM-137.444 1323.32C-107.243 1316.76 -76.0847 1315.2 -45.299 1313.74C-64.3225 1306.37 -83.5716 1299.35 -102.324 1291.4C-114.029 1302.04 -125.74 1312.68 -137.444 1323.32ZM358.41 1265.28C347.546 1258.73 335.404 1250.42 322.2 1251.61C320.403 1252.87 318.218 1252.78 316.19 1252.17C308.365 1253.81 301.291 1257.8 294.819 1262.31C282.07 1270.05 273.092 1284.71 257.833 1287.72C244.878 1289.47 227.974 1276.23 224.956 1264.53C224.668 1264.48 224.38 1264.42 224.098 1264.33C220.071 1277.32 220.198 1290.93 220.571 1304.31C278.133 1307.96 335.595 1313.98 393.267 1316.36C404.011 1316.89 414.754 1317.37 425.501 1317.79C430.557 1318.04 435.51 1317.96 440.261 1316.17C439.137 1315.35 437.66 1314.65 437.431 1313.21C421.161 1303.35 404.897 1293.49 388.635 1283.63C381.879 1285.09 372.854 1282.62 368.485 1289.02C368.606 1289.76 368.333 1290.57 367.626 1290.92C366.194 1292.47 362.839 1291.93 362.737 1289.07C362.957 1282.38 373.206 1278.9 378.76 1277.63C374.447 1275.02 370.137 1272.4 365.826 1269.79C360.562 1270.96 355.391 1272.53 350.33 1274.37C348.174 1275.15 345.443 1277.01 343.108 1276.51C342.961 1276.67 342.833 1276.84 342.728 1277.02C343.197 1277.22 343.656 1277.43 343.907 1277.49C346.018 1278.08 345.489 1281.05 343.404 1281.15C340.156 1281.31 334.906 1280.43 335.995 1275.93C338.91 1269.38 351.758 1266.75 358.41 1265.28ZM220.424 1305.64C220.372 1306.03 220.307 1306.42 220.234 1306.81C221.68 1306.55 223.168 1306.5 224.656 1306.51C223.181 1306.33 221.724 1306.08 220.424 1305.64ZM693.407 966.625C595.487 1072.86 479.166 1163.68 388.955 1276.42C388.756 1276.67 388.541 1276.91 388.31 1277.12C389.752 1277.1 401.783 1278.54 395.497 1278.8C397.302 1279.25 398.555 1281.54 396.713 1282.61C399.692 1284.41 402.671 1286.21 405.65 1288.01C406.565 1282.03 415.908 1276.27 419.812 1271.24C476.055 1216.25 530.673 1159.61 586.371 1104.03C624.268 1066.01 662.458 1028.27 700.884 990.784C698.502 982.694 695.895 974.692 693.407 966.625ZM383.359 1280.43C382.864 1280.55 382.371 1280.68 381.882 1280.82C382.471 1280.75 383.061 1280.68 383.65 1280.61C383.553 1280.55 383.457 1280.49 383.359 1280.43ZM314.629 1229.07C276.696 1229.05 252.233 1232.5 228.196 1263.93C228.669 1265.31 231.28 1265.32 230.458 1266.55C239.549 1278.15 256.659 1286.06 268.992 1274.5C282.234 1263.78 296.429 1253.14 312.941 1247.94C311.776 1241.65 312.197 1235 314.629 1229.07ZM672.643 898.327C610.659 936.684 544.322 968.905 477.884 999.307C497.173 1016.74 487.998 1044.21 476.181 1063.19C459.907 1092.39 443.368 1121.44 426.958 1150.57C407.854 1182.29 391.604 1215.48 374.159 1248.07C370.945 1252.91 367.751 1261.29 360.83 1260.84C365.297 1264.58 370.496 1265.17 376.125 1264.03C378.356 1263.77 378.773 1267.37 376.648 1267.84C375.559 1268.08 374.469 1268.29 373.378 1268.5C375.985 1270.08 378.593 1271.65 381.201 1273.23C381.295 1272.85 381.463 1272.49 381.709 1272.16C474.216 1159.71 586.511 1064.42 692.925 965.062C685.655 942.964 677.877 920.996 672.643 898.327ZM287.31 1081.59C256.251 1096 225.065 1111.21 193.77 1124.57C193.833 1124.52 193.901 1124.61 193.87 1124.66C193.419 1125.54 192.55 1125.03 192.225 1124.31C201.37 1163.02 210.53 1201.76 221.822 1239.93C230.871 1182.8 267.538 1135.06 287.31 1081.59ZM-170.94 1047.88C-193.956 1047.88 -216.586 1050.45 -238.644 1055.55C-237.837 1058.69 -236.716 1061.71 -235.385 1064.65C-144.548 1042.41 -44.9969 1070.23 22.0751 1134.52C24.1494 1132.46 26.2304 1130.4 28.3094 1128.33C28.5039 1127.12 29.6761 1126.13 30.3153 1125.08C-24.4204 1075.88 -96.7798 1047.61 -170.94 1047.88ZM298.244 1044.27C262.581 1065.61 225.336 1084.5 188.709 1104.11C188.363 1104.22 188.001 1104.24 187.65 1104.18C189.096 1110.72 190.579 1117.25 192.099 1123.77C192.177 1122.16 194.949 1121.2 196.05 1120.54C207.947 1113.76 220.286 1107.76 232.563 1101.68C251.762 1092.24 270.885 1082.67 290.181 1073.45C293.405 1063.88 295.878 1054.1 298.244 1044.27ZM46.9247 1034.56C45.1632 1035.62 42.3952 1036.19 40.0868 1036.8C39.5644 1037.74 38.5897 1038.43 37.1493 1038.41C-5.97008 1037.59 -49.0878 1036.76 -92.2072 1035.91C-41.3581 1048.71 5.90843 1073.97 44.9159 1108.87C59.4248 1093.62 75.1079 1079.5 90.4667 1065.07C88.5308 1061.51 84.7914 1058.72 83.8973 1054.67C83.803 1054.22 83.7591 1053.57 83.7889 1052.86C71.3595 1047.08 59.1482 1040.78 46.9247 1034.56ZM191.749 959.427C186.971 960.855 181.757 961.268 176.712 961.18C172.03 962.102 167.269 962.709 162.509 962.947C163.578 967.819 163.593 972.643 164.991 977.331C167.745 1018.13 178.213 1058.23 186.363 1098.33C199.267 1090.77 213.602 1085.95 226.528 1078.33C213.99 1084.55 201.431 1090.72 188.72 1096.53C224.666 1076.41 262.637 1058.93 299.314 1039.83C300.263 1035.83 301.211 1031.83 302.196 1027.84C298.387 1027.36 295.008 1026.07 291.744 1023.99C257.023 1004.48 223.759 983.004 191.749 959.427ZM84.3514 1037.77C8.14197 976.548 -95.8076 976.03 -190.32 978.842C-239.993 979.218 -289.675 979.888 -339.341 980.861C-347.536 982.138 -374.405 977.88 -377.032 986.803C-370.289 986.664 -370.92 994.077 -370.86 998.88C-356.32 997.315 -341.67 996.487 -327.038 996.116C-230.725 993.866 -134.207 991.616 -37.9113 994.667C-25.9916 995.719 -14.6269 998.261 -3.52454 1002.17C3.03516 1003.95 9.46397 1006.18 15.6884 1008.93C26.1289 1013.4 35.0707 1020.45 45.4589 1025.03C59.7572 1032.19 74.2596 1039.06 88.3221 1046.67C90.9785 1048.1 90.6088 1050.93 88.9296 1052.49C90.1959 1054.63 91.9446 1056.44 93.5536 1058.33C97.231 1055.32 101.162 1052.6 104.709 1049.42C100.244 1045.56 91.9432 1033.74 85.326 1037.71C84.9909 1037.95 84.6395 1037.93 84.3514 1037.77ZM-389.251 1035.75C-390.011 1035.98 -390.812 1036.06 -391.598 1036.02C-390.456 1037.19 -389.057 1038.07 -387.333 1038.51C-386.673 1038.68 -386.002 1038.79 -385.321 1038.85C-386.85 1038.4 -388.312 1037.23 -389.251 1035.75ZM-377.442 1034.73C-378.073 1036.74 -379.428 1038.09 -381.015 1038.72C-379.553 1038.52 -378.085 1038.17 -376.66 1037.76C-376.938 1036.76 -377.195 1035.75 -377.442 1034.73ZM-33.8185 1004.15C-119.008 1000.61 -204.523 1005.79 -289.791 1006.12C-291.625 1009.68 -290.98 1014 -288.822 1017.44C-280.478 1030.61 -255.051 1025.27 -241.111 1026.7C-217.648 1027.54 -194.417 1027.11 -170.94 1026.22C-101.573 1030.03 -32.2312 1030.08 37.2372 1031.5C37.4357 1031.2 37.6912 1030.93 38.0018 1030.7C15.988 1017.88 -7.79501 1005.57 -33.8185 1004.15ZM708.158 863.291C719.659 907.951 735.051 951.637 747.394 996.126C750.415 997.485 750.911 1002.05 748.776 1004.33C757.496 1006.56 761.138 1017.04 765.843 1023.91C809.6 984.68 851.688 940.847 871.59 884.827C823.194 893.753 771.832 883.768 725.342 869.661C719.544 867.744 713.792 865.651 708.158 863.291ZM444.721 1009.52C444.671 1009.63 444.621 1009.74 444.571 1009.86C444.956 1009.65 445.349 1009.44 445.736 1009.23C445.399 1009.33 445.054 1009.42 444.721 1009.52ZM667.583 862.854C663.139 861.867 658.742 861.308 654.217 862.396C616.053 888.856 574.141 909.646 533.632 932.344C509.477 945.851 485.175 959.134 461.477 973.416C454.176 983.013 451.32 996.694 445.53 1007.65C461.301 1001.39 477.309 995.179 491.759 986.261C495.667 985.453 514.419 971.509 515.363 974.644C551.886 956.632 587.839 937.547 623.477 917.9C630.912 913.816 638.326 909.702 645.719 905.545C651.594 903.008 665.948 891.594 671.339 893.129C669.827 887.539 669.132 881.86 667.991 876.205C667.114 871.922 666.306 867.161 667.583 862.854ZM-397.634 995.503C-398.865 995.977 -400.091 996.467 -401.322 996.972C-400.573 1000.13 -399.997 1003.34 -399.468 1006.54C-399.4 1005.51 -399.306 1004.48 -399.191 1003.45C-398.918 1001.07 -398.813 997.725 -397.634 995.503ZM702.605 860.849C696.92 857.844 692.852 855.514 686.162 857.271C682.288 858.052 679.04 859.857 678.349 863.817C678.247 864.406 677.872 864.717 677.42 864.822C685.266 890.386 693.056 916.057 697.683 942.457C700.243 959.307 706.282 975.248 710.834 991.609C711.939 995.807 712.793 1000.02 713.427 1004.25C721.569 998.83 731.429 996.384 741.139 995.564C729.114 950.838 713.728 906.262 702.58 861.678C702.56 861.405 702.574 861.127 702.605 860.849ZM21.0575 945.436C22.24 950.452 22.7292 955.828 25.3807 960.422C34.4853 957.644 40.2236 962.118 45.0653 969.245C48.7172 973.458 56.6915 976.912 59.8514 970.292C62.4229 963.469 66.7065 957.284 73.7567 954.362C74.4273 954.048 75.1088 953.754 75.7899 953.475C57.3073 952.282 39.1 949.627 21.0575 945.436ZM506.276 662.325C511.937 671.903 500.751 673.802 493.43 673.855C479.005 675.457 464.646 677.465 450.22 679.008C450.991 687.53 442.511 691.542 435.476 693.636C423.824 697.953 412.171 702.269 400.514 706.584C392.801 710.008 383.73 712.296 376.197 707.198C370.934 709.927 365.134 713.933 358.965 711.989C360.277 729.351 360.268 746.762 359.986 764.158C359.96 766.457 357.995 768.505 355.611 768.464C342.841 768.242 330.067 767.294 317.442 765.348C321.954 774.826 330.782 781.177 338.07 788.254C341.535 791.807 346.618 794.567 348.345 799.336C395.802 811.315 443.131 828.154 483.892 855.331C502.352 867.912 495.731 889.042 487.98 905.881C480.081 925.754 471.986 945.549 463.701 965.269C524.82 929.241 587.751 896.219 650.015 862.174C643.33 860.879 640.17 853.976 639.307 847.931C631.899 805.732 636.196 784.691 660.824 749.528C659.168 740.959 657.517 732.393 655.883 723.818C647.335 724.565 638.248 722.624 629.75 721.919C617.827 722.795 605.159 726.457 593.56 722.255C583.334 732.196 524.331 714.305 509.572 709.657C489.515 702.995 468.619 698.032 451.02 685.828C448.208 684.015 450.836 679.552 453.664 681.376C459.948 685.427 466.531 689.014 473.373 692.044C506.339 704.293 541.126 710.255 575.428 717.698C580.216 718.091 585.926 721.703 590.114 718.259C593.821 715.079 597.422 711.771 601.068 708.523C576.189 681.557 543.536 664.734 506.276 662.325ZM704.894 866.302C704.796 865.778 704.708 865.252 704.625 864.724C704.456 864.636 704.299 864.541 704.152 864.438C704.401 865.059 704.648 865.681 704.894 866.302ZM681.476 853.15C681.259 853.597 681.028 854.036 680.788 854.471C681.168 854.271 681.554 854.086 681.945 853.918C681.779 853.666 681.62 853.411 681.476 853.15ZM661.882 755C653.696 771.706 643.891 788.038 644.089 807.179C643.764 818.539 645.215 829.93 646.823 841.156C647.331 844.704 647.426 850.138 650.119 852.914C653.882 855.619 659.142 851.923 663.527 853.32C665.497 853.656 667.98 855.042 669.914 854.048C675.043 850.218 675.455 842.975 677.904 837.511C675.932 827.288 673.934 817.065 671.952 806.849C668.594 789.565 665.224 772.285 661.882 755ZM90.4862 488.44C84.6678 536.951 73.6823 564.569 58.7421 611.147C39.8566 664.741 8.16113 707.621 -4.10071 763.492C-3.44583 763.255 -2.62924 764.091 -3.04309 764.787C-5.41641 768.783 -7.29691 773.011 -8.69055 777.384C-11.5356 786.31 -12.3586 795.83 -11.2531 805.158C55.4216 763.432 137.682 752.98 214.498 767.54C233.8 770.293 253.441 771.727 272.839 769.088C269.153 748.332 272.046 726.891 273.578 706.012C274.376 694.189 275.707 681.418 283.983 672.138C241.418 664.556 198.92 650.901 162.58 627.406C107.813 591.418 102.238 546.819 90.4862 488.44ZM885.105 652.224C885.744 650.331 882.709 649.518 882.072 651.401C868.125 697.299 856.306 743.98 846.049 790.805C844.098 797.26 849.288 796.918 848.834 793.646C858.551 746.047 871.443 698.881 885.105 652.224ZM290.396 674.413C285.144 685.466 285.589 698.019 285.11 709.947C284.486 724.424 283.323 738.912 284.036 753.411C283.676 759.274 287.959 769.401 281.631 772.873C280.724 777.614 264.304 777.88 259.85 778.586C283.522 780.655 305.928 789.001 328.875 794.519C320.877 786.854 313.198 776.54 315.038 764.978C298.062 762.684 293.966 760.849 293.974 743.067C292.903 721.232 293.859 698.148 302.394 677.739C298.348 676.577 294.511 675.528 290.396 674.413ZM318.772 672.546C316.341 675.81 313.198 678.316 308.629 678.517C307.497 678.569 306.371 678.486 305.255 678.321C304.065 703.056 300.959 728.271 305.69 752.808C320.764 756.089 336.048 758.471 351.451 759.569C352.085 741.376 351.313 723.157 349.911 705.017C345.475 699.679 342.303 690.771 350.266 686.809C340.858 679.963 329.934 675.702 318.772 672.546ZM605.011 711.957C602.748 713.969 600.517 716.189 598.212 718.309C604.45 719.671 610.929 718.842 617.249 718.174C612.982 716.506 608.951 714.393 605.219 711.753C605.155 711.822 605.086 711.89 605.011 711.957ZM634.265 695.787C598.933 669.373 560.521 639.475 513.684 641.405C508.686 641.327 503.473 641.323 498.465 641.88C499.067 648.155 501.365 654.27 504.673 659.659C545.614 652.98 581.783 676.383 608.964 704.114C621.818 713.744 638.691 714.96 654.269 715.417C653.641 712.137 653.001 708.853 652.362 705.563C644.96 706.08 640.101 699.29 634.265 695.787ZM337.432 629.276C332.251 643.176 327.676 657.493 320.235 670.381C340.744 667.114 358.543 682.639 373.175 694.694C373.353 694.616 373.53 694.541 373.709 694.468C375.467 696.446 377.896 697.501 380.149 698.676C380.181 700.342 382.636 700.412 383.793 701.137C383.713 701.268 383.639 701.404 383.554 701.532C387.598 702.671 391.397 701.176 395.385 699.759C410.501 693.964 426.356 689.599 441.087 683.034C446.816 678.408 437.251 671.186 441.711 667.302C433.035 658.5 427.295 643.199 413.015 642.916C413.314 643.072 413.609 643.235 413.897 643.405C405.197 640.407 396.214 644.169 387.519 643.812C369.682 642.363 354.764 632.142 337.432 629.276ZM354.893 690.238C354.64 694.542 358.707 697.497 361.783 699.896C361.982 700.026 362.187 700.15 362.396 700.268C363.376 699.897 364.366 699.423 365.367 698.891C361.904 695.963 358.467 693.013 354.893 690.238ZM490.448 638.023C490.092 639.169 489.245 640.214 488.284 640.844C489.728 643.918 491.874 647.884 487.529 649.502C473.162 654.778 457.485 653.781 442.648 657.138C444.967 660.295 453.925 666.395 447.553 669.576C447.794 670.097 448.025 670.628 448.25 671.17C465.308 669.007 482.485 667.521 499.585 665.586C493.858 657.507 490.823 647.843 490.448 638.023ZM222.048 326.612C217.631 329.066 212.418 330.144 207.132 330.553C151.956 326.639 116.434 333.74 103.459 384.773C85.4976 458.153 102.838 527.013 137.147 594.05C169.591 640.111 231.157 651.194 284.287 661.933C288.285 658.716 302.933 667.298 308.515 666.888C308.834 666.533 309.154 666.095 309.505 665.791C308.169 666.962 309.468 665.821 309.877 665.223C313.075 660.544 315.391 655.232 317.626 650.058C317.631 650.047 317.641 650.018 317.652 650.001C317.653 649.984 317.661 649.967 317.673 649.95C322.77 637.973 326.794 631.269 331.892 619.294C229.199 597.19 149.089 523.794 177.408 420.971C177.55 420.565 178.178 420.621 178.183 421.075C178.241 432.816 177.665 444.542 178.41 456.283C181.839 530.75 226.939 566.187 297.155 596.347C278.921 484.477 208.097 443.132 222.048 326.612ZM322.47 339.911C334.576 448.347 322.967 495.42 316.273 603.788C324.628 606.564 333.176 608.809 341.852 610.471C346.673 611.399 346.741 617.99 343.445 620.263C342.848 621.343 342.237 616.916 341.779 618.046C341.79 618.01 341.816 617.953 341.848 617.866C340.931 620.028 340.091 622.219 339.252 624.41C353.915 627.661 367.789 634.402 382.479 636.893C376.813 632.326 371.128 627.608 366.571 621.929C363.693 617.919 361.514 619.458 357.391 616.486C357.152 621.805 356.866 621.456 357.062 626.751C357.161 629.478 353.123 629.349 352.841 626.751C349.769 607.09 346.852 593.02 347.099 573.05C347.249 503.322 345.469 467.804 361.794 399.635C361.92 399.32 362.328 399.387 362.37 399.712C363.025 404.739 362.658 409.798 362.481 414.851C358.187 481.898 353.327 512.956 356.957 580.161C358.522 590.368 354.383 607.018 362.376 614.233C373.122 626.045 387.139 628.772 401.068 636.801C402.938 638.251 405.304 637.092 407.471 636.914C411.332 636.248 415.099 635.842 418.961 636.764C428.311 639.026 434.783 646.809 440.249 654.091C452.642 646.796 468.228 648.758 481.567 643.999C481.07 642.782 480.66 641.529 480.398 640.266C378.502 589.099 380.437 557.786 388.568 458.363C389.23 426.406 390.428 414.724 387.378 382.901C384.541 368.8 369.317 368.813 358.87 360.94C349.101 353.66 338.635 347.237 327.362 342.43C325.757 341.62 324.107 340.791 322.47 339.911ZM548.107 622.533C544.086 613.816 530.136 618.08 523.267 621.022C521.78 621.878 520.585 622.827 519.71 624.1C521.722 624.781 523.12 626.828 523.099 628.829C531.659 630.173 540.374 630.84 549.046 630.675C549.328 628.075 549.249 625.853 548.516 623.673C548.516 623.674 548.078 622.539 548.107 622.533ZM225.637 346.887C229.369 453.361 284.72 486.152 305.045 589.113C313.878 488.685 318.818 450.038 319.889 349.224C302.494 378.557 253.364 376.202 230.907 353.669C228.932 351.611 227.146 349.322 225.637 346.887Z" fill="black"/>
</g>
<defs>
<clipPath id="clip0_7_12930">
<rect width="1241" height="1210" fill="white"/>
</clipPath>
</defs>
</svg>
