<svg width="1241" height="1210" viewBox="0 0 1241 1210" fill="none" xmlns="http://www.w3.org/2000/svg">
<g clip-path="url(#clip0_7_13119)">
<rect width="1241" height="1210" fill="white"/>
<path fill-rule="evenodd" clip-rule="evenodd" d="M515.529 1044.63C517.195 1062 513.79 1078.58 505.678 1092.6L503.039 1097.17L508.062 1098.92C517.204 1102.12 527.369 1103.67 539.141 1103.67C551.255 1103.67 563.853 1101.99 573.976 1100.63L580.456 1099.76L577.273 1094.14C574.713 1089.61 574.239 1084.13 573.737 1078.33C573.601 1076.77 573.462 1075.16 573.279 1073.56C563.688 987.865 551.564 901.046 539.839 817.086C536.753 794.993 533.563 772.147 530.468 749.675L521.59 750.017C519.202 791.613 516.884 833.912 514.643 874.819C513.657 892.807 512.671 910.795 511.677 928.781C508.135 974.254 509.358 1011.07 515.529 1044.63M519.153 1558.54C506.114 1558.54 493.051 1557.18 480.327 1554.5C440.508 1546.15 404.333 1526.43 373.552 1508.61C371.98 1507.72 370.385 1506.83 368.748 1505.92C356.697 1499.18 341.7 1490.79 332.301 1480.56C321.99 1469.34 320.215 1458.15 326.717 1445.37L327.746 1443.34L326.671 1441.34C319.939 1428.82 320.439 1413.32 327.888 1403.66L334.148 1395.54L323.856 1396.63C313.478 1397.73 303.019 1399.22 292.903 1400.66C281.679 1402.27 270.072 1403.92 258.642 1405.03L255.465 1405.34L254.734 1408.4C254.327 1410.1 253.825 1411.13 250.299 1411.13C247.241 1411.13 243.132 1410.24 238.783 1409.29C233.385 1408.12 227.266 1406.78 221.366 1406.78C218.771 1406.78 216.437 1407.03 214.23 1407.54L212.945 1407.84L212.031 1408.77C211.446 1409.37 210.451 1409.74 209.434 1409.74C208.665 1409.74 207.952 1409.53 207.475 1409.15L206.034 1408.03L204.205 1408.23C172.338 1411.73 144.859 1417.86 120.202 1426.99L120.09 1427.03L119.556 1427.26C110.64 1431.11 101.422 1435.09 93.0262 1435.09C86.8891 1435.09 81.9056 1433 77.3416 1428.52L76.0518 1427.26L74.2325 1427.24C55.7727 1427.07 47.3379 1405.55 46.1716 1391.13L46.0251 1389.31L44.6178 1388.13C12.4466 1361.14 -6.54572 1324.08 -13.4468 1274.82C-19.7319 1229.95 -14.9061 1182.64 -9.35657 1142.27C3.4808 1037.68 16.8701 943.909 50.9052 854.977L52.4954 850.82L48.258 849.298C33.5581 844.018 22.3237 837.718 13.9119 830.038L13.3295 829.505L12.5961 829.204C0.540524 824.253 -5.36382 805.976 -6.88639 800.493L-7.00837 800.051L-7.2211 799.643C-9.68087 794.927 -10.2484 788.365 -8.77715 781.642L-8.61946 780.917L-8.71095 780.181C-9.50533 773.797 -6.86854 767.123 -4.07703 760.056C-2.8014 756.828 -1.48337 753.491 -0.520144 750.168C2.79128 740.67 6.09899 731.004 9.29885 721.655C16.4781 700.679 23.9005 678.99 31.8079 657.891L32.8894 655.006L30.507 653.017C26.4399 649.621 27.7981 645.623 33.663 636.065C35.0487 633.808 36.3593 631.672 37.356 629.567C44.8737 616.581 52.9306 604.116 61.3073 592.513L61.4799 592.275L61.6175 592.017C104.601 511.768 180.847 467.574 276.308 467.574L278.254 467.578L279.329 466.931C297.221 456.176 309.993 437.722 318.374 410.516L318.642 409.649L318.539 408.748C318.252 406.24 317.937 402.952 318.045 399.762C318.318 391.683 321.486 384.474 326.736 379.982C336.696 371.46 351.817 370.746 366.451 370.746L368.552 370.75C387.263 370.803 400.472 374.051 410.124 380.971C421.337 389.011 427.535 401.99 429.071 420.649C429.53 426.232 429.514 432.016 429.5 437.61L429.496 439.171L429.684 439.791C431.029 444.225 432.605 448.486 434.366 452.457L436.178 456.541L440.299 454.7C442.964 453.509 446.342 452.897 450.629 452.828C451.866 452.8 453.071 452.786 454.287 452.786C464.242 452.786 474.89 453.695 485.189 454.573C492.948 455.235 500.972 455.92 508.739 456.224L508.846 456.229C508.846 456.229 509.918 456.222 510.399 456.222C529.276 456.222 542.961 459.189 553.464 465.562C564.774 472.422 572.906 483.433 579.055 500.213C612.037 596.396 625.597 699.998 637.557 791.401C644.341 839.2 646.405 888.202 648.4 935.59C650.507 985.608 652.685 1037.33 660.398 1087.89L661.007 1091.89L665.102 1091.62C683.126 1090.46 702.602 1087.95 723.222 1085.3C754.551 1081.27 786.947 1077.11 818.264 1077.11C862.052 1077.11 895.253 1085.72 919.747 1103.44C936.823 1119.52 945.657 1141.3 945.294 1166.43C944.781 1201.95 925.99 1241.21 897.423 1266.46L897.315 1266.56C861.206 1300.66 795.292 1330.24 701.407 1354.47C615.073 1376.75 525.772 1388.86 480.223 1394.09L468.95 1395.39L478.1 1402C481.804 1404.68 485.183 1407.04 488.431 1409.21L490.526 1410.61L492.822 1409.56C499.367 1406.55 503.524 1405.92 505.861 1405.92C507.934 1405.92 510.434 1406.37 510.572 1408.52C510.662 1409.92 509.662 1412.01 507.552 1412.27L496.347 1413.67L505.496 1420.19C511.607 1424.55 520.725 1429.8 531.283 1435.88C565.825 1455.78 618.025 1485.84 609.048 1512.25L608.458 1513.98L609.293 1515.62C611.705 1520.34 611.911 1524.73 609.921 1529.03C605.659 1538.24 592.326 1545.24 581.003 1548.08L580.809 1548.13L580.619 1548.2C560.917 1555.06 540.236 1558.54 519.153 1558.54" fill="white"/>
<path fill-rule="evenodd" clip-rule="evenodd" d="M481.25 1388.92C482.611 1387.54 483.184 1385.72 481.912 1383.59C476.995 1377.31 466.797 1381.61 460.453 1383.05C458.057 1381.06 455.678 1379.06 453.387 1376.95C454.183 1372.02 448.247 1368.74 445.807 1364.93C443.412 1362.12 441.159 1358.94 438.287 1356.59C431.288 1351.13 421.589 1354.82 413.467 1354.57C407.211 1346.62 400.77 1338.91 394.82 1330.7C401.677 1319.17 402.161 1305.68 399.885 1292.84C505.081 1252.94 596.138 1177.39 709.911 1159.93C713.823 1159.28 716.018 1154.52 715.043 1151.04C707.106 1132.1 593.058 1180.95 576.01 1189.8C525.73 1213.87 478.631 1243.87 429.764 1270.34C419.573 1275.75 408.364 1278.66 397.222 1281.47C380.1 1225.29 351.135 1173.8 328.926 1119.64C330.368 1117.14 331.596 1114.52 332.637 1111.82C331.901 1141.61 360.88 1141.19 364.881 1112.94C363.23 1127.66 374.372 1159.21 390.453 1138.51C394.224 1133.31 395.563 1126.65 396.202 1119.94C397.029 1124.58 397.966 1129.2 399.007 1133.81C403.135 1142.94 414.404 1131.84 417.021 1127.08C418.532 1126.81 419.945 1126.12 420.979 1125.28C449.415 1129.22 482.908 1129 503.772 1106.56C539.163 1120.13 578.332 1107.97 614.124 1102.55C686.957 1094.18 760.081 1081.42 833.569 1082.39C866.378 1084.3 905.085 1089.59 925.838 1117.58C952.459 1157.92 937.412 1212.4 908.046 1247.33C837.407 1336.73 594.933 1375.61 481.25 1388.92M483.236 1421.13C484.522 1420.78 485.817 1420.47 487.104 1420.17C507.722 1437.33 604.826 1481.89 597.44 1508.5C594.829 1511.81 588.581 1512.57 584.631 1513.64C577.751 1515.5 570.804 1517.11 563.79 1518.38C541.118 1522.51 517.637 1523.22 494.995 1518.52C486.665 1517.25 479.145 1513.7 471.558 1510.27C447.042 1499.49 420.042 1487.58 395.644 1476.88C364.65 1464.6 310.285 1440.4 332.645 1399.55C353.828 1423.37 380.717 1421.29 394.262 1391.68C398.933 1382.7 403.009 1370.58 413.98 1366.95C419.767 1363.04 427.168 1362.23 432.002 1366.58C432.352 1366.04 432.664 1365.28 432.835 1364.61C438.287 1372.36 442.988 1380.53 449.377 1387.62C447.184 1387.74 424.349 1404.63 431.088 1404.64C439.195 1400.46 447.25 1396.99 456.005 1394.74C462.35 1401.12 469.327 1407.05 476.556 1412.53C469.535 1417.17 463.227 1422.85 458.155 1429.01C457.716 1429.55 458.251 1430.25 458.906 1429.96C466.783 1426.45 474.883 1423.37 483.236 1421.13M587.756 1536.22C508.889 1571.63 425.397 1532.2 358.142 1490.16C342.619 1481.49 322.202 1469.21 325.341 1448.81C336.773 1465.53 355.621 1475.05 373.71 1483.31C404.102 1497.04 434.694 1510.33 465.161 1523.9C468.039 1533.44 481.8 1533.81 490.116 1535.92C527.135 1543.1 566.929 1539.53 601.769 1525.22C599.752 1531.19 593.156 1533.93 587.756 1536.22M273.095 1398.33C271.147 1398.58 269.197 1398.8 267.249 1399.02C267.45 1396.44 265.895 1393.87 263.396 1393.07C264.519 1387.6 264.936 1381.96 264.333 1376.41C267.591 1384.83 278.109 1382.27 284.788 1379.85C294.331 1377.25 303.815 1374.46 313.246 1371.49C316.965 1378.4 320.907 1385.2 325.75 1391.46C308.121 1393.02 290.657 1396.14 273.095 1398.33M265.338 1371.86C264.869 1372.85 264.2 1373.89 264.185 1375.08C263.709 1370.99 262.779 1366.94 261.366 1363.07C262.689 1366 264.014 1368.93 265.338 1371.86M254.21 1349.91C245.537 1338.61 229.508 1329.37 214.692 1332.52C213.74 1332.72 213.717 1334.25 214.692 1334.45C234.596 1337.15 252.076 1352.93 252.767 1373.34C254.337 1382.57 247.91 1391.64 250.075 1400.5C249.643 1400.53 249.212 1400.55 248.788 1400.58C248.632 1401.17 248.49 1401.7 248.304 1402.16C250.454 1402.52 251.086 1405.98 248.549 1406.6C247.047 1406.96 245.478 1407.15 243.879 1407.23C235.764 1405.04 227.203 1404.54 219.445 1401.3C211.769 1397.91 213.688 1388.38 210.98 1381.78C208.994 1374.17 206.71 1366.59 203.832 1359.29C203.624 1358.7 202.828 1358.83 202.761 1359.43C200.731 1374 200.797 1388.81 201.288 1403.5C198.626 1403.77 195.978 1404.07 193.321 1404.4C193.493 1400.3 181.183 1350.32 174.697 1363.15C177.963 1377.25 178.357 1391.98 178.706 1406.48C159.449 1409.66 140.475 1414.38 122.013 1420.81C109.004 1424.75 93.5323 1436.41 80.9032 1425.87C71.1221 1417.79 67.8271 1403.68 68.7494 1391.68C81.4685 1320.65 181.927 1312.36 241.231 1317.61C246.832 1330.53 252.537 1343.4 258.316 1356.25C257.119 1354.04 255.75 1351.91 254.21 1349.91M51.9468 1390.29C50.8608 1374.16 53.5757 1354.09 65.5287 1342.07C92.8859 1318.95 131.192 1311.67 165.377 1303.3C181.302 1300.16 197.443 1298.07 213.65 1297.03C219.4 1296.58 226.704 1297.88 230.765 1293.18C232.856 1298.13 234.975 1303.08 237.095 1308.02C169.037 1299.11 27.0441 1330.07 66.8081 1423.27C58.3874 1414.15 52.8089 1403.05 51.9468 1390.29M390.074 1336.98C393.205 1344.8 397.036 1352.25 402.042 1359.06C396.352 1362.78 391.71 1368.28 388.438 1374.19C367.462 1429.05 345.029 1399.67 317.159 1370.23C340.745 1361.33 371.985 1354.67 390.074 1336.98M40.9384 1379.13C-13.6049 1325.27 -24.1893 1235.54 -4.03957 1165.01C-2.247 1138.86 6.90183 1113.93 15.0986 1089.17C41.1988 1014.05 75.5255 941.786 116.695 873.555C167.772 887.581 218.76 901.979 269.957 915.544C277.007 917.075 284.066 920.1 291.304 920.539C293.892 922.187 296.488 924.003 299.181 925.599C295.261 944.796 298.876 964.396 299.791 983.709C300.623 998.914 298.98 1013.8 296.964 1028.85C294.711 1050.73 285.435 1121.91 304.023 1134.94C310.323 1137.98 315.954 1128.98 318.669 1131.46C321.116 1129.75 323.399 1127.53 325.259 1125.09C332.436 1148.29 344.166 1169.81 351.411 1193.04C361.05 1227.17 392.707 1282.42 385.678 1314.97C380.241 1335.07 356.454 1339.41 339.287 1345.98C319.45 1352.88 299.389 1359.21 279.001 1364.36C269.049 1343.24 259.536 1321.93 250.201 1300.53C207.536 1201.83 169.751 1101.06 135.982 999.097C135.35 996.834 127.585 972.313 126.164 979.154C126.045 978.451 125.16 976.634 124.825 978.187C130.552 1002.13 136.361 1026.06 142.647 1049.88C127.205 1047.71 110.603 1046.87 96.4711 1054.44C95.7421 1054.83 96.2777 1055.79 96.9984 1055.67C113.734 1052.77 129.875 1058.25 145.949 1062.18C168.524 1138.99 197.651 1213.86 228.482 1287.79C218.946 1284.75 207.878 1288.11 197.926 1288.35C166.582 1291.59 135.595 1298.45 105.984 1309.11C68.7643 1321.17 42.4484 1336.91 40.9384 1379.13M10.9102 818.58C1.74725 808.715 -5.45355 796.117 -4.06188 782.751C1.44229 775.412 3.26462 765.84 6.47042 757.358C19.0036 721.865 30.6367 686.102 44.2781 650.991C73.294 659.911 101.841 670.612 128.767 684.666C133.721 687.194 138.623 689.816 143.465 692.533C148.538 695.375 154.072 700.311 160.156 698.897C153.506 708.309 139.813 718.101 137.499 728.977C137.001 732.42 139.441 735.613 143.19 734.844C201.869 776.511 262.466 817.299 317.932 863.711C359.466 896.582 391.353 923.242 405.597 976.576C415.2 1011.12 415.229 1047.23 413.816 1082.75C413.541 1089.66 413.534 1096.73 412.976 1103.68C413.809 1108.88 412.225 1119.46 406.378 1119.65C406.512 1120.91 406.929 1122.08 407.591 1123.1C407.405 1123.35 407.211 1123.58 407.011 1123.83C406.72 1122.41 406.438 1120.99 406.17 1119.57C401.618 1099.42 401.008 1076.03 401.767 1054.57C402.086 1048.42 392.648 1048.56 392.12 1054.57C390.699 1070.79 389.278 1087.02 387.858 1103.23C386.153 1113.74 388.839 1127.49 380.434 1135.48C371.888 1127.58 374.714 1112.01 375.131 1101.83C375.8 1085.21 376.522 1068.6 377.139 1051.98C377.333 1046.71 368.608 1045.36 367.618 1050.71C364.814 1065.97 361.78 1081.19 358.514 1096.37C356.543 1102.24 355.189 1128.56 345.341 1123.99C339.473 1119.98 343.705 1096.49 342.932 1088.71C343.296 1073.32 343.511 1057.95 344.642 1042.59C345.103 1036.39 335.01 1035.07 333.627 1041.12C331.38 1050.92 329.231 1060.71 327.282 1070.57C323.005 1087.18 324.56 1109.71 309.118 1120.76C303.071 1077.59 311.773 1034.72 312.993 991.707C312.264 977.77 309.869 963.971 307.757 950.202C305.421 934.975 304.06 918.4 309.527 903.716C308.032 897.139 302.156 914.929 301.606 916.408C297.18 907.693 286.402 907.019 277.878 904.302C258.933 898.171 239.527 893.55 220.36 888.101C169.527 873.987 118.636 860.093 67.7304 846.229C47.3947 840.604 25.9879 833.946 10.9102 818.58M519.935 1048.2C512.921 1010.19 513.115 971.683 516.112 933.261C519.407 873.672 522.606 814.069 526.027 754.487C540.881 862.327 556.717 970.043 568.825 1078.23C569.688 1085.76 569.555 1093.72 573.356 1100.44C552.35 1103.25 529.961 1106.09 509.537 1098.95C518.5 1083.46 521.661 1065.82 519.935 1048.2M626.069 780.51C641.949 882.717 632.89 986.72 648.294 1088.81C626.925 1091.21 605.719 1094.75 584.571 1098.65C586.885 1086.03 582.497 1073.01 581.738 1060.31C570.253 969.727 557.572 879.202 540.769 789.409C536.648 767.92 532.483 746.519 527.708 725.147C528.43 712.205 529.062 699.264 529.478 686.314C552.797 671.659 579.09 662.174 606.284 657.392C613.632 698.319 620.974 739.217 626.069 780.51M442.237 459.334C441.307 457.744 440.422 456.118 439.574 454.471C442.445 454.58 445.242 454.683 448.069 455.152C447.942 459.7 448.195 464.285 448.247 468.87C446.833 465.515 444.067 462.454 442.237 459.334M921.859 1099.83C854.031 1050.53 742.623 1081.94 664.048 1087.01C649.068 988.814 655.182 889.016 641.22 790.661C628.36 692.401 614.8 592.771 582.504 498.627C569.175 462.226 546.117 451.416 508.153 451.709C488.889 450.955 468.516 447.872 449.794 448.31C445.689 448.377 441.397 448.919 437.693 450.574C432.486 438.841 429.659 426.243 428.231 413.551C428.142 412.745 427.116 412.599 426.811 413.368C422.407 424.42 421.939 436.483 424.333 448.055C426.067 456.345 436.383 488.974 448.366 476.208C449.318 502.978 443.434 534.948 417.201 548.841C371.36 568.822 307.994 550.629 281.441 508.222C276.309 499.748 271.883 490.731 266.2 482.595C305.793 471.389 328.017 423.966 318.691 387.851C312.926 415.938 302.416 447.322 276.242 463.054C180.93 462.842 101.685 506.237 56.908 589.819C48.1459 601.956 40.0459 614.567 32.6227 627.4C28.6277 635.984 16.9284 647.922 26.8582 656.213C15.3887 686.813 5.21339 717.837 -5.54206 748.679C-8.49572 758.955 -15.2495 769.736 -13.9025 780.539C-15.3603 787.197 -15.2934 795.07 -11.9537 801.471C-8.78506 812.882 -1.67501 828.234 10.1151 833.075C20.1193 842.208 32.7714 848.499 45.9666 853.238C10.7763 945.17 -2.6189 1044.32 -14.5421 1141.45C-26.2281 1226.42 -32.2596 1329.79 40.9608 1391.2C42.3814 1408.77 52.8089 1431.16 73.4279 1431.35C87.7083 1445.37 105.114 1437.68 121.009 1430.82C147.838 1420.89 175.977 1415.38 203.936 1412.31C206.934 1414.66 211.813 1414.27 214.484 1411.54C231.42 1407.64 254.895 1423.44 258.316 1409.12C280.154 1407 301.754 1403.04 323.57 1400.72C314.376 1412.64 315.039 1430.23 321.964 1443.11C304.328 1477.79 345.408 1497.88 370.527 1512.11C404.436 1531.73 439.85 1550.36 478.631 1558.5C512.727 1565.67 548.445 1563.49 581.343 1552.04C598.63 1547.69 622.774 1533.43 612.516 1513.34C625.519 1475.11 534.209 1435.5 507.35 1416.35C518.329 1414.98 518.73 1392.2 490.176 1405.29C486.724 1402.98 483.333 1400.6 479.978 1398.18C595.476 1384.91 816.052 1348.4 899.641 1269.47C945.563 1228.89 972.058 1146.8 921.859 1099.83" fill="black"/>
<path fill-rule="evenodd" clip-rule="evenodd" d="M493.932 278.259C492.335 264.181 494.402 234.756 494.54 232.968C495.416 221.667 490.136 177.038 480.155 181.15C463.413 167.857 441.113 164.921 420.261 163.519C376.948 160.606 330.871 167.293 297.425 196.528C280.885 211.71 264.783 233.792 266.077 256.784C251.05 278.578 229.864 308.473 248.588 333.951C254.952 342.091 265.068 345.123 273.063 351.287C289.145 364.297 299.235 382.968 315.469 395.9C358.48 434.664 431.512 442.762 473.77 398.671C506.448 366.739 501.164 318.968 495.416 278.259C491.552 250.891 497.048 305.724 493.932 278.259Z" fill="white"/>
<path fill-rule="evenodd" clip-rule="evenodd" d="M362.4 103.82C373.984 101.475 385.878 100.017 397.708 100.456L398.62 100.491C407.52 100.848 418.792 101.637 426.556 106.828C427.003 106.379 427.721 106.148 428.373 106.46C437.6 110.877 447.748 114.071 457.464 117.244C467.134 120.402 477.167 122.487 487.303 123.327C491.117 123.643 494.38 127.773 491.966 131.478C491.391 132.36 490.832 133.252 490.274 134.146C491.206 134.048 492.138 133.948 493.071 133.853C496.138 133.544 499.202 136.827 499.02 139.822C498.906 141.705 498.704 143.567 498.404 145.406C499.572 145.381 500.733 145.557 501.855 146.033C507.536 148.439 507.141 155.226 506.716 160.389C506.127 167.555 503.454 175.145 498.493 180.509C502.197 184.368 504.82 188.976 506.384 194.449C507.519 198.446 508.15 202.703 507.838 206.864L507.739 208.109C507.354 212.624 506.587 217.623 503.349 220.871C501.687 222.546 499.639 223.156 497.686 222.962C498.867 233.367 499.624 243.832 500.336 254.259L500.67 259.243C502.259 283.342 503.454 307.598 503.141 331.737C502.851 354.296 498.407 376.192 484.612 394.509C472.048 411.188 454.009 423.483 433.602 428.157C422.604 430.68 411.377 430.859 400.245 429.251C394.85 428.47 389.419 427.271 384.298 425.381C378.629 423.282 374.555 420.193 370.741 415.564C368.937 413.368 369.805 408.694 373.397 409.134C378.83 409.794 383.79 410.591 388.999 412.202L389.744 412.438C394.932 414.105 400.305 415.348 405.729 415.877C416.838 416.956 428.117 415.869 438.759 412.49C456.086 406.983 471.009 394.71 480.575 379.288C491.928 361.009 493.212 340.259 493.048 319.241C492.873 296.177 492.125 273.1 490.904 250.06L490.696 246.221C490.05 234.364 489.427 222.501 488.879 210.637C488.708 206.916 488.448 203.165 487.98 199.451C483.699 196.935 479.862 193.467 477.362 189.187C472.338 191.271 467.054 192.775 462.193 193.973C450.933 196.751 439.242 197.425 427.781 195.686C424.689 196.967 421.536 198.093 418.335 199.062C417.47 199.446 416.604 199.825 415.74 200.195C408.022 203.507 400.193 206.313 392.046 208.367L390.044 208.868C385.757 209.928 381.099 210.972 376.536 211.3C375.787 211.59 374.978 211.835 374.094 212.051C369.939 213.064 365.627 213.384 361.368 213.026C357.219 212.677 354.221 208.471 356.507 204.534C358.177 201.661 359.862 198.796 361.561 195.938C355.647 198.409 349.54 200.463 343.381 202.205C337.162 203.961 330.854 205.442 324.539 206.804C321.162 207.526 317.772 208.166 314.403 208.888C311.991 209.402 308.288 209.67 306.321 211.262C304.147 213.011 303.531 217.09 302.707 219.606C301.623 222.873 300.607 226.155 299.679 229.475C297.832 236.099 296.318 242.819 295.146 249.607C293.973 256.402 293.186 263.264 292.748 270.149C292.311 277.026 292.503 283.948 291.799 290.795C291.42 294.427 287.532 296.295 284.66 293.757C284.323 293.459 283.984 293.158 283.648 292.854L283.147 292.395C280.69 290.162 278.307 287.795 276.342 285.131C275.986 284.64 275.644 284.126 275.325 283.605C275.273 283.605 275.229 283.59 275.177 283.553L274.632 283.142C268.63 278.661 258.603 272.82 252.751 280.264C250.886 282.635 249.932 285.654 249.139 288.567L247.749 293.78C246.85 297.183 246.003 300.605 245.508 304.088C244.387 311.887 244.951 320.878 250.302 327.13C252.44 329.631 255.386 331.417 258.672 331.886C260.506 332.139 262.317 331.826 264.135 331.596C265.982 331.365 267.763 331.737 269.611 331.558C272.55 331.268 273.834 334.796 272.735 337.014C272.142 338.205 271.443 339.232 270.65 340.103C271.287 340.653 271.897 341.249 272.483 341.874C274.219 342.432 275.777 343.631 276.943 345.216C277.885 346.496 278.374 347.888 278.457 349.354C278.56 349.719 278.649 350.091 278.731 350.47L280.323 353.062C280.673 353.63 281.022 354.192 281.372 354.742C285.424 361.143 289.922 366.561 295.509 371.667C300.889 376.579 306.729 380.978 311.783 386.247L312.378 386.873C317.09 391.853 322.057 397.881 320.213 405.122C319.738 406.983 317.148 408.322 315.456 407.064C310.017 403.016 307.278 396.6 302.663 391.688C297.913 386.627 292.652 382.079 287.888 377.033C283.383 372.27 279.829 366.874 277.151 360.935C276.081 362.118 274.524 362.959 272.364 363.287C268.654 363.845 265.195 361.664 263.578 358.441C262.538 358.903 261.478 359.32 260.409 359.647C254.784 361.374 251.245 355.1 253.367 350.463C254.502 347.977 255.919 345.819 257.679 344.003C252.179 343.243 246.584 340.393 242.97 336.835C233.903 327.897 232.656 314.463 234.697 302.517C235.78 296.183 237.649 289.775 240.077 283.829C240.499 282.794 240.952 281.752 241.449 280.725C241.174 280.718 240.892 280.598 240.714 280.368C239.074 278.12 237.079 276.282 235.861 273.766C234.74 271.459 233.495 269.122 232.611 266.718C230.793 261.798 229.903 256.246 229.309 251.044C228.085 240.393 228.559 229.81 230.185 219.226C232.952 201.2 239.637 183.949 249.485 168.812C248.948 168.53 248.435 168.189 247.956 167.785L247.719 167.578L247.335 167.23C244.525 164.679 244.767 159.899 247.335 157.316L248.146 156.5C249.173 155.477 250.058 154.667 251.717 153.553C251.962 153.388 252.212 153.233 252.465 153.089C251.597 151.48 251.295 149.598 251.9 147.523C254.008 140.291 264.382 140.547 270.957 143.701C278.232 137.189 286.298 131.536 295.041 126.959C315.864 116.063 339.41 108.464 362.4 103.82ZM254.763 294.278C258.651 293.005 263.816 295.677 267.311 297.285C271.741 299.324 275.511 302.338 279.162 305.524C280.98 307.117 281.306 309.722 280.854 311.947C280.808 312.17 280.765 312.401 280.712 312.632C280.23 315.006 277.588 316.874 275.25 316.807C270.36 316.673 268.031 312.438 265.262 308.851C264.936 309.431 264.528 309.967 264.023 310.369L263.682 310.637C262.533 311.514 261.266 312.216 259.748 312.148C258.672 312.096 257.642 311.82 256.691 311.322C254.317 310.064 253.271 306.983 253.916 304.475C254.317 302.897 255.237 301.661 256.439 300.805L255.991 300.498C255.032 299.829 254.157 299.123 253.476 298.082L253.322 297.836H253.382C252.639 296.556 253.123 294.814 254.763 294.278Z" fill="black"/>
<path fill-rule="evenodd" clip-rule="evenodd" d="M474.633 243.195C492.117 243.195 502.095 246.963 505.751 247.256L505.861 247.264C507.382 247.362 508.746 247.489 510.178 248.044C515.441 250.075 516.298 255.606 513.227 259.091C513.011 266.304 513.958 274.732 512.334 281.968C510.33 312.473 496.012 317.621 487.874 319.5C483.788 320.443 478.945 320.819 474.605 319.823C467.201 319.546 459.881 317.224 453.618 313.18C444.896 307.543 438.418 298.879 436.315 288.597C435.319 283.696 434.853 278.595 435.396 273.613L435.476 272.927C432.641 271.568 429.355 271.311 425.969 271.191C424.351 271.134 422.756 271.082 421.207 271.151C419.693 271.32 418.197 271.546 416.696 271.853C415.058 272.348 413.51 273.166 412.081 274.461L411.983 276.351C411.714 281.073 411.096 285.809 410.141 290.441C408.732 297.276 406.466 303.804 401.643 308.652C400.01 311.095 397.99 313.276 395.537 315.165C386.628 322.038 374.524 324.562 363.415 323.611C340.862 321.683 327.825 303.744 324.821 296.076L324.642 295.612C322.471 289.911 320.742 282.515 313.884 281.29L312.426 281.028C309.296 280.439 306.409 279.62 304.574 276.56C303.769 275.225 303.356 273.731 303.254 272.208C302.184 272.291 301.115 272.369 300.049 272.446C291.551 274.247 240.58 275.773 236.511 275.773C236.511 275.773 228.691 279.072 225.389 276.516C223.1 274.739 222.347 272.371 223.607 269.688C225.508 265.651 234.278 263.223 238.172 262.454C238.172 262.454 301.015 262.977 305.538 262.118C308.337 259.226 313.343 259.622 317.526 259.165C320.988 256.691 325.833 255.034 329.659 253.925C330.439 253.628 331.211 253.342 331.962 253.072C338.977 250.569 346.269 249.243 353.671 248.531C361.305 247.804 368.961 248.133 376.55 249.175C379.748 249.61 382.916 250.172 386.062 250.907C391.695 251.651 397.296 252.877 402.931 254.331L404.058 254.625C409.992 256.183 416.09 257.532 422.233 256.475C427.234 255.62 432.043 253.692 436.654 251.606L437.255 251.334C447.393 246.695 463.226 243.195 474.633 243.195ZM385.453 260.155C381.712 259.33 380.114 265.109 383.867 265.936C386.524 266.521 388.777 267.864 390.298 270.139L390.458 270.386C392.5 273.642 397.664 270.637 395.608 267.36C393.294 263.673 389.7 261.09 385.453 260.155ZM495.017 256.572C493.698 255.641 491.702 256.332 490.937 257.647C490.094 259.095 490.646 260.708 491.881 261.656L492.007 261.748C493.14 262.548 494.243 263.982 494.382 265.452L494.394 265.636C494.543 269.481 500.507 269.5 500.358 265.636C500.213 261.855 498.028 258.696 495.017 256.572Z" fill="black"/>
<path fill-rule="evenodd" clip-rule="evenodd" d="M391.849 332.047C396.01 325.201 404.881 341.972 405.824 344.856C406.658 347.411 407.209 350.028 407.489 352.675C410.716 353.398 414.066 353.4 417.372 352.766C422.286 351.823 425.289 349.181 429.56 346.913C432.509 345.346 436.227 347.184 437.761 349.783C439.565 352.843 438.415 356.019 436.042 358.3C431.542 362.626 422.688 363.619 416.814 362.471C413.448 361.813 410.364 360.55 407.64 358.716C407.622 359.058 407.61 359.401 407.583 359.743L407.531 360.336C407.079 365.133 405.761 371.165 402.035 374.287C395.924 379.408 388.382 369.56 394.32 364.445L394.504 364.291C398.195 361.309 399 353.307 398.801 348.899C398.671 346.023 398.147 343.109 397.239 340.369L397.052 339.824C396.779 339.05 393.798 331.708 392.721 332.643L392.67 332.696C392.225 333.226 391.508 332.609 391.849 332.047ZM425.077 293.414C430.694 296.829 439.254 304.792 433.211 313.259C426.097 320.724 415.855 312.164 410.808 308.293C406.128 305.293 400.869 313.009 405.212 316.512C441.682 343.517 456.483 294.307 427.918 289.398C424.773 288.857 423.605 292.357 425.077 293.414ZM365.088 261.847C370.578 260.873 376.203 262.238 380.746 265.451L381.09 265.699C385.467 268.9 390.365 274.521 387.853 280.04C386.845 282.255 383.826 282.603 381.91 281.598C378.721 279.926 378.143 275.811 375.297 273.533C372.964 271.666 369.821 270.534 366.816 270.807C359.755 271.448 355.412 278.413 353.219 284.415C352.938 285.183 351.811 285.482 351.371 284.657C346.199 274.991 355.353 263.574 365.088 261.847ZM453.03 258.199C463.547 257.332 475.857 268.236 473.089 279.339C471.761 284.666 463.859 284.514 462.455 279.339C461.682 276.491 461.759 273.972 459.709 271.608C458.018 269.655 455.614 268.521 453.03 268.696C450.182 268.888 447.556 270.311 445.56 272.312C443.757 274.118 442.679 276.762 440.812 278.36C440.352 278.753 439.737 278.779 439.283 278.36C436.069 275.397 437.998 269.228 440.036 266.134C442.952 261.707 447.701 258.639 453.03 258.199ZM345.06 242.156C351.807 236.183 364.067 230.414 373.164 233.354C378.395 235.044 380.675 243.473 374.836 246.145C368.074 249.238 360.279 247.979 353.396 251.186C350.506 252.534 347.788 254.217 345.775 256.687C344.19 258.633 342.577 261.194 340.284 262.316C339.682 262.611 338.866 262.619 338.383 262.071C333.357 256.385 340.672 246.041 345.06 242.156ZM441.434 233.058C445.604 231.887 450.23 231.911 454.466 232.646C458.7 233.381 462.999 235.136 466.456 237.697L466.858 237.996C470.632 240.841 475.136 244.979 474.894 250.018C474.693 254.225 470.267 257.071 466.446 254.866C463.331 253.067 461.866 249.465 459.228 247.066C457.052 245.086 454.496 243.525 451.769 242.432C448.739 241.217 445.705 240.647 442.454 240.593C439.95 240.551 437.432 241.373 434.976 241.636C435.178 242.051 433.236 241.857 432.123 241.489C431.299 241.138 431.295 240.095 431.58 239.419C432.998 236.069 438.154 233.977 441.434 233.058Z" fill="black"/>
</g>
<defs>
<clipPath id="clip0_7_13119">
<rect width="1241" height="1210" fill="white"/>
</clipPath>
</defs>
</svg>
