<svg width="1241" height="1210" viewBox="0 0 1241 1210" fill="none" xmlns="http://www.w3.org/2000/svg">
<g clip-path="url(#clip0_7_12872)">
<rect width="1241" height="1210" fill="white"/>
<path fill-rule="evenodd" clip-rule="evenodd" d="M645.933 760.977C637.249 757.881 628.879 754.305 621.253 749.045C599.27 732.682 584.936 708.057 571.392 684.726C552.314 650.793 538.723 614.635 529.328 576.915C525.291 560.709 523.92 541.919 514.748 527.551C493.956 497.466 432.987 501.364 400.612 506.645C378.932 510.481 374.451 534.743 369.527 552.696C365.427 567.613 362.743 582.699 360.49 597.987C355.13 601.511 349.079 604.373 343.311 606.866C280.452 626.141 269.404 661.875 245.395 717.073C204.844 797.302 94.8088 828.715 78.1878 923.664C67.4788 986.349 97.9318 1045.32 129.329 1097.43C158.569 1154.36 199.39 1181.67 264.399 1168.23C325.374 1154.55 383.974 1131.67 443.876 1113.99C472.889 1106.85 501.856 1088.3 532.375 1094.77C595.26 1108.89 659.871 1115.53 724.317 1113.7C814.801 1117.36 814.787 1030.51 805.5 963.26C798.995 858.599 746.205 791.395 645.933 760.977V760.977Z" fill="white"/>
<path fill-rule="evenodd" clip-rule="evenodd" d="M651.983 912.422C659.544 917.422 665.903 925.003 671.008 932.981C649.696 930.764 628.421 928.208 607.193 925.298C609.972 923.522 612.777 921.785 615.646 920.145C626.113 914.247 640.295 904.694 651.983 912.422ZM297.898 975.42C293.993 973.891 292.482 967.937 290.96 964.524C286.188 953.821 281.833 942.936 277.302 932.129C294.506 927.225 311.236 921.784 329.058 919.17C348.221 916.362 367.667 915.682 387.007 916.313C426.181 917.591 464.991 923.993 503.505 930.858C541.974 937.715 580.441 944.303 619.179 949.473C657.132 954.538 695.205 958.245 733.349 961.499C740.76 962.132 753.117 964.797 759.077 958.965C763.796 954.346 763.949 945.827 758.044 942.072C754.366 939.731 749.037 939.697 744.835 939.157C739.543 938.476 734.23 938.023 728.906 937.67C726.737 937.527 724.568 937.395 722.398 937.263C739.815 930.696 758.006 927.115 776.888 928.113C777.956 934.6 782.767 941.274 785.4 946.624C789.998 955.964 793.582 965.417 795.935 975.573C800.853 996.801 801.067 1018.83 799.678 1040.48C798.402 1058.54 795.661 1078.5 781.501 1091.29C770.78 1100.97 755.654 1104.55 741.621 1105.68C725.311 1106.99 708.749 1105.59 692.576 1103.4C669.892 1100.34 647.102 1096.28 624.864 1090.85C581.793 1080.32 540.509 1063.57 502.42 1040.85C483.845 1029.78 466.121 1017.32 447.291 1006.66C428.104 995.807 407.688 987.384 386.25 982.154C362.259 976.301 337.179 973.803 312.521 975.247C308.242 975.497 302.06 977.049 297.898 975.42ZM270.096 964.552C272.617 972.733 274.546 982.074 279.927 988.948C285.257 995.76 293.298 998.164 301.628 998.77C311.672 999.499 321.834 999.032 331.9 999.406C352.545 1000.17 372.907 1003.53 392.643 1009.68C411.035 1015.41 428.108 1024.35 444.554 1034.27C459.762 1043.45 474.524 1053.29 489.737 1062.44C485.688 1064.3 481.685 1066.3 477.66 1068.05C469.218 1071.72 460.724 1075.26 452.192 1078.7C435.367 1085.5 418.471 1092.14 401.402 1098.3C366.984 1110.73 332 1121.59 296.595 1130.84C279.709 1135.25 262.583 1140.41 245.04 1141.14C229.484 1141.79 215.075 1137.39 202.529 1128.14C176.507 1108.96 155.804 1081.27 139.068 1053.96C129.125 1037.73 120.448 1020.68 113.271 1003.05C109.641 994.137 106.349 985.085 103.386 975.927C101.996 971.627 100.678 967.303 99.4297 962.959C98.8807 961.049 98.3547 959.133 97.8337 957.215C124.443 949.095 151.368 941.765 178.925 937.696C193.638 935.523 208.547 934.423 223.421 934.583C230.804 934.662 238.183 935.061 245.527 935.823C249.48 936.233 253.417 936.761 257.337 937.415C258.957 937.684 260.622 938.082 262.292 938.375C264.843 947.116 267.415 955.85 270.096 964.552ZM820.138 929.798C821.572 926.897 822.177 924.043 822.691 920.885C823.083 918.476 824.123 915.085 823.212 911.957C822.192 908.454 819.413 905.321 817.418 902.333C815.215 899.031 813.014 895.727 810.816 892.421C806.419 885.81 802.032 879.193 797.652 872.571C779.765 845.53 762 818.411 744.207 791.309C728.417 767.258 712.893 742.991 696.622 719.263C682.709 698.973 667.544 679.018 648.5 663.238C624.421 643.286 595.749 633.887 565.8 626.553C562.529 623.158 558.16 621.304 553.49 621.68C546.892 614.197 541.648 608.97 539.271 599.454C538.132 594.896 538.489 582.089 534.05 579.392C528.777 576.188 526.023 580.428 524.569 585.208C519.704 601.198 525.288 622.696 538.138 638.713C532.724 657.424 525.546 684.016 512.741 699.006C499.029 715.057 480.066 720.053 459.606 720.382C420.588 721.01 381.611 706.509 351.85 681.377C342.804 673.739 334.403 665.208 326.802 656.135C321.101 649.328 314.357 638.823 309.897 630.883C309.897 627.789 306.243 624.553 343.437 622.053C380.63 619.553 383.451 568.626 384.278 561.695C384.95 556.067 387.808 547.331 383.842 542.742C382.159 540.793 378.705 540.479 376.571 541.803C372.547 544.302 371.225 550.692 369.96 555.031C368.188 561.11 362.395 598.837 351.418 603.205C346.279 605.25 340.385 605.288 334.949 605.666C328.236 606.135 321.509 606.478 314.823 607.259C312.357 607.547 309.667 608.345 307.234 608.368C305.651 608.383 304.018 607.614 302.488 607.074C297.324 605.249 292.164 606.618 286.844 607.333C239.808 613.654 191.377 628.081 151.257 654.04C115.895 676.92 90.9817 709.825 74.5427 748.297C57.7697 787.559 48.1557 830.016 40.0987 871.812C37.3997 885.816 35.0427 899.885 33.0177 914.002C31.0607 927.643 28.6127 941.589 28.0267 955.368C27.7947 960.82 29.0977 965.885 31.1027 970.865C33.3607 976.47 38.6977 978.68 43.8167 981.297C55.0537 987.045 66.9077 991.503 79.1207 994.66C86.5817 1008.23 92.8607 1022.34 97.9067 1036.97C96.0347 1040.68 95.9957 1046.22 95.6357 1049.83C94.7427 1058.8 94.3607 1067.83 94.2807 1076.84C94.1197 1094.92 95.2067 1112.98 96.0587 1131.02C96.9227 1149.33 99.7947 1221.55 100.263 1230.37C100.627 1237.22 100.137 1246.8 103.746 1252.88C109.292 1262.23 122.98 1261.92 129.32 1254.34C286.844 1288.2 582.944 1278 702.199 1260.96C717.715 1258.75 712.843 1261.2 716.789 1257.28C719.75 1254.34 722.27 1249.3 723.089 1245.25C724.183 1239.84 722.417 1234.95 719.321 1230.57C716.066 1225.97 715.473 1218.52 714.264 1213.05C711.405 1200.12 709.984 1143.33 708.648 1137.04C708.232 1135.07 707.829 1133 707.343 1130.93C729.218 1133 752.011 1133 772.822 1125.68C784.623 1121.53 795.629 1115.02 804.101 1105.71C814.359 1094.45 820.066 1080.26 823.001 1065.46C826.788 1046.37 827.592 1026.59 826.848 1007.18C825.814 984.248 822.01 960.989 812.568 939.93C815.675 937.045 818.279 933.564 820.138 929.798Z" fill="black"/>
<path fill-rule="evenodd" clip-rule="evenodd" d="M617.529 385.003C615.377 366.088 618.163 326.552 618.349 324.15C619.529 308.965 612.415 249.002 598.964 254.527C576.402 236.666 546.351 232.722 518.252 230.838C459.884 226.924 397.791 235.909 352.721 275.189C330.433 295.588 308.733 325.257 310.477 356.149C290.227 385.431 261.677 425.598 286.909 459.831C295.486 470.768 309.117 474.841 319.892 483.124C341.563 500.604 355.16 525.69 377.037 543.066C434.997 595.149 533.414 606.029 590.36 546.789C634.395 503.885 627.275 439.699 619.529 385.003C614.322 348.23 621.729 421.904 617.529 385.003Z" fill="white"/>
<path fill-rule="evenodd" clip-rule="evenodd" d="M440.28 150.626C455.89 147.476 471.919 145.516 487.86 146.106L489.089 146.153C501.083 146.633 516.273 147.693 526.736 154.668C527.338 154.064 528.306 153.754 529.184 154.173C541.618 160.108 555.294 164.399 568.386 168.663C581.418 172.906 594.938 175.707 608.597 176.836C613.736 177.261 618.134 182.81 614.88 187.787C614.106 188.973 613.352 190.171 612.601 191.372C613.857 191.241 615.113 191.106 616.369 190.979C620.502 190.563 624.631 194.974 624.386 198.998C624.233 201.529 623.96 204.03 623.556 206.501C625.13 206.468 626.695 206.704 628.207 207.343C635.863 210.576 635.33 219.695 634.757 226.633C633.963 236.261 630.362 246.459 623.676 253.665C628.668 258.85 632.202 265.042 634.31 272.396C635.839 277.766 636.69 283.486 636.27 289.076L636.136 290.749C635.617 296.815 634.584 303.532 630.22 307.896C627.98 310.146 625.22 310.966 622.589 310.706C624.18 324.686 625.2 338.746 626.16 352.756L626.61 359.452C628.752 391.832 630.361 424.422 629.94 456.856C629.549 487.166 623.56 516.586 604.97 541.196C588.039 563.606 563.73 580.126 536.23 586.406C521.41 589.796 506.28 590.036 491.28 587.876C484.009 586.826 476.69 585.216 469.789 582.676C462.15 579.856 456.66 575.706 451.52 569.486C449.089 566.536 450.259 560.256 455.1 560.846C462.421 561.733 469.105 562.803 476.124 564.969L477.129 565.286C484.12 567.526 491.36 569.196 498.669 569.906C513.64 571.356 528.839 569.896 543.18 565.356C566.53 557.956 586.64 541.466 599.53 520.746C614.83 496.186 616.56 468.306 616.339 440.066C616.102 409.077 615.094 378.071 613.449 347.114L613.169 341.956C612.299 326.026 611.459 310.086 610.72 294.146C610.49 289.146 610.14 284.106 609.509 279.116C603.74 275.736 598.57 271.076 595.2 265.326C588.43 268.126 581.31 270.146 574.759 271.756C559.585 275.488 543.831 276.394 528.386 274.057C524.22 275.778 519.971 277.291 515.657 278.593C514.491 279.11 513.325 279.618 512.16 280.116C501.759 284.566 491.209 288.336 480.23 291.096L477.533 291.768C471.755 293.192 465.479 294.595 459.33 295.036C458.32 295.426 457.23 295.756 456.039 296.046C450.44 297.406 444.629 297.836 438.89 297.356C433.299 296.886 429.259 291.236 432.339 285.946C434.589 282.086 436.86 278.236 439.15 274.396C431.18 277.716 422.95 280.476 414.65 282.816C406.27 285.176 397.77 287.166 389.259 288.996C384.709 289.966 380.14 290.826 375.6 291.796C372.35 292.486 367.36 292.846 364.709 294.986C361.78 297.336 360.95 302.816 359.839 306.196C358.379 310.586 357.009 314.996 355.759 319.456C353.27 328.356 351.23 337.386 349.65 346.506C348.07 355.636 347.009 364.856 346.419 374.106C345.83 383.346 346.089 392.646 345.14 401.846C344.629 406.726 339.39 409.236 335.52 405.826C335.066 405.426 334.608 405.021 334.155 404.612L333.48 403.996C330.169 400.996 326.959 397.816 324.31 394.236C323.83 393.576 323.37 392.886 322.94 392.186C322.87 392.186 322.81 392.166 322.74 392.116L322.005 391.563C313.918 385.543 300.406 377.695 292.52 387.696C290.007 390.881 288.72 394.938 287.653 398.852L285.779 405.856C284.567 410.429 283.426 415.027 282.759 419.706C281.249 430.186 282.009 442.266 289.22 450.666C292.1 454.026 296.07 456.426 300.499 457.056C302.97 457.396 305.41 456.976 307.86 456.666C310.35 456.356 312.749 456.856 315.24 456.616C319.2 456.226 320.93 460.966 319.45 463.946C318.65 465.546 317.709 466.926 316.64 468.096C317.499 468.836 318.32 469.636 319.11 470.476C321.45 471.226 323.549 472.836 325.12 474.966C326.39 476.686 327.049 478.556 327.16 480.526C327.299 481.016 327.419 481.516 327.53 482.026L329.675 485.507C330.147 486.271 330.617 487.026 331.089 487.766C336.549 496.366 342.61 503.646 350.14 510.506C357.39 517.106 365.259 523.016 372.07 530.096L372.872 530.936C379.222 537.627 385.915 545.727 383.43 555.456C382.79 557.956 379.299 559.756 377.02 558.066C369.69 552.626 365.999 544.006 359.78 537.406C353.379 530.606 346.289 524.496 339.87 517.716C333.799 511.316 329.009 504.066 325.4 496.086C323.959 497.676 321.86 498.806 318.95 499.246C313.95 499.996 309.289 497.066 307.11 492.736C305.709 493.356 304.28 493.916 302.839 494.356C295.259 496.676 290.49 488.246 293.35 482.016C294.879 478.676 296.789 475.776 299.16 473.336C291.749 472.316 284.209 468.486 279.339 463.706C267.12 451.696 265.44 433.646 268.19 417.596C269.65 409.086 272.169 400.476 275.44 392.486C276.009 391.096 276.62 389.696 277.289 388.316C276.919 388.306 276.539 388.146 276.299 387.836C274.089 384.816 271.4 382.346 269.759 378.966C268.249 375.866 266.57 372.726 265.379 369.496C262.93 362.886 261.73 355.426 260.93 348.436C259.28 334.126 259.919 319.906 262.11 305.686C265.839 281.466 274.847 258.288 288.118 237.95C287.395 237.57 286.703 237.112 286.058 236.57L285.739 236.292L285.221 235.824C281.434 232.397 281.761 225.974 285.221 222.503L286.314 221.407C287.697 220.032 288.891 218.943 291.126 217.447C291.456 217.226 291.793 217.018 292.134 216.824C290.964 214.662 290.558 212.134 291.373 209.345C294.213 199.629 308.193 199.973 317.054 204.21C326.857 195.461 337.727 187.866 349.509 181.716C377.57 167.076 409.299 156.866 440.28 150.626ZM295.23 406.526C300.47 404.816 307.43 408.406 312.14 410.566C318.11 413.306 323.19 417.356 328.11 421.636C330.56 423.776 330.999 427.276 330.39 430.266C330.329 430.566 330.27 430.876 330.199 431.186C329.549 434.376 325.989 436.886 322.839 436.796C316.249 436.616 313.11 430.926 309.379 426.106C308.94 426.886 308.39 427.606 307.709 428.146L307.249 428.506C305.701 429.684 303.995 430.626 301.949 430.536C300.499 430.466 299.11 430.096 297.829 429.426C294.629 427.736 293.22 423.596 294.089 420.226C294.629 418.106 295.869 416.446 297.489 415.296L296.885 414.883C295.593 413.983 294.415 413.035 293.496 411.637L293.289 411.306H293.369C292.369 409.586 293.02 407.246 295.23 406.526Z" fill="black"/>
<path fill-rule="evenodd" clip-rule="evenodd" d="M544.321 464.417C544.62 464.744 543.961 465.184 543.632 464.946C539.823 462.185 533.823 463.752 530.146 465.002C530.146 465.002 528.802 508.317 530.289 509.343C531.776 510.37 552.733 509.76 552.733 512.33C552.733 520.731 540.13 523.885 533.289 523.385C522.518 522.6 511.417 521.064 500.661 522.308C489.905 523.552 467.055 530.416 455.359 520.93C441.409 509.616 443.295 491.022 454.902 478.883C462.219 471.232 472.985 466.641 483.601 463.24C499.136 458.263 535.748 455.05 544.321 464.417ZM515.668 496.217C510.035 498.41 482.031 507.659 475.377 509.343C483.154 508.785 509.707 508.168 515.668 505.284C516.337 502.583 516.764 495.79 515.668 496.217ZM519.944 466.191C504.701 468.667 471.784 479.831 467.055 485.773C474.241 484.643 514.332 479.831 518.855 479.831C519.512 476.333 519.077 470.2 519.944 466.191ZM524.814 398.367C532.366 402.957 543.872 413.661 535.748 425.04C526.186 435.073 512.419 423.569 505.634 418.366C499.344 414.334 492.276 424.705 498.112 429.413C547.136 465.708 567.031 399.568 528.634 392.971C524.406 392.244 522.836 396.947 524.814 398.367ZM541.557 331.391C545.99 331.354 548.579 334.231 551.903 336.793C555.326 339.432 559.453 341.537 563.454 343.149C567.626 344.828 572.086 346.161 576.478 347.112C581.031 348.096 585.22 347.635 589.74 348.468C601.722 350.677 598.886 370.656 586.871 369.668C576.057 368.779 564.448 362.135 556.247 355.246C552.328 351.955 549.02 348.182 545.801 344.24L545.198 343.499C542.34 339.973 539.671 336.364 541.105 331.735C541.167 331.535 541.345 331.393 541.557 331.391ZM441.616 389.699C441.63 383.322 445.344 368.762 454.524 368.762C460.259 368.762 463.741 378.671 464.344 388.886L464.365 389.302C464.631 395.653 462.888 409.534 454.524 409.534C446.072 409.534 441.704 396.387 441.618 389.924L441.616 389.699ZM576.774 389.699C576.76 383.322 573.046 368.762 563.866 368.762C558.274 368.762 554.825 378.182 554.097 388.12L554.046 388.886C553.684 395.022 555.314 409.534 563.866 409.534C572.318 409.534 576.686 396.387 576.773 389.924L576.774 389.699ZM471.658 332.342C477.383 329.871 483.944 330.573 487.391 336.467C490.654 342.045 488.433 348.768 483.265 352.2C478.19 355.571 471.377 357.404 465.541 359.332L464.897 359.547C459.241 361.45 453.581 363.006 447.739 364.222C442.28 365.358 436.78 366.2 431.248 366.871L429.587 367.067C425.272 367.565 419.253 369.242 415.369 366.786C415.024 366.569 414.891 366.12 415.099 365.76C417.36 361.845 423.362 360.285 427.213 358.302C432.158 355.754 437.032 353.041 441.862 350.282C446.745 347.492 451.615 344.656 456.446 341.776C461.464 338.785 466.322 334.644 471.658 332.342Z" fill="black"/>
<path fill-rule="evenodd" clip-rule="evenodd" d="M614.09 396.432C611.262 404.128 606.958 412.14 601.695 418.617C580.401 436.649 559.71 426.665 549.204 402.226C545.212 384.955 555.811 366.351 567.042 353.646C583.262 337.389 609.733 345.921 617.191 365.247C617.644 367.751 617.918 370.249 618.049 372.739C617.894 380.83 616.919 387.745 614.09 395.432M409.41 380.911C437.462 347.544 489.942 345.76 488.603 397.115C482.577 462.119 381.106 446.164 409.41 380.911ZM622.913 353.076C621.93 351.411 620.839 349.8 619.648 348.259C619.208 347.997 618.955 345.673 617.337 345.501C595.71 321.642 557.717 335.179 543.989 358.953C541.482 361.959 539.437 365.478 537.929 369.196C524.403 366.715 508.634 367.197 496.054 372.306C483.58 339.734 445.815 336.826 420.928 350.743C405.449 358.356 395.412 374.299 380.358 383.057C344.969 385.604 306.988 377.675 272.238 386.552C244.832 392.25 267.742 406.127 272.338 396.866C305.101 387.186 343.916 395.366 377.933 393.185C381.47 399.168 388.253 404.064 395.013 403.855C402.314 468.576 496.698 457.844 499.954 400.311C503.647 394.472 508.24 388.884 514.814 385.246C517.331 384.725 519.762 384.048 521.984 383C525.782 382.464 531.634 384.074 535.128 387.236C547.097 459.052 616.052 450.688 628.375 387.774C628.62 387.524 629.305 386.586 629.831 385.081C634.049 379.504 644.375 377.431 642.725 368.016C641.256 358.599 629.364 358.711 622.913 353.076Z" fill="black"/>
</g>
<defs>
<clipPath id="clip0_7_12872">
<rect width="1241" height="1210" fill="white"/>
</clipPath>
</defs>
</svg>
